{
.formatVersion = 3;
axes = (
{
name = Weight;
tag = wght;
}
);
classes = (
{

glyphs = (
{
glyphname = A;
layers = (
{
anchors = (
{
name = bottom;
position = "{498, 0}";
},
{
name = ogonek;
position = "{999, 0}";
},
{
name = top;
position = "{498, 750}";
}
);
guides = (
{
angle = 182.192;
position = "{407, 20}";
}
);
layerId = "97350278-980A-4778-8478-A58DCFDD7560";
shapes = (
{
closed = 1;
nodes = (
(749,126,l),
(749,331,l),
(238,331,l),
(238,126,l)
);
},
{
closed = 1;
nodes = (
(326,750,l),
(-3,0,l),
(272,0,l),
(531,636,l),
(465,636,l),
(724,0,l),
(999,0,l),
(670,750,l)
);
}
);
width = 996;
},
{
anchors = (
{
name = bottom;
position = "{450, 0}";
},
{
name = ogonek;
position = "{892, 0}";
},
{
name = top;
position = "{450, 750}";
}
);
layerId = "4A3736D9-1D75-4B42-9353-97DA234A9782";
shapes = (
{
closed = 1;
nodes = (
(708,172,l),
(708,281,l),
(184,281,l),
(184,172,l)
);
},
{
closed = 1;
nodes = (
(367,750,l),
(7,0,l),
(148,0,l),
(475,700,l),
(424,700,l),
(751,0,l),
(892,0,l),
(532,750,l)
);
}
);
width = 899;
},
{
anchors = (
{
name = bottom;
position = "{421, 0}";
},
{
name = ogonek;
position = "{828, 0}";
},
{
name = top;
position = "{421, 750}";
}
);
layerId = "8FDEF4EB-75F1-466F-B872-024C1FB72131";
shapes = (
{
closed = 1;
nodes = (
(683,200,l),
(683,250,l),
(151,250,l),
(151,200,l)
);
},
{
closed = 1;
nodes = (
(393,750,l),
(14,0,l),
(77,0,l),
(446,736,l),
(397,736,l),
(765,0,l),
(828,0,l),
(449,750,l)
);
}
);
width = 842;
}
);
leftKerningGroup = A2;
rightKerningGroup = A;
unicode = 65;
},
{
glyphname = "Alpha-latin";
layers = (
{
anchors = (
{
name = bottom;
position = "{436, 0}";
},
{
name = ogonek;
position = "{949, 0}";
},
{
name = top;
position = "{481, 750}";
}
);
layerId = "97350278-980A-4778-8478-A58DCFDD7560";
shapes = (
{
closed = 1;
nodes = (
(949,0,l),
(949,750,l),
(703,750,l),
(703,0,l)
);
},
{
closed = 1;
nodes = (
(748,617,o),
(605,768,o),
(403,768,cs),
(182,768,o),
(34,611,o),
(34,375,cs),
(34,139,o),
(182,-18,o),
(403,-18,cs),
(606,-18,o),
(746,138,o),
(771,375,c)
);
},
{
closed = 1;
nodes = (
(294,470,o),
(367,540,o),
(473,540,cs),
(567,540,o),
(660,470,o),
(688,375,c),
(660,281,o),
(567,210,o),
(473,210,cs),
(367,210,o),
(294,281,o),
(294,375,cs)
);
}
);
width = 990;
},
{
anchors = (
{
name = bottom;
position = "{443, 0}";
},
{
name = ogonek;
position = "{902, 0}";
},
{
name = top;
position = "{453, 750}";
}
);
layerId = "4A3736D9-1D75-4B42-9353-97DA234A9782";
shapes = (
{
closed = 1;
nodes = (
(904,0,l),
(904,750,l),
(777,750,l),
(777,0,l)
);
},
{
closed = 1;
nodes = (
(767,613,o),
(621,764,o),
(416,764,cs),
(196,764,o),
(46,607,o),
(46,375,cs),
(46,143,o),
(196,-14,o),
(416,-14,cs),
(622,-14,o),
(765,140,o),
(816,376,c)
);
},
{
closed = 1;
nodes = (
(180,535,o),
(288,648,o),
(445,648,cs),
(592,648,o),
(702,535,o),
(760,376,c),
(702,215,o),
(591,102,o),
(445,102,cs),
(287,102,o),
(180,216,o),
(180,376,cs)
);
}
);
width = 971;
},
{
anchors = (
{
name = bottom;
position = "{440, 0}";
},
{
name = ogonek;
position = "{867, 0}";
},
{
name = top;
position = "{429, 750}";
}
);
layerId = "8FDEF4EB-75F1-466F-B872-024C1FB72131";
shapes = (
{
closed = 1;
nodes = (
(870,0,l),
(870,750,l),
(815,750,l),
(815,0,l)
);
},
{
closed = 1;
nodes = (
(771,610,o),
(626,762,o),
(421,762,cs),
(203,762,o),
(53,604,o),
(53,375,cs),
(53,146,o),
(203,-12,o),
(421,-12,cs),
(627,-12,o),
(771,142,o),
(836,376,c)
);
},
{
closed = 1;
nodes = (
(111,574,o),
(239,710,o),
(425,710,cs),
(601,710,o),
(721,574,o),
(797,376,c),
(721,176,o),
(600,40,o),
(424,40,cs),
(238,40,o),
(111,177,o),
(111,376,cs)
);
}
);
width = 952;
}
);
unicode = 11373;
},
{
glyphname = Aringacute;
layers = (
{
layerId = "97350278-980A-4778-8478-A58DCFDD7560";
shapes = (
{
closed = 1;
nodes = (
(749,126,l),
(749,331,l),
(238,331,l),
(238,126,l)
);
},
{
closed = 1;
nodes = (
(326,750,l),
(-3,0,l),
(272,0,l),
(531,636,l),
(465,636,l),
(724,0,l),
(999,0,l),
(670,750,l)
);
},
{
closed = 1;
nodes = (
(640,782,o),
(720,836,o),
(720,932,cs),
(720,1028,o),
(640,1082,o),
(498,1082,cs),
(356,1082,o),
(276,1028,o),
(276,932,cs),
(276,836,o),
(356,782,o),
(498,782,cs)
);
},
{
closed = 1;
nodes = (
(437,886,o),
(412,903,o),
(412,932,cs),
(412,961,o),
(437,978,o),
(498,978,cs),
(559,978,o),
(584,961,o),
(584,932,cs),
(584,903,o),
(559,886,o),
(498,886,cs)
);
},
{
closed = 1;
nodes = (
(402,1059,l),
(584,1059,l),
(696,1262,l),
(472,1262,l)
);
}
);
width = 996;
},
{
layerId = "4A3736D9-1D75-4B42-9353-97DA234A9782";
shapes = (
{
closed = 1;
nodes = (
(708,172,l),
(708,281,l),
(184,281,l),
(184,172,l)
);
},
{
closed = 1;
nodes = (
(367,750,l),
(7,0,l),
(148,0,l),
(475,700,l),
(424,700,l),
(751,0,l),
(892,0,l),
(532,750,l)
);
},
{
closed = 1;
nodes = (
(552,798,o),
(613,842,o),
(613,913,cs),
(613,985,o),
(552,1029,o),
(450,1029,cs),
(348,1029,o),
(287,985,o),
(287,913,cs),
(287,842,o),
(348,798,o),
(450,798,cs)
);
},
{
closed = 1;
nodes = (
(394,863,o),
(366,881,o),
(366,913,cs),
(366,946,o),
(394,964,o),
(450,964,cs),
(506,964,o),
(534,946,o),
(534,913,cs),
(534,881,o),
(506,863,o),
(450,863,cs)
);
},
{
closed = 1;
nodes = (
(395,1011,l),
(496,1011,l),
(592,1173,l),
(467,1173,l)
);
}
);
width = 899;
},
{
layerId = "8FDEF4EB-75F1-466F-B872-024C1FB72131";
shapes = (
{
closed = 1;
nodes = (
(683,200,l),
(683,250,l),
(151,250,l),
(151,200,l)
);
},
{
closed = 1;
nodes = (
(393,750,l),
(14,0,l),
(77,0,l),
(446,736,l),
(397,736,l),
(765,0,l),
(828,0,l),
(449,750,l)
);
},
{
closed = 1;
nodes = (
(498,807,o),
(548,845,o),
(548,902,cs),
(548,959,o),
(498,997,o),
(421,997,cs),
(344,997,o),
(294,959,o),
(294,902,cs),
(294,845,o),
(344,807,o),
(421,807,cs)
);
},
{
closed = 1;
nodes = (
(368,849,o),
(338,868,o),
(338,902,cs),
(338,936,o),
(368,955,o),
(421,955,cs),
(474,955,o),
(504,936,o),
(504,902,cs),
(504,868,o),
(474,849,o),
(421,849,cs)
);
},
{
closed = 1;
nodes = (
(391,984,l),
(442,984,l),
(529,1121,l),
(464,1121,l)
);
}
);
width = 842;
}
);
leftKerningGroup = A2;
rightKerningGroup = A;
unicode = 506;
},
{
color = 2;
glyphname = Astroke;
layers = (
{
layerId = "97350278-980A-4778-8478-A58DCFDD7560";
shapes = (
{
closed = 1;
nodes = (
(280,-122,l),
(415,-122,l),
(800,872,l),
(665,872,l)
);
},
{
closed = 1;
nodes = (
(749,126,l),
(749,331,l),
(238,331,l),
(238,126,l)
);
},
{
closed = 1;
nodes = (
(326,750,l),
(-3,0,l),
(272,0,l),
(531,636,l),
(465,636,l),
(724,0,l),
(999,0,l),
(670,750,l)
);
}
);
width = 996;
},
{
layerId = "4A3736D9-1D75-4B42-9353-97DA234A9782";
shapes = (
{
closed = 1;
nodes = (
(209,-122,l),
(317,-122,l),
(722,872,l),
(614,872,l)
);
},
{
closed = 1;
nodes = (
(709,172,l),
(709,281,l),
(185,281,l),
(185,172,l)
);
},
{
closed = 1;
nodes = (
(368,750,l),
(8,0,l),
(149,0,l),
(476,700,l),
(425,700,l),
(752,0,l),
(893,0,l),
(533,750,l)
);
}
);
width = 901;
},
{
layerId = "8FDEF4EB-75F1-466F-B872-024C1FB72131";
shapes = (
{
closed = 1;
nodes = (
(214,-122,l),
(266,-122,l),
(701,872,l),
(649,872,l)
);
},
{
closed = 1;
nodes = (
(683,200,l),
(683,250,l),
(151,250,l),
(151,200,l)
);
},
{
closed = 1;
nodes = (
(393,750,l),
(14,0,l),
(77,0,l),
(446,736,l),
(397,736,l),
(765,0,l),
(828,0,l),
(449,750,l)
);
}
);
width = 842;
}
);
unicode = 570;
},
{
glyphname = AE;
layers = (
{
anchors = (
{
name = bottom;
position = "{632, 0}";
},
{
name = top;
position = "{742, 750}";
}
);
layerId = "97350278-980A-4778-8478-A58DCFDD7560";
shapes = (
{
closed = 1;
nodes = (
(1183,286,l),
(1183,464,l),
(768,464,l),
(740,546,l),
(1215,546,l),
(1215,750,l),
(299,750,l),
(0,0,l),
(275,0,l),
(522,677,l),
(440,677,l),
(667,0,l),
(1220,0,l),
(1220,204,l),
(855,204,l),
(827,286,l)
);
},
{
closed = 1;
nodes = (
(702,126,l),
(702,331,l),
(221,331,l),
(221,126,l)
);
}
);
width = 1266;
},
{
anchors = (
{
name = bottom;
position = "{640, 0}";
},
{
name = top;
position = "{740, 750}";
}
);
layerId = "4A3736D9-1D75-4B42-9353-97DA234A9782";
shapes = (
{
closed = 1;
nodes = (
(1151,320,l),
(1151,430,l),
(671,430,l),
(584,636,l),
(1175,636,l),
(1175,750,l),
(346,750,l),
(10,0,l),
(151,0,l),
(466,721,l),
(411,721,l),
(717,0,l),
(1216,0,l),
(1216,114,l),
(806,114,l),
(718,320,l)
);
},
{
closed = 1;
nodes = (
(679,172,l),
(679,281,l),
(173,281,l),
(173,172,l)
);
}
);
width = 1248;
},
{
anchors = (
{
name = bottom;
position = "{644, 0}";
},
{
name = top;
position = "{744, 750}";
}
);
layerId = "8FDEF4EB-75F1-466F-B872-024C1FB72131";
shapes = (
{
closed = 1;
nodes = (
(1131,350,l),
(1131,400,l),
(617,400,l),
(474,700,l),
(1151,700,l),
(1151,750,l),
(374,750,l),
(16,0,l),
(79,0,l),
(433,745,l),
(393,745,l),
(747,0,l),
(1227,0,l),
(1227,50,l),
(783,50,l),
(641,350,l)
);
},
{
closed = 1;
nodes = (
(665,200,l),
(665,250,l),
(143,250,l),
(143,200,l)
);
}
);
width = 1241;
}
);
leftKerningGroup = AE2;
rightKerningGroup = AE;
unicode = 198;
},
{
glyphname = B;
layers = (
{
anchors = (
{
name = bottom;
position = "{459, 0}";
},
{
name = top;
position = "{437, 750}";
}
);
guides = (
{
position = "{0, 533}";
}
);
layerId = "97350278-980A-4778-8478-A58DCFDD7560";
shapes = (
{
closed = 1;
nodes = (
(604,364,l),
(770,381,o),
(830,469,o),
(830,567,cs),
(830,681,o),
(747,750,o),
(608,750,cs),
(40,750,l),
(40,0,l),
(629,0,ls),
(797,0,o),
(880,92,o),
(880,215,cs),
(880,332,o),
(794,404,o),
(624,410,c)
);
},
{
closed = 1;
nodes = (
(292,694,l),
(195,579,l),
(507,579,ls),
(545,579,o),
(568,557,o),
(568,526,cs),
(568,493,o),
(542,469,o),
(507,469,cs),
(249,469,l),
(249,301,l),
(545,301,ls),
(593,301,o),
(618,272,o),
(618,236,cs),
(618,196,o),
(591,171,o),
(547,171,cs),
(194,171,l),
(292,56,l)
);
}
);
width = 907;
},
{
anchors = (
{
name = bottom;
position = "{430, 0}";
},
{
name = top;
position = "{410, 750}";
}
);
layerId = "4A3736D9-1D75-4B42-9353-97DA234A9782";
shapes = (
{
closed = 1;
nodes = (
(539,372,l),
(698,385,o),
(757,478,o),
(757,568,cs),
(757,681,o),
(679,750,o),
(540,750,cs),
(58,750,l),
(58,0,l),
(558,0,ls),
(721,0,o),
(807,85,o),
(807,205,cs),
(807,315,o),
(730,399,o),
(552,401,c)
);
},
{
closed = 1;
nodes = (
(191,713,l),
(140,644,l),
(511,644,ls),
(584,644,o),
(624,605,o),
(624,550,cs),
(624,477,o),
(572,436,o),
(501,436,cs),
(189,436,l),
(189,334,l),
(514,334,ls),
(619,334,o),
(674,290,o),
(674,216,cs),
(674,145,o),
(625,106,o),
(543,106,cs),
(140,106,l),
(191,37,l)
);
}
);
width = 847;
},
{
anchors = (
{
name = bottom;
position = "{414, 0}";
},
{
name = top;
position = "{394, 750}";
}
);
guides = (
{
angle = 153.435;
position = "{236, 641}";
}
);
layerId = "8FDEF4EB-75F1-466F-B872-024C1FB72131";
shapes = (
{
closed = 1;
nodes = (
(501,377,l),
(656,388,o),
(714,483,o),
(714,569,cs),
(714,681,o),
(640,750,o),
(501,750,cs),
(71,750,l),
(71,0,l),
(517,0,ls),
(676,0,o),
(764,81,o),
(764,199,cs),
(764,304,o),
(693,396,o),
(510,396,c)
);
},
{
closed = 1;
nodes = (
(130,725,l),
(109,700,l),
(496,700,ls),
(601,700,o),
(656,645,o),
(656,569,cs),
(656,464,o),
(581,410,o),
(481,410,cs),
(104,410,l),
(104,360,l),
(478,360,ls),
(628,360,o),
(706,303,o),
(706,199,cs),
(706,101,o),
(638,50,o),
(523,50,cs),
(109,50,l),
(130,25,l)
);
}
);
width = 812;
}
);
leftKerningGroup = B2;
rightKerningGroup = B;
unicode = 66;
},
{
glyphname = "Beta-latin";
layers = (
{
anchors = (
{
name = bottom;
position = "{467, 0}";
},
{
name = top;
position = "{467, 750}";
}
);
layerId = "97350278-980A-4778-8478-A58DCFDD7560";
shapes = (
{
closed = 1;
nodes = (
(810,434,o),
(840,498,o),
(840,567,cs),
(840,681,o),
(757,750,o),
(618,750,cs),
(60,750,l),
(60,-165,l),
(316,-165,l),
(316,0,l),
(639,0,ls),
(807,0,o),
(890,92,o),
(890,215,cs),
(890,306,o),
(838,370,o),
(735,396,c)
);
},
{
closed = 1;
nodes = (
(578,493,o),
(552,469,o),
(517,469,cs),
(316,469,l),
(316,579,l),
(517,579,ls),
(555,579,o),
(578,557,o),
(578,526,cs)
);
},
{
closed = 1;
nodes = (
(316,301,l),
(555,301,ls),
(603,301,o),
(628,272,o),
(628,236,cs),
(628,196,o),
(601,171,o),
(557,171,cs),
(316,171,l)
);
}
);
width = 917;
},
{
anchors = (
{
name = bottom;
position = "{441, 0}";
},
{
name = top;
position = "{441, 750}";
}
);
layerId = "4A3736D9-1D75-4B42-9353-97DA234A9782";
shapes = (
{
closed = 1;
nodes = (
(732,428,o),
(767,499,o),
(767,568,cs),
(767,681,o),
(690,750,o),
(551,750,cs),
(84,750,l),
(84,-165,l),
(213,-165,l),
(213,0,l),
(569,0,ls),
(731,0,o),
(817,85,o),
(817,205,cs),
(817,296,o),
(764,370,o),
(644,393,c)
);
},
{
closed = 1;
nodes = (
(635,475,o),
(582,434,o),
(512,434,cs),
(213,434,l),
(213,644,l),
(521,644,ls),
(595,644,o),
(635,605,o),
(635,550,cs)
);
},
{
closed = 1;
nodes = (
(213,336,l),
(525,336,ls),
(630,336,o),
(685,291,o),
(685,216,cs),
(685,145,o),
(636,106,o),
(553,106,cs),
(213,106,l)
);
}
);
width = 857;
},
{
anchors = (
{
name = bottom;
position = "{422, 0}";
},
{
name = top;
position = "{422, 750}";
}
);
layerId = "8FDEF4EB-75F1-466F-B872-024C1FB72131";
shapes = (
{
closed = 1;
nodes = (
(682,423,o),
(720,499,o),
(720,569,cs),
(720,681,o),
(646,750,o),
(507,750,cs),
(97,750,l),
(97,-165,l),
(153,-165,l),
(153,0,l),
(523,0,ls),
(682,0,o),
(770,81,o),
(770,199,cs),
(770,290,o),
(717,371,o),
(584,391,c)
);
},
{
closed = 1;
nodes = (
(662,464,o),
(587,410,o),
(487,410,cs),
(153,410,l),
(153,700,l),
(502,700,ls),
(607,700,o),
(662,645,o),
(662,569,cs)
);
},
{
closed = 1;
nodes = (
(153,360,l),
(484,360,ls),
(634,360,o),
(712,303,o),
(712,199,cs),
(712,101,o),
(644,50,o),
(529,50,cs),
(153,50,l)
);
}
);
width = 818;
}
);
unicode = 42932;
},
{
glyphname = Bhook;
layers = (
{
anchors = (
{
name = bottom;
position = "{684, 0}";
},
{
name = top;
position = "{662, 750}";
}
);
guides = (
{
position = "{0, 579}";
}
);
layerId = "97350278-980A-4778-8478-A58DCFDD7560";
shapes = (
{
closed = 1;
nodes = (
(230,750,ls),
(86,750,o),
(15,673,o),
(15,557,cs),
(15,490,o),
(37,437,o),
(58,394,c),
(243,394,l),
(236,418,o),
(228,455,o),
(228,495,cs),
(228,543,o),
(248,564,o),
(289,564,cs),
(362,564,l),
(273,700,l),
(265,0,l),
(854,0,ls),
(1022,0,o),
(1105,92,o),
(1105,215,cs),
(1105,332,o),
(1019,404,o),
(849,410,c),
(829,364,l),
(995,381,o),
(1055,469,o),
(1055,567,cs),
(1055,681,o),
(972,750,o),
(833,750,cs)
);
},
{
closed = 1;
nodes = (
(517,694,l),
(420,579,l),
(732,579,ls),
(770,579,o),
(793,557,o),
(793,526,cs),
(793,493,o),
(767,469,o),
(732,469,cs),
(474,469,l),
(474,301,l),
(770,301,ls),
(818,301,o),
(843,272,o),
(843,236,cs),
(843,196,o),
(816,171,o),
(772,171,cs),
(419,171,l),
(517,56,l)
);
}
);
width = 1132;
},
{
anchors = (
{
name = bottom;
position = "{609, 0}";
},
{
name = top;
position = "{589, 750}";
}
);
layerId = "4A3736D9-1D75-4B42-9353-97DA234A9782";
shapes = (
{
closed = 1;
nodes = (
(194,750,ls),
(86,750,o),
(23,692,o),
(23,590,cs),
(23,536,o),
(42,484,o),
(59,447,c),
(165,447,l),
(150,485,o),
(139,523,o),
(139,566,cs),
(139,626,o),
(171,649,o),
(224,649,cs),
(296,649,l),
(243,711,l),
(237,0,l),
(737,0,ls),
(900,0,o),
(986,85,o),
(986,205,cs),
(986,315,o),
(909,399,o),
(731,401,c),
(718,372,l),
(877,385,o),
(936,478,o),
(936,568,cs),
(936,681,o),
(858,750,o),
(719,750,cs)
);
},
{
closed = 1;
nodes = (
(370,713,l),
(319,644,l),
(690,644,ls),
(763,644,o),
(803,605,o),
(803,550,cs),
(803,477,o),
(751,436,o),
(680,436,cs),
(318,436,l),
(318,334,l),
(693,334,ls),
(798,334,o),
(853,290,o),
(853,216,cs),
(853,145,o),
(804,106,o),
(722,106,cs),
(319,106,l),
(370,37,l)
);
}
);
width = 1026;
},
{
anchors = (
{
name = bottom;
position = "{560, 0}";
},
{
name = top;
position = "{540, 750}";
}
);
layerId = "8FDEF4EB-75F1-466F-B872-024C1FB72131";
shapes = (
{
closed = 1;
nodes = (
(170,750,ls),
(84,750,o),
(26,704,o),
(26,610,cs),
(26,564,o),
(44,513,o),
(60,479,c),
(115,479,l),
(96,526,o),
(83,565,o),
(83,610,cs),
(83,677,o),
(122,700,o),
(183,700,cs),
(240,700,l),
(220,729,l),
(217,0,l),
(663,0,ls),
(822,0,o),
(910,81,o),
(910,199,cs),
(910,304,o),
(839,396,o),
(656,396,c),
(647,377,l),
(802,388,o),
(860,483,o),
(860,569,cs),
(860,681,o),
(786,750,o),
(647,750,cs)
);
},
{
closed = 1;
nodes = (
(276,725,l),
(255,700,l),
(642,700,ls),
(747,700,o),
(802,645,o),
(802,569,cs),
(802,464,o),
(727,410,o),
(627,410,cs),
(250,410,l),
(250,360,l),
(624,360,ls),
(774,360,o),
(852,303,o),
(852,199,cs),
(852,101,o),
(784,50,o),
(669,50,cs),
(255,50,l),
(276,25,l)
);
}
);
width = 958;
}
);
unicode = 385;
},
{
glyphname = Bstroke;
layers = (
{
anchors = (
{
name = bottom;
position = "{497, 0}";
},
{
name = top;
position = "{485, 750}";
}
);
layerId = "46B6653D-66F4-44F1-A5DA-92680F42D66A";
associatedMasterId = "97350278-980A-4778-8478-A58DCFDD7560";
name = "Black [710]";
shapes = (
{
closed = 1;
nodes = (
(18,184,l),
(514,184,l),
(514,288,l),
(18,288,l)
);
},
{
closed = 1;
nodes = (
(642,364,l),
(808,381,o),
(868,469,o),
(868,567,cs),
(868,681,o),
(785,750,o),
(646,750,cs),
(78,750,l),
(78,0,l),
(667,0,ls),
(835,0,o),
(918,92,o),
(918,215,cs),
(918,332,o),
(832,404,o),
(662,410,c)
);
},
{
closed = 1;
nodes = (
(330,694,l),
(233,585,l),
(542,585,ls),
(582,585,o),
(606,561,o),
(606,526,cs),
(606,490,o),
(579,463,o),
(542,463,cs),
(287,463,l),
(287,311,l),
(578,311,ls),
(629,311,o),
(656,278,o),
(656,236,cs),
(656,190,o),
(627,161,o),
(580,161,cs),
(232,161,l),
(330,56,l)
);
}
);
width = 945;
},
{
anchors = (
{
name = bottom;
position = "{497, 0}";
},
{
name = top;
position = "{485, 750}";
}
);
layerId = "97350278-980A-4778-8478-A58DCFDD7560";
shapes = (
{
closed = 1;
nodes = (
(18,173,l),
(514,173,l),
(514,299,l),
(18,299,l)
);
},
{
closed = 1;
nodes = (
(642,364,l),
(808,381,o),
(868,469,o),
(868,567,cs),
(868,681,o),
(785,750,o),
(646,750,cs),
(78,750,l),
(78,0,l),
(667,0,ls),
(835,0,o),
(918,92,o),
(918,215,cs),
(918,332,o),
(832,404,o),
(662,410,c)
);
},
{
closed = 1;
nodes = (
(330,694,l),
(233,579,l),
(545,579,ls),
(583,579,o),
(606,557,o),
(606,526,cs),
(606,493,o),
(580,469,o),
(545,469,cs),
(287,469,l),
(287,301,l),
(583,301,ls),
(631,301,o),
(656,272,o),
(656,236,cs),
(656,196,o),
(629,171,o),
(585,171,cs),
(232,171,l),
(330,56,l)
);
}
);
width = 945;
},
{
anchors = (
{
name = bottom;
position = "{490, 0}";
},
{
name = top;
position = "{480, 750}";
}
);
layerId = "4A3736D9-1D75-4B42-9353-97DA234A9782";
shapes = (
{
closed = 1;
nodes = (
(25,168,l),
(528,168,l),
(528,266,l),
(25,266,l)
);
},
{
closed = 1;
nodes = (
(599,372,l),
(758,385,o),
(817,478,o),
(817,568,cs),
(817,681,o),
(739,750,o),
(600,750,cs),
(118,750,l),
(118,0,l),
(618,0,ls),
(781,0,o),
(867,85,o),
(867,205,cs),
(867,315,o),
(790,399,o),
(612,401,c)
);
},
{
closed = 1;
nodes = (
(251,713,l),
(200,648,l),
(569,648,ls),
(643,648,o),
(683,607,o),
(683,550,cs),
(683,474,o),
(630,432,o),
(559,432,cs),
(199,432,l),
(199,338,l),
(572,338,ls),
(678,338,o),
(733,292,o),
(733,216,cs),
(733,142,o),
(684,102,o),
(601,102,cs),
(200,102,l),
(251,37,l)
);
}
);
width = 907;
},
{
anchors = (
{
name = bottom;
position = "{438, 0}";
},
{
name = top;
position = "{428, 750}";
}
);
layerId = "8FDEF4EB-75F1-466F-B872-024C1FB72131";
shapes = (
{
closed = 1;
nodes = (
(9,180,l),
(435,180,l),
(435,230,l),
(9,230,l)
);
},
{
closed = 1;
nodes = (
(525,377,l),
(680,388,o),
(738,483,o),
(738,569,cs),
(738,681,o),
(664,750,o),
(525,750,cs),
(95,750,l),
(95,0,l),
(541,0,ls),
(700,0,o),
(788,81,o),
(788,199,cs),
(788,304,o),
(717,396,o),
(534,396,c)
);
},
{
closed = 1;
nodes = (
(154,725,l),
(133,700,l),
(520,700,ls),
(625,700,o),
(680,645,o),
(680,569,cs),
(680,464,o),
(605,410,o),
(505,410,cs),
(128,410,l),
(128,360,l),
(502,360,ls),
(652,360,o),
(730,303,o),
(730,199,cs),
(730,101,o),
(662,50,o),
(547,50,cs),
(133,50,l),
(154,25,l)
);
}
);
width = 836;
}
);
unicode = 579;
},
{
glyphname = C;
layers = (
{
anchors = (
{
name = bottom;
position = "{476, 0}";
},
{
name = top;
position = "{477, 750}";
}
);
layerId = "97350278-980A-4778-8478-A58DCFDD7560";
shapes = (
{
closed = 1;
nodes = (
(663,325,l),
(645,242,o),
(581,202,o),
(477,202,cs),
(361,202,o),
(292,267,o),
(292,375,cs),
(292,483,o),
(361,548,o),
(477,548,cs),
(581,548,o),
(645,502,o),
(663,425,c),
(922,425,l),
(898,631,o),
(725,768,o),
(477,768,cs),
(209,768,o),
(32,611,o),
(32,375,cs),
(32,139,o),
(209,-18,o),
(477,-18,cs),
(725,-18,o),
(898,119,o),
(922,325,c)
);
}
);
width = 949;
},
{
anchors = (
{
name = bottom;
position = "{465, 0}";
},
{
name = top;
position = "{460, 750}";
}
);
layerId = "4A3736D9-1D75-4B42-9353-97DA234A9782";
shapes = (
{
closed = 1;
nodes = (
(742,297,l),
(720,176,o),
(618,104,o),
(466,104,cs),
(290,104,o),
(179,209,o),
(179,375,cs),
(179,541,o),
(290,646,o),
(466,646,cs),
(618,646,o),
(720,572,o),
(742,453,c),
(875,453,l),
(854,638,o),
(693,764,o),
(467,764,cs),
(214,764,o),
(45,607,o),
(45,375,cs),
(45,143,o),
(214,-14,o),
(467,-14,cs),
(693,-14,o),
(854,112,o),
(875,297,c)
);
}
);
width = 912;
},
{
anchors = (
{
name = bottom;
position = "{458, 0}";
},
{
name = top;
position = "{450, 750}";
}
);
layerId = "8FDEF4EB-75F1-466F-B872-024C1FB72131";
shapes = (
{
closed = 1;
nodes = (
(789,280,l),
(765,134,o),
(639,40,o),
(459,40,cs),
(248,40,o),
(111,172,o),
(111,375,cs),
(111,578,o),
(248,710,o),
(459,710,cs),
(639,710,o),
(765,616,o),
(789,470,c),
(847,470,l),
(827,643,o),
(673,762,o),
(461,762,cs),
(217,762,o),
(53,604,o),
(53,375,cs),
(53,146,o),
(217,-12,o),
(461,-12,cs),
(673,-12,o),
(827,107,o),
(847,280,c)
);
}
);
width = 892;
}
);
leftKerningGroup = C2;
rightKerningGroup = C;
unicode = 67;
},
{
glyphname = "Chi-latin";
layers = (
{
anchors = (
{
name = bottom;
position = "{431, -165}";
},
{
name = top;
position = "{444, 750}";
}
);
layerId = "97350278-980A-4778-8478-A58DCFDD7560";
shapes = (
{
closed = 1;
nodes = (
(856,750,l),
(582,750,l),
(379,412,l),
(489,412,l),
(282,750,l),
(5,750,l),
(351,226,l),
(351,395,l),
(-14,-165,l),
(255,-165,l),
(485,210,l),
(374,210,l),
(602,-165,l),
(875,-165,l),
(513,395,l),
(513,225,l)
);
}
);
width = 862;
},
{
anchors = (
{
name = bottom;
position = "{375, -165}";
},
{
name = top;
position = "{388, 750}";
}
);
layerId = "4A3736D9-1D75-4B42-9353-97DA234A9782";
shapes = (
{
closed = 1;
nodes = (
(732,750,l),
(590,750,l),
(348,369,l),
(404,369,l),
(161,750,l),
(17,750,l),
(328,274,l),
(328,351,l),
(-7,-165,l),
(135,-165,l),
(402,257,l),
(347,257,l),
(613,-165,l),
(756,-165,l),
(420,353,l),
(420,271,l)
);
}
);
width = 750;
},
{
anchors = (
{
name = bottom;
position = "{342, -165}";
},
{
name = top;
position = "{355, 750}";
}
);
layerId = "8FDEF4EB-75F1-466F-B872-024C1FB72131";
shapes = (
{
closed = 1;
nodes = (
(658,750,l),
(596,750,l),
(331,342,l),
(354,342,l),
(88,750,l),
(26,750,l),
(316,303,l),
(316,324,l),
(-2,-165,l),
(63,-165,l),
(353,285,l),
(332,285,l),
(621,-165,l),
(685,-165,l),
(365,328,l),
(365,299,l)
);
}
);
width = 684;
}
);
unicode = 42931;
},
{
glyphname = Chook;
layers = (
{
anchors = (
{
name = bottom;
position = "{472, 0}";
},
{
name = top;
position = "{451, 750}";
}
);
layerId = "97350278-980A-4778-8478-A58DCFDD7560";
shapes = (
{
closed = 1;
nodes = (
(213,768,o),
(33,612,o),
(33,375,cs),
(33,139,o),
(210,-18,o),
(478,-18,cs),
(726,-18,o),
(899,119,o),
(923,325,c),
(664,325,l),
(646,242,o),
(582,202,o),
(478,202,cs),
(362,202,o),
(293,267,o),
(293,375,cs),
(293,483,o),
(362,548,o),
(478,548,cs),
(582,548,o),
(646,502,o),
(664,425,c),
(923,425,l),
(914,483,o),
(895,534,o),
(887,568,cs),
(881,593,o),
(876,617,o),
(876,640,cs),
(876,688,o),
(903,713,o),
(963,713,cs),
(991,713,o),
(1015,707,o),
(1038,700,c),
(1038,887,l),
(995,900,o),
(946,906,o),
(898,906,cs),
(752,906,o),
(692,824,o),
(692,730,cs),
(692,670,o),
(727,605,o),
(757,555,c),
(834,525,l),
(778,676,o),
(660,768,o),
(470,768,cs)
);
}
);
width = 1033;
},
{
anchors = (
{
name = bottom;
position = "{458, 0}";
},
{
name = top;
position = "{458, 750}";
}
);
layerId = "4A3736D9-1D75-4B42-9353-97DA234A9782";
shapes = (
{
closed = 1;
nodes = (
(216,764,o),
(45,607,o),
(45,375,cs),
(45,143,o),
(214,-14,o),
(467,-14,cs),
(693,-14,o),
(854,112,o),
(875,297,c),
(743,297,l),
(721,176,o),
(618,104,o),
(466,104,cs),
(290,104,o),
(179,210,o),
(179,376,cs),
(179,541,o),
(290,646,o),
(466,646,cs),
(618,646,o),
(721,572,o),
(743,453,c),
(875,453,l),
(871,495,o),
(853,545,o),
(841,575,cs),
(817,634,o),
(801,678,o),
(801,711,cs),
(801,758,o),
(830,792,o),
(898,792,cs),
(931,792,o),
(959,785,o),
(990,774,c),
(990,878,l),
(957,891,o),
(918,900,o),
(870,900,cs),
(746,900,o),
(684,839,o),
(684,757,cs),
(684,699,o),
(714,649,o),
(746,603,c),
(780,605,l),
(721,704,o),
(623,764,o),
(462,764,cs)
);
}
);
width = 915;
},
{
anchors = (
{
name = bottom;
position = "{448, 0}";
},
{
name = top;
position = "{448, 750}";
}
);
layerId = "8FDEF4EB-75F1-466F-B872-024C1FB72131";
shapes = (
{
closed = 1;
nodes = (
(217,762,o),
(53,604,o),
(53,375,cs),
(53,146,o),
(217,-12,o),
(461,-12,cs),
(673,-12,o),
(827,107,o),
(847,280,c),
(789,280,l),
(765,134,o),
(639,40,o),
(459,40,cs),
(248,40,o),
(111,172,o),
(111,375,cs),
(111,578,o),
(248,710,o),
(459,710,cs),
(639,710,o),
(765,616,o),
(789,470,c),
(847,470,l),
(843,510,o),
(829,550,o),
(815,579,cs),
(777,656,o),
(755,701,o),
(755,750,cs),
(755,804,o),
(790,845,o),
(859,845,cs),
(900,845,o),
(934,829,o),
(961,812,c),
(961,867,l),
(935,883,o),
(902,897,o),
(854,897,cs),
(764,897,o),
(699,843,o),
(699,762,cs),
(699,705,o),
(726,664,o),
(758,620,c),
(774,623,l),
(720,706,o),
(605,762,o),
(461,762,cs)
);
}
);
width = 896;
}
);
unicode = 391;
},
{
color = 2;
glyphname = Cstroke;
layers = (
{
layerId = "97350278-980A-4778-8478-A58DCFDD7560";
shapes = (
{
closed = 1;
nodes = (
(173,-122,l),
(375,-122,l),
(760,872,l),
(558,872,l)
);
},
{
closed = 1;
nodes = (
(664,325,l),
(646,242,o),
(582,202,o),
(478,202,cs),
(362,202,o),
(293,267,o),
(293,375,cs),
(293,483,o),
(362,548,o),
(478,548,cs),
(582,548,o),
(646,502,o),
(664,425,c),
(923,425,l),
(899,631,o),
(726,768,o),
(478,768,cs),
(210,768,o),
(33,611,o),
(33,375,cs),
(33,139,o),
(210,-18,o),
(478,-18,cs),
(726,-18,o),
(899,119,o),
(923,325,c)
);
}
);
width = 950;
},
{
layerId = "4A3736D9-1D75-4B42-9353-97DA234A9782";
shapes = (
{
closed = 1;
nodes = (
(208,-122,l),
(316,-122,l),
(721,872,l),
(613,872,l)
);
},
{
closed = 1;
nodes = (
(742,297,l),
(720,176,o),
(618,104,o),
(466,104,cs),
(290,104,o),
(179,209,o),
(179,375,cs),
(179,541,o),
(290,646,o),
(466,646,cs),
(618,646,o),
(720,572,o),
(742,453,c),
(875,453,l),
(854,638,o),
(693,764,o),
(467,764,cs),
(214,764,o),
(45,607,o),
(45,375,cs),
(45,143,o),
(214,-14,o),
(467,-14,cs),
(693,-14,o),
(854,112,o),
(875,297,c)
);
}
);
width = 912;
},
{
layerId = "8FDEF4EB-75F1-466F-B872-024C1FB72131";
shapes = (
{
closed = 1;
nodes = (
(217,-122,l),
(269,-122,l),
(704,872,l),
(652,872,l)
);
},
{
closed = 1;
nodes = (
(788,280,l),
(764,134,o),
(638,40,o),
(458,40,cs),
(247,40,o),
(110,172,o),
(110,375,cs),
(110,578,o),
(247,710,o),
(458,710,cs),
(638,710,o),
(764,616,o),
(788,470,c),
(846,470,l),
(826,643,o),
(672,762,o),
(460,762,cs),
(216,762,o),
(52,604,o),
(52,375,cs),
(52,146,o),
(216,-12,o),
(460,-12,cs),
(672,-12,o),
(826,107,o),
(846,280,c)
);
}
);
width = 891;
}
);
unicode = 571;
},
{
glyphname = D;
layers = (
{
anchors = (
{
name = bottom;
position = "{453, 0}";
},
{
name = center;
position = "{468, 375}";
},
{
name = top;
position = "{448, 750}";
}
);
layerId = "97350278-980A-4778-8478-A58DCFDD7560";
shapes = (
{
closed = 1;
nodes = (
(60,750,l),
(60,0,l),
(458,0,ls),
(732,0,o),
(914,148,o),
(914,375,cs),
(914,602,o),
(732,750,o),
(458,750,cs)
);
},
{
closed = 1;
nodes = (
(316,635,l),
(200,520,l),
(478,520,ls),
(588,520,o),
(654,466,o),
(654,375,cs),
(654,284,o),
(588,230,o),
(478,230,cs),
(200,230,l),
(316,115,l)
);
}
);
width = 946;
},
{
anchors = (
{
name = bottom;
position = "{430, 0}";
},
{
name = center;
position = "{435, 375}";
},
{
name = top;
position = "{419, 750}";
}
);
layerId = "4A3736D9-1D75-4B42-9353-97DA234A9782";
shapes = (
{
closed = 1;
nodes = (
(84,750,l),
(84,0,l),
(423,0,ls),
(679,0,o),
(852,151,o),
(852,375,cs),
(852,599,o),
(679,750,o),
(423,750,cs)
);
},
{
closed = 1;
nodes = (
(216,704,l),
(143,634,l),
(432,634,ls),
(604,634,o),
(718,530,o),
(718,375,cs),
(718,220,o),
(604,116,o),
(432,116,cs),
(143,116,l),
(216,46,l)
);
}
);
width = 896;
},
{
anchors = (
{
name = bottom;
position = "{414, 0}";
},
{
name = center;
position = "{414, 375}";
},
{
name = top;
position = "{405, 750}";
}
);
layerId = "8FDEF4EB-75F1-466F-B872-024C1FB72131";
shapes = (
{
closed = 1;
nodes = (
(97,750,l),
(97,0,l),
(400,0,ls),
(645,0,o),
(813,153,o),
(813,375,cs),
(813,597,o),
(645,750,o),
(400,750,cs)
);
},
{
closed = 1;
nodes = (
(153,746,l),
(107,701,l),
(400,701,ls),
(610,701,o),
(755,568,o),
(755,375,cs),
(755,182,o),
(610,49,o),
(400,49,cs),
(107,49,l),
(153,4,l)
);
}
);
width = 865;
}
);
leftKerningGroup = D2;
rightKerningGroup = D;
unicode = 68;
},
{
color = 2;
glyphname = Eth;
layers = (
{
layerId = "97350278-980A-4778-8478-A58DCFDD7560";
shapes = (
{
closed = 1;
nodes = (
(28,295,l),
(481,295,l),
(481,457,l),
(28,457,l)
);
},
{
closed = 1;
nodes = (
(80,750,l),
(80,0,l),
(478,0,ls),
(752,0,o),
(934,148,o),
(934,375,cs),
(934,602,o),
(752,750,o),
(478,750,cs)
);
},
{
closed = 1;
nodes = (
(336,635,l),
(220,520,l),
(498,520,ls),
(608,520,o),
(674,466,o),
(674,375,cs),
(674,284,o),
(608,230,o),
(498,230,cs),
(220,230,l),
(336,115,l)
);
}
);
width = 966;
},
{
layerId = "4A3736D9-1D75-4B42-9353-97DA234A9782";
shapes = (
{
closed = 1;
nodes = (
(26,326,l),
(456,326,l),
(456,426,l),
(26,426,l)
);
},
{
closed = 1;
nodes = (
(117,750,l),
(117,0,l),
(456,0,ls),
(712,0,o),
(885,151,o),
(885,375,cs),
(885,599,o),
(712,750,o),
(456,750,cs)
);
},
{
closed = 1;
nodes = (
(249,704,l),
(176,634,l),
(465,634,ls),
(637,634,o),
(751,530,o),
(751,375,cs),
(751,220,o),
(637,116,o),
(465,116,cs),
(176,116,l),
(249,46,l)
);
}
);
width = 929;
},
{
layerId = "8FDEF4EB-75F1-466F-B872-024C1FB72131";
shapes = (
{
closed = 1;
nodes = (
(20,351,l),
(435,351,l),
(435,401,l),
(20,401,l)
);
},
{
closed = 1;
nodes = (
(134,750,l),
(134,0,l),
(437,0,ls),
(682,0,o),
(850,153,o),
(850,375,cs),
(850,597,o),
(682,750,o),
(437,750,cs)
);
},
{
closed = 1;
nodes = (
(190,746,l),
(144,701,l),
(437,701,ls),
(647,701,o),
(792,568,o),
(792,375,cs),
(792,182,o),
(647,49,o),
(437,49,cs),
(144,49,l),
(190,4,l)
);
}
);
width = 902;
}
);
leftKerningGroup = D2;
rightKerningGroup = D;
unicode = 208;
},
{
glyphname = Dhook;
layers = (
{
anchors = (
{
name = bottom;
position = "{713, 0}";
},
{
name = center;
position = "{728, 375}";
},
{
name = top;
position = "{708, 750}";
}
);
layerId = "97350278-980A-4778-8478-A58DCFDD7560";
shapes = (
{
closed = 1;
nodes = (
(248,750,ls),
(83,750,o),
(15,673,o),
(15,555,cs),
(15,487,o),
(37,437,o),
(58,394,c),
(243,394,l),
(238,410,o),
(231,442,o),
(231,472,cs),
(231,519,o),
(252,535,o),
(295,535,cs),
(391,535,l),
(320,636,l),
(320,0,l),
(718,0,ls),
(992,0,o),
(1174,148,o),
(1174,375,cs),
(1174,602,o),
(992,750,o),
(718,750,cs)
);
},
{
closed = 1;
nodes = (
(576,635,l),
(460,520,l),
(738,520,ls),
(848,520,o),
(914,466,o),
(914,375,cs),
(914,284,o),
(848,230,o),
(738,230,cs),
(460,230,l),
(576,115,l)
);
}
);
width = 1206;
},
{
anchors = (
{
name = bottom;
position = "{628, 0}";
},
{
name = center;
position = "{633, 375}";
},
{
name = top;
position = "{617, 750}";
}
);
guides = (
{
position = "{0, 632}";
}
);
layerId = "4A3736D9-1D75-4B42-9353-97DA234A9782";
shapes = (
{
closed = 1;
nodes = (
(201,750,ls),
(85,750,o),
(23,692,o),
(23,589,cs),
(23,535,o),
(42,484,o),
(59,447,c),
(165,447,l),
(151,482,o),
(140,518,o),
(140,558,cs),
(140,617,o),
(173,638,o),
(227,638,cs),
(322,638,l),
(282,685,l),
(282,0,l),
(621,0,ls),
(877,0,o),
(1050,151,o),
(1050,375,cs),
(1050,599,o),
(877,750,o),
(621,750,cs)
);
},
{
closed = 1;
nodes = (
(414,685,l),
(369,634,l),
(630,634,ls),
(802,634,o),
(916,530,o),
(916,375,cs),
(916,220,o),
(802,116,o),
(630,116,cs),
(341,116,l),
(414,46,l)
);
}
);
width = 1094;
},
{
anchors = (
{
name = bottom;
position = "{572, 0}";
},
{
name = center;
position = "{572, 375}";
},
{
name = top;
position = "{563, 750}";
}
);
layerId = "8FDEF4EB-75F1-466F-B872-024C1FB72131";
shapes = (
{
closed = 1;
nodes = (
(169,750,ls),
(83,750,o),
(25,704,o),
(25,610,cs),
(25,564,o),
(43,513,o),
(59,479,c),
(114,479,l),
(95,526,o),
(82,565,o),
(82,610,cs),
(82,677,o),
(121,701,o),
(182,701,cs),
(272,701,l),
(255,730,l),
(255,0,l),
(558,0,ls),
(803,0,o),
(971,153,o),
(971,375,cs),
(971,597,o),
(803,750,o),
(558,750,cs)
);
},
{
closed = 1;
nodes = (
(311,730,l),
(291,701,l),
(558,701,ls),
(768,701,o),
(913,568,o),
(913,375,cs),
(913,182,o),
(768,49,o),
(558,49,cs),
(265,49,l),
(311,4,l)
);
}
);
width = 1023;
}
);
unicode = 394;
},
{
glyphname = E;
layers = (
{
anchors = (
{
name = bottom;
position = "{420, 0}";
},
{
name = ogonek;
position = "{766, 0}";
},
{
name = top;
position = "{409, 750}";
},
{
name = topleft;
position = "{7, 750}";
}
);
guides = (
{
angle = 14.036;
position = "{255, 962}";
}
);
layerId = "97350278-980A-4778-8478-A58DCFDD7560";
shapes = (
{
closed = 1;
nodes = (
(164,464,l),
(164,286,l),
(729,286,l),
(729,464,l)
);
},
{
closed = 1;
nodes = (
(295,654,l),
(197,546,l),
(761,546,l),
(761,750,l),
(40,750,l),
(40,0,l),
(766,0,l),
(766,204,l),
(197,204,l),
(295,96,l)
);
}
);
width = 812;
},
{
anchors = (
{
name = bottom;
position = "{408, 0}";
},
{
name = ogonek;
position = "{712, 0}";
},
{
name = top;
position = "{387, 750}";
},
{
name = topleft;
position = "{19, 750}";
}
);
background = {
shapes = (
{
closed = 1;
nodes = (
(153,424,l),
(153,326,l),
(677,326,l),
(677,424,l)
);
},
{
closed = 1;
nodes = (
(184,710,l),
(124,641,l),
(701,641,l),
(701,750,l),
(52,750,l),
(52,0,l),
(706,0,l),
(706,108,l),
(124,108,l),
(184,40,l)
);
}
);
};
layerId = "4A3736D9-1D75-4B42-9353-97DA234A9782";
shapes = (
{
closed = 1;
nodes = (
(159,430,l),
(159,320,l),
(683,320,l),
(683,430,l)
);
},
{
closed = 1;
nodes = (
(193,710,l),
(130,636,l),
(707,636,l),
(707,750,l),
(58,750,l),
(58,0,l),
(712,0,l),
(712,114,l),
(130,114,l),
(193,40,l)
);
}
);
width = 766;
},
{
anchors = (
{
name = bottom;
position = "{391, 0}";
},
{
name = ogonek;
position = "{680, 0}";
},
{
name = top;
position = "{374, 750}";
},
{
name = topleft;
position = "{27, 750}";
}
);
layerId = "8FDEF4EB-75F1-466F-B872-024C1FB72131";
shapes = (
{
closed = 1;
nodes = (
(106,400,l),
(106,350,l),
(655,350,l),
(655,400,l)
);
},
{
closed = 1;
nodes = (
(126,744,l),
(90,700,l),
(675,700,l),
(675,750,l),
(70,750,l),
(70,0,l),
(680,0,l),
(680,50,l),
(90,50,l),
(126,5,l)
);
}
);
width = 736;
}
);
leftKerningGroup = B2;
rightKerningGroup = E;
unicode = 69;
},
{
glyphname = Esh;
layers = (
{
anchors = (
{
name = bottom;
position = "{417, 0}";
},
{
name = ogonek;
position = "{791, 0}";
},
{
name = top;
position = "{417, 750}";
},
{
name = topleft;
position = "{6, 750}";
}
);
layerId = "97350278-980A-4778-8478-A58DCFDD7560";
shapes = (
{
closed = 1;
nodes = (
(791,0,l),
(791,198,l),
(171,198,l),
(288,115,l),
(553,297,l),
(553,455,l),
(239,679,l),
(152,552,l),
(775,552,l),
(775,750,l),
(54,750,l),
(54,567,l),
(381,335,l),
(381,416,l),
(44,183,l),
(44,0,l)
);
}
);
width = 826;
},
{
anchors = (
{
name = bottom;
position = "{380, 0}";
},
{
name = ogonek;
position = "{706, 0}";
},
{
name = top;
position = "{359, 750}";
},
{
name = topleft;
position = "{-9, 750}";
}
);
layerId = "4A3736D9-1D75-4B42-9353-97DA234A9782";
shapes = (
{
closed = 1;
nodes = (
(706,0,l),
(706,112,l),
(99,112,l),
(154,52,l),
(471,326,l),
(471,424,l),
(146,714,l),
(97,638,l),
(694,638,l),
(694,750,l),
(45,750,l),
(45,650,l),
(371,357,l),
(371,394,l),
(36,101,l),
(36,0,l)
);
}
);
width = 742;
},
{
anchors = (
{
name = bottom;
position = "{364, 0}";
},
{
name = ogonek;
position = "{648, 0}";
},
{
name = top;
position = "{342, 750}";
},
{
name = topleft;
position = "{-5, 750}";
}
);
layerId = "8FDEF4EB-75F1-466F-B872-024C1FB72131";
shapes = (
{
closed = 1;
nodes = (
(653,0,l),
(653,50,l),
(54,50,l),
(67,14,l),
(420,350,l),
(420,399,l),
(75,736,l),
(62,700,l),
(643,700,l),
(643,750,l),
(38,750,l),
(38,700,l),
(377,370,l),
(377,380,l),
(30,50,l),
(30,0,l)
);
}
);
width = 683;
}
);
unicode = 425;
},
{
color = 2;
glyphname = Estroke;
layers = (
{
layerId = "97350278-980A-4778-8478-A58DCFDD7560";
shapes = (
{
closed = 1;
nodes = (
(271,-122,l),
(471,-122,l),
(734,872,l),
(534,872,l)
);
},
{
closed = 1;
nodes = (
(164,464,l),
(164,286,l),
(729,286,l),
(729,464,l)
);
},
{
closed = 1;
nodes = (
(295,654,l),
(197,546,l),
(761,546,l),
(761,750,l),
(40,750,l),
(40,0,l),
(766,0,l),
(766,204,l),
(197,204,l),
(295,96,l)
);
}
);
width = 812;
},
{
layerId = "4A3736D9-1D75-4B42-9353-97DA234A9782";
shapes = (
{
closed = 1;
nodes = (
(196,-122,l),
(304,-122,l),
(662,872,l),
(553,872,l)
);
},
{
closed = 1;
nodes = (
(159,430,l),
(159,320,l),
(683,320,l),
(683,430,l)
);
},
{
closed = 1;
nodes = (
(193,710,l),
(130,636,l),
(707,636,l),
(707,750,l),
(58,750,l),
(58,0,l),
(712,0,l),
(712,114,l),
(130,114,l),
(193,40,l)
);
}
);
width = 766;
},
{
layerId = "8FDEF4EB-75F1-466F-B872-024C1FB72131";
shapes = (
{
closed = 1;
nodes = (
(151,-122,l),
(203,-122,l),
(618,872,l),
(566,872,l)
);
},
{
closed = 1;
nodes = (
(106,400,l),
(106,350,l),
(655,350,l),
(655,400,l)
);
},
{
closed = 1;
nodes = (
(126,744,l),
(90,700,l),
(675,700,l),
(675,750,l),
(70,750,l),
(70,0,l),
(680,0,l),
(680,50,l),
(90,50,l),
(126,5,l)
);
}
);
width = 736;
}
);
unicode = 582;
},
{
glyphname = Schwa;
layers = (
{
anchors = (
{
name = bottom;
position = "{475, 0}";
},
{
name = top;
position = "{475, 750}";
}
);
layerId = "46B6653D-66F4-44F1-A5DA-92680F42D66A";
associatedMasterId = "97350278-980A-4778-8478-A58DCFDD7560";
name = "Black [710]";
shapes = (
{
closed = 1;
nodes = (
(236,769,o),
(79,656,o),
(39,477,c),
(298,477,l),
(322,522,o),
(376,566,o),
(472,566,cs),
(582,566,o),
(656,500,o),
(656,371,cs),
(656,239,o),
(582,178,o),
(472,178,cs),
(379,178,o),
(311,225,o),
(301,322,c),
(201,283,l),
(676,283,l),
(676,423,l),
(29,423,l),
(29,179,o),
(177,-17,o),
(474,-17,cs),
(734,-17,o),
(916,137,o),
(916,375,cs),
(916,614,o),
(734,769,o),
(474,769,cs)
);
}
);
width = 949;
},
{
anchors = (
{
name = bottom;
position = "{475, 0}";
},
{
name = top;
position = "{475, 750}";
}
);
layerId = "97350278-980A-4778-8478-A58DCFDD7560";
shapes = (
{
closed = 1;
nodes = (
(236,769,o),
(79,656,o),
(39,477,c),
(298,477,l),
(322,522,o),
(376,566,o),
(472,566,cs),
(582,566,o),
(656,500,o),
(656,371,cs),
(656,239,o),
(582,178,o),
(472,178,cs),
(379,178,o),
(311,225,o),
(301,322,c),
(201,269,l),
(676,269,l),
(676,427,l),
(29,427,l),
(29,177,o),
(177,-17,o),
(474,-17,cs),
(734,-17,o),
(916,137,o),
(916,375,cs),
(916,614,o),
(734,769,o),
(474,769,cs)
);
}
);
width = 949;
},
{
anchors = (
{
name = bottom;
position = "{456, 0}";
},
{
name = top;
position = "{456, 750}";
}
);
layerId = "4A3736D9-1D75-4B42-9353-97DA234A9782";
shapes = (
{
closed = 1;
nodes = (
(232,764,o),
(79,642,o),
(50,474,c),
(183,474,l),
(211,576,o),
(300,646,o),
(451,646,cs),
(625,646,o),
(732,541,o),
(732,372,cs),
(732,206,o),
(623,104,o),
(452,104,cs),
(284,104,o),
(187,208,o),
(177,348,c),
(129,310,l),
(755,310,l),
(755,413,l),
(43,413,l),
(43,165,o),
(194,-14,o),
(452,-14,cs),
(699,-14,o),
(866,143,o),
(866,373,cs),
(866,584,o),
(726,764,o),
(450,764,cs)
);
}
);
width = 911;
},
{
anchors = (
{
name = bottom;
position = "{445, 0}";
},
{
name = top;
position = "{445, 750}";
}
);
layerId = "8FDEF4EB-75F1-466F-B872-024C1FB72131";
shapes = (
{
closed = 1;
nodes = (
(230,762,o),
(79,638,o),
(57,472,c),
(115,472,l),
(135,611,o),
(253,710,o),
(438,710,cs),
(644,710,o),
(778,578,o),
(778,373,cs),
(778,171,o),
(645,40,o),
(439,40,cs),
(242,40,o),
(116,174,o),
(109,364,c),
(85,325,l),
(802,325,l),
(802,375,l),
(51,375,l),
(51,152,o),
(208,-12,o),
(439,-12,cs),
(673,-12,o),
(836,144,o),
(836,372,cs),
(836,603,o),
(673,762,o),
(436,762,cs)
);
}
);
width = 889;
}
);
unicode = 399;
},
{
glyphname = Ezh;
layers = (
{
anchors = (
{
name = bottom;
position = "{413, 0}";
},
{
name = top;
position = "{416, 750}";
}
);
guides = (
{
position = "{0, 750}";
}
);
layerId = "97350278-980A-4778-8478-A58DCFDD7560";
shapes = (
{
closed = 1;
nodes = (
(64,558,l),
(670,558,l),
(651,676,l),
(295,472,l),
(295,314,l),
(430,314,ls),
(521,314,o),
(550,289,o),
(550,247,cs),
(550,204,o),
(510,176,o),
(418,176,cs),
(318,176,o),
(274,204,o),
(266,253,c),
(10,253,l),
(15,87,o),
(173,-18,o),
(418,-18,cs),
(682,-18,o),
(812,89,o),
(812,233,cs),
(812,354,o),
(728,436,o),
(484,436,cs),
(408,436,l),
(431,370,l),
(768,567,l),
(768,750,l),
(64,750,l)
);
}
);
width = 843;
},
{
anchors = (
{
name = bottom;
position = "{383, 0}";
},
{
name = top;
position = "{370, 750}";
}
);
layerId = "4A3736D9-1D75-4B42-9353-97DA234A9782";
shapes = (
{
closed = 1;
nodes = (
(63,640,l),
(653,640,l),
(623,711,l),
(291,455,l),
(291,357,l),
(394,357,ls),
(549,357,o),
(604,309,o),
(604,233,cs),
(604,142,o),
(527,94,o),
(390,94,cs),
(246,94,o),
(168,145,o),
(155,239,c),
(22,239,l),
(32,86,o),
(171,-14,o),
(390,-14,cs),
(613,-14,o),
(738,86,o),
(738,227,cs),
(738,363,o),
(634,445,o),
(433,445,cs),
(361,445,l),
(381,400,l),
(705,650,l),
(705,750,l),
(63,750,l)
);
}
);
width = 783;
},
{
anchors = (
{
name = bottom;
position = "{364, 0}";
},
{
name = top;
position = "{364, 750}";
}
);
layerId = "8FDEF4EB-75F1-466F-B872-024C1FB72131";
shapes = (
{
closed = 1;
nodes = (
(61,700,l),
(642,700,l),
(634,736,l),
(288,444,l),
(288,395,l),
(372,395,ls),
(568,395,o),
(635,326,o),
(635,225,cs),
(635,104,o),
(537,38,o),
(372,38,cs),
(202,38,o),
(100,109,o),
(85,231,c),
(29,231,l),
(41,85,o),
(169,-12,o),
(372,-12,cs),
(570,-12,o),
(693,84,o),
(693,224,cs),
(693,348,o),
(603,439,o),
(391,439,cs),
(331,439,l),
(331,419,l),
(666,700,l),
(666,750,l),
(61,750,l)
);
}
);
width = 739;
}
);
unicode = 439;
},
{
glyphname = F;
layers = (
{
anchors = (
{
name = bottom;
position = "{187, 0}";
},
{
name = top;
position = "{394, 750}";
}
);
guides = (
{
angle = 18.435;
position = "{278, 962}";
}
);
layerId = "97350278-980A-4778-8478-A58DCFDD7560";
shapes = (
{
closed = 1;
nodes = (
(186,242,l),
(734,242,l),
(734,457,l),
(186,457,l)
);
},
{
closed = 1;
nodes = (
(60,750,l),
(60,0,l),
(318,0,l),
(318,650,l),
(200,535,l),
(754,535,l),
(754,750,l)
);
}
);
width = 791;
},
{
anchors = (
{
name = bottom;
position = "{150, 0}";
},
{
name = top;
position = "{387, 750}";
}
);
layerId = "4A3736D9-1D75-4B42-9353-97DA234A9782";
shapes = (
{
closed = 1;
nodes = (
(148,306,l),
(687,306,l),
(687,422,l),
(148,422,l)
);
},
{
closed = 1;
nodes = (
(84,750,l),
(84,0,l),
(216,0,l),
(216,709,l),
(144,634,l),
(703,634,l),
(703,750,l)
);
}
);
width = 740;
},
{
anchors = (
{
name = bottom;
position = "{125, 0}";
},
{
name = top;
position = "{381, 750}";
}
);
guides = (
{
angle = 7.125;
position = "{231, 641}";
}
);
layerId = "8FDEF4EB-75F1-466F-B872-024C1FB72131";
shapes = (
{
closed = 1;
nodes = (
(123,350,l),
(656,350,l),
(656,400,l),
(123,400,l)
);
},
{
closed = 1;
nodes = (
(97,750,l),
(97,0,l),
(153,0,l),
(153,745,l),
(108,700,l),
(671,700,l),
(671,750,l)
);
}
);
width = 708;
}
);
leftKerningGroup = D2;
rightKerningGroup = F;
unicode = 70;
},
{
glyphname = Fhook;
layers = (
{
anchors = (
{
name = bottom;
position = "{39, -165}";
},
{
name = top;
position = "{399, 750}";
}
);
layerId = "97350278-980A-4778-8478-A58DCFDD7560";
shapes = (
{
closed = 1;
nodes = (
(186,242,l),
(734,242,l),
(734,457,l),
(186,457,l)
);
},
{
closed = 1;
nodes = (
(318,650,l),
(200,535,l),
(754,535,l),
(754,750,l),
(60,750,l),
(60,105,ls),
(60,45,o),
(36,10,o),
(-26,10,cs),
(-58,10,o),
(-87,16,o),
(-110,23,c),
(-110,-164,l),
(-67,-177,o),
(-9,-183,o),
(39,-183,cs),
(225,-183,o),
(318,-89,o),
(318,90,cs)
);
}
);
width = 791;
},
{
anchors = (
{
name = bottom;
position = "{1, -165}";
},
{
name = top;
position = "{380, 750}";
}
);
layerId = "4A3736D9-1D75-4B42-9353-97DA234A9782";
shapes = (
{
closed = 1;
nodes = (
(148,306,l),
(687,306,l),
(687,422,l),
(148,422,l)
);
},
{
closed = 1;
nodes = (
(216,709,l),
(144,634,l),
(703,634,l),
(703,750,l),
(84,750,l),
(84,53,ls),
(84,-31,o),
(47,-71,o),
(-28,-71,cs),
(-67,-71,o),
(-98,-62,o),
(-123,-53,c),
(-123,-157,l),
(-87,-172,o),
(-43,-179,o),
(1,-179,cs),
(142,-179,o),
(216,-98,o),
(216,39,cs)
);
}
);
width = 740;
},
{
anchors = (
{
name = bottom;
position = "{-23, -165}";
},
{
name = top;
position = "{366, 750}";
}
);
layerId = "8FDEF4EB-75F1-466F-B872-024C1FB72131";
shapes = (
{
closed = 1;
nodes = (
(123,350,l),
(656,350,l),
(656,400,l),
(123,400,l)
);
},
{
closed = 1;
nodes = (
(153,722,l),
(123,700,l),
(671,700,l),
(671,750,l),
(97,750,l),
(97,21,ls),
(97,-79,o),
(55,-125,o),
(-28,-125,cs),
(-67,-125,o),
(-107,-108,o),
(-132,-92,c),
(-132,-147,l),
(-106,-163,o),
(-65,-177,o),
(-23,-177,cs),
(91,-177,o),
(153,-103,o),
(153,8,cs)
);
}
);
width = 708;
}
);
unicode = 401;
},
{
glyphname = G;
layers = (
{
anchors = (
{
name = bottom;
position = "{492, 0}";
},
{
name = top;
position = "{477, 750}";
}
);
layerId = "46B6653D-66F4-44F1-A5DA-92680F42D66A";
associatedMasterId = "97350278-980A-4778-8478-A58DCFDD7560";
name = "Black [710]";
shapes = (
{
closed = 1;
nodes = (
(731,324,l),
(717,229,o),
(627,187,o),
(502,187,cs),
(371,187,o),
(291,246,o),
(291,375,cs),
(291,500,o),
(362,557,o),
(478,557,cs),
(571,557,o),
(644,525,o),
(663,469,c),
(922,469,l),
(885,644,o),
(735,768,o),
(476,768,cs),
(229,768,o),
(33,633,o),
(33,375,cs),
(33,117,o),
(230,-18,o),
(462,-18,cs),
(718,-18,o),
(830,147,o),
(840,324,c)
);
},
{
closed = 1;
nodes = (
(756,255,l),
(711,287,l),
(749,0,l),
(928,0,l),
(928,401,l),
(518,401,l),
(518,255,l)
);
}
);
width = 976;
},
{
anchors = (
{
name = bottom;
position = "{492, 0}";
},
{
name = top;
position = "{477, 750}";
}
);
layerId = "97350278-980A-4778-8478-A58DCFDD7560";
shapes = (
{
closed = 1;
nodes = (
(731,324,l),
(717,229,o),
(627,187,o),
(502,187,cs),
(371,187,o),
(291,246,o),
(291,375,cs),
(291,500,o),
(362,557,o),
(478,557,cs),
(571,557,o),
(644,525,o),
(663,469,c),
(922,469,l),
(885,644,o),
(735,768,o),
(476,768,cs),
(229,768,o),
(33,633,o),
(33,375,cs),
(33,117,o),
(230,-18,o),
(462,-18,cs),
(718,-18,o),
(830,147,o),
(840,324,c)
);
},
{
closed = 1;
nodes = (
(756,224,l),
(711,287,l),
(749,0,l),
(928,0,l),
(928,401,l),
(518,401,l),
(518,224,l)
);
}
);
width = 976;
},
{
anchors = (
{
name = bottom;
position = "{470, 0}";
},
{
name = top;
position = "{468, 750}";
}
);
layerId = "4A3736D9-1D75-4B42-9353-97DA234A9782";
shapes = (
{
closed = 1;
nodes = (
(776,337,l),
(770,195,o),
(653,99,o),
(477,99,cs),
(295,99,o),
(179,202,o),
(179,375,cs),
(179,547,o),
(291,648,o),
(467,648,cs),
(616,648,o),
(718,581,o),
(740,475,c),
(874,475,l),
(849,642,o),
(697,764,o),
(468,764,cs),
(223,764,o),
(45,615,o),
(45,375,cs),
(45,135,o),
(223,-14,o),
(461,-14,cs),
(695,-14,o),
(831,139,o),
(835,326,c)
);
},
{
closed = 1;
nodes = (
(799,269,l),
(768,311,l),
(784,0,l),
(882,0,l),
(882,369,l),
(503,369,l),
(503,269,l)
);
}
);
width = 946;
},
{
anchors = (
{
name = bottom;
position = "{457, 0}";
},
{
name = top;
position = "{458, 750}";
}
);
layerId = "8FDEF4EB-75F1-466F-B872-024C1FB72131";
shapes = (
{
closed = 1;
nodes = (
(803,345,l),
(803,171,o),
(669,40,o),
(461,40,cs),
(248,40,o),
(110,172,o),
(110,375,cs),
(110,578,o),
(248,710,o),
(460,710,cs),
(642,710,o),
(761,617,o),
(786,479,c),
(844,479,l),
(827,641,o),
(673,762,o),
(463,762,cs),
(219,762,o),
(52,604,o),
(52,375,cs),
(52,146,o),
(219,-12,o),
(461,-12,cs),
(680,-12,o),
(832,134,o),
(832,328,c)
);
},
{
closed = 1;
nodes = (
(825,302,l),
(803,325,l),
(806,0,l),
(854,0,l),
(854,352,l),
(508,352,l),
(508,302,l)
);
}
);
width = 920;
}
);
leftKerningGroup = C2;
rightKerningGroup = G;
unicode = 71;
},
{
glyphname = Gacute;
layers = (
{
anchors = (
{
name = bottom;
position = "{492, 0}";
},
{
name = top;
position = "{499, 972}";
}
);
layerId = "46B6653D-66F4-44F1-A5DA-92680F42D66A";
associatedMasterId = "97350278-980A-4778-8478-A58DCFDD7560";
name = "Black [710]";
shapes = (
{
closed = 1;
nodes = (
(731,324,l),
(717,229,o),
(627,187,o),
(502,187,cs),
(371,187,o),
(291,246,o),
(291,375,cs),
(291,500,o),
(362,557,o),
(478,557,cs),
(571,557,o),
(644,525,o),
(663,469,c),
(922,469,l),
(885,644,o),
(735,768,o),
(476,768,cs),
(229,768,o),
(33,633,o),
(33,375,cs),
(33,117,o),
(230,-18,o),
(462,-18,cs),
(718,-18,o),
(830,147,o),
(840,324,c)
);
},
{
closed = 1;
nodes = (
(756,255,l),
(711,287,l),
(749,0,l),
(928,0,l),
(928,401,l),
(518,401,l),
(518,255,l)
);
},
{
closed = 1;
nodes = (
(332,802,l),
(584,802,l),
(764,982,l),
(480,982,l)
);
}
);
width = 976;
},
{
layerId = "97350278-980A-4778-8478-A58DCFDD7560";
shapes = (
{
alignment = -1;
ref = G;
},
{
alignment = -1;
pos = (321,0);
ref = acutecomb.case;
}
);
width = 976;
},
{
layerId = "4A3736D9-1D75-4B42-9353-97DA234A9782";
shapes = (
{
alignment = -1;
ref = G;
},
{
alignment = -1;
pos = (344,0);
ref = acutecomb.case;
}
);
width = 946;
},
{
layerId = "8FDEF4EB-75F1-466F-B872-024C1FB72131";
shapes = (
{
alignment = -1;
ref = G;
},
{
alignment = -1;
pos = (360,0);
ref = acutecomb.case;
}
);
width = 920;
}
);
unicode = 500;
},
{
glyphname = Gbreve;
layers = (
{
anchors = (
{
name = bottom;
position = "{492, 0}";
},
{
name = top;
position = "{471, 984}";
}
);
layerId = "46B6653D-66F4-44F1-A5DA-92680F42D66A";
associatedMasterId = "97350278-980A-4778-8478-A58DCFDD7560";
name = "Black [710]";
shapes = (
{
closed = 1;
nodes = (
(731,324,l),
(717,229,o),
(627,187,o),
(502,187,cs),
(371,187,o),
(291,246,o),
(291,375,cs),
(291,500,o),
(362,557,o),
(478,557,cs),
(571,557,o),
(644,525,o),
(663,469,c),
(922,469,l),
(885,644,o),
(735,768,o),
(476,768,cs),
(229,768,o),
(33,633,o),
(33,375,cs),
(33,117,o),
(230,-18,o),
(462,-18,cs),
(718,-18,o),
(830,147,o),
(840,324,c)
);
},
{
closed = 1;
nodes = (
(756,255,l),
(711,287,l),
(749,0,l),
(928,0,l),
(928,401,l),
(518,401,l),
(518,255,l)
);
},
{
closed = 1;
nodes = (
(197,987,l),
(235,854,o),
(339,792,o),
(477,792,cs),
(615,792,o),
(719,854,o),
(757,987,c),
(567,987,l),
(546,958,o),
(517,943,o),
(477,943,cs),
(437,943,o),
(408,958,o),
(387,987,c)
);
}
);
width = 976;
},
{
layerId = "97350278-980A-4778-8478-A58DCFDD7560";
shapes = (
{
alignment = -1;
ref = G;
},
{
alignment = -1;
pos = (192,0);
ref = brevecomb.case;
}
);
width = 976;
},
{
layerId = "4A3736D9-1D75-4B42-9353-97DA234A9782";
shapes = (
{
alignment = -1;
ref = G;
},
{
alignment = -1;
pos = (225,0);
ref = brevecomb.case;
}
);
width = 946;
},
{
layerId = "8FDEF4EB-75F1-466F-B872-024C1FB72131";
shapes = (
{
alignment = -1;
ref = G;
},
{
alignment = -1;
pos = (242,0);
ref = brevecomb.case;
}
);
width = 920;
}
);
leftKerningGroup = C2;
rightKerningGroup = G;
unicode = 286;
},
{
glyphname = Gcaron;
layers = (
{
anchors = (
{
name = bottom;
position = "{492, 0}";
},
{
name = top;
position = "{482, 972}";
}
);
layerId = "46B6653D-66F4-44F1-A5DA-92680F42D66A";
associatedMasterId = "97350278-980A-4778-8478-A58DCFDD7560";
name = "Black [710]";
shapes = (
{
closed = 1;
nodes = (
(731,324,l),
(717,229,o),
(627,187,o),
(502,187,cs),
(371,187,o),
(291,246,o),
(291,375,cs),
(291,500,o),
(362,557,o),
(478,557,cs),
(571,557,o),
(644,525,o),
(663,469,c),
(922,469,l),
(885,644,o),
(735,768,o),
(476,768,cs),
(229,768,o),
(33,633,o),
(33,375,cs),
(33,117,o),
(230,-18,o),
(462,-18,cs),
(718,-18,o),
(830,147,o),
(840,324,c)
);
},
{
closed = 1;
nodes = (
(756,255,l),
(711,287,l),
(749,0,l),
(928,0,l),
(928,401,l),
(518,401,l),
(518,255,l)
);
},
{
closed = 1;
nodes = (
(762,981,l),
(562,981,l),
(416,877,l),
(536,877,l),
(390,981,l),
(190,981,l),
(345,801,l),
(607,801,l)
);
}
);
width = 976;
},
{
layerId = "97350278-980A-4778-8478-A58DCFDD7560";
shapes = (
{
alignment = -1;
ref = G;
},
{
alignment = -1;
pos = (186,0);
ref = caroncomb.case;
}
);
width = 976;
},
{
layerId = "4A3736D9-1D75-4B42-9353-97DA234A9782";
shapes = (
{
alignment = -1;
ref = G;
},
{
alignment = -1;
pos = (215,0);
ref = caroncomb.case;
}
);
width = 946;
},
{
layerId = "8FDEF4EB-75F1-466F-B872-024C1FB72131";
shapes = (
{
alignment = -1;
ref = G;
},
{
alignment = -1;
pos = (241,0);
ref = caroncomb.case;
}
);
width = 920;
}
);
leftKerningGroup = C2;
rightKerningGroup = G;
unicode = 486;
},
{
glyphname = Gcircumflex;
layers = (
{
anchors = (
{
name = bottom;
position = "{492, 0}";
},
{
name = top;
position = "{491, 982}";
}
);
layerId = "46B6653D-66F4-44F1-A5DA-92680F42D66A";
associatedMasterId = "97350278-980A-4778-8478-A58DCFDD7560";
name = "Black [710]";
shapes = (
{
closed = 1;
nodes = (
(731,324,l),
(717,229,o),
(627,187,o),
(502,187,cs),
(371,187,o),
(291,246,o),
(291,375,cs),
(291,500,o),
(362,557,o),
(478,557,cs),
(571,557,o),
(644,525,o),
(663,469,c),
(922,469,l),
(885,644,o),
(735,768,o),
(476,768,cs),
(229,768,o),
(33,633,o),
(33,375,cs),
(33,117,o),
(230,-18,o),
(462,-18,cs),
(718,-18,o),
(830,147,o),
(840,324,c)
);
},
{
closed = 1;
nodes = (
(756,255,l),
(711,287,l),
(749,0,l),
(928,0,l),
(928,401,l),
(518,401,l),
(518,255,l)
);
},
{
closed = 1;
nodes = (
(191,802,l),
(391,802,l),
(537,906,l),
(417,906,l),
(563,802,l),
(763,802,l),
(608,982,l),
(346,982,l)
);
}
);
width = 976;
},
{
layerId = "97350278-980A-4778-8478-A58DCFDD7560";
shapes = (
{
alignment = -1;
ref = G;
},
{
alignment = -1;
pos = (186,0);
ref = circumflexcomb.case;
}
);
width = 976;
},
{
layerId = "4A3736D9-1D75-4B42-9353-97DA234A9782";
shapes = (
{
alignment = -1;
ref = G;
},
{
alignment = -1;
pos = (215,0);
ref = circumflexcomb.case;
}
);
width = 946;
},
{
layerId = "8FDEF4EB-75F1-466F-B872-024C1FB72131";
shapes = (
{
alignment = -1;
ref = G;
},
{
alignment = -1;
pos = (241,0);
ref = circumflexcomb.case;
}
);
width = 920;
}
);
leftKerningGroup = C2;
rightKerningGroup = G;
unicode = 284;
},
{
glyphname = Gcommaaccent;
layers = (
{
anchors = (
{
name = bottom;
position = "{492, 0}";
},
{
name = top;
position = "{477, 750}";
}
);
layerId = "46B6653D-66F4-44F1-A5DA-92680F42D66A";
associatedMasterId = "97350278-980A-4778-8478-A58DCFDD7560";
name = "Black [710]";
shapes = (
{
closed = 1;
nodes = (
(731,324,l),
(717,229,o),
(627,187,o),
(502,187,cs),
(371,187,o),
(291,246,o),
(291,375,cs),
(291,500,o),
(362,557,o),
(478,557,cs),
(571,557,o),
(644,525,o),
(663,469,c),
(922,469,l),
(885,644,o),
(735,768,o),
(476,768,cs),
(229,768,o),
(33,633,o),
(33,375,cs),
(33,117,o),
(230,-18,o),
(462,-18,cs),
(718,-18,o),
(830,147,o),
(840,324,c)
);
},
{
closed = 1;
nodes = (
(756,255,l),
(711,287,l),
(749,0,l),
(928,0,l),
(928,401,l),
(518,401,l),
(518,255,l)
);
},
{
closed = 1;
nodes = (
(486,-339,l),
(550,-266,ls),
(598,-211,o),
(621,-182,o),
(621,-140,cs),
(621,-78,o),
(571,-42,o),
(492,-42,cs),
(413,-42,o),
(362,-78,o),
(362,-139,cs),
(362,-201,o),
(413,-237,o),
(492,-237,c),
(482,-168,l),
(370,-339,l)
);
}
);
width = 976;
},
{
layerId = "97350278-980A-4778-8478-A58DCFDD7560";
shapes = (
{
alignment = -1;
ref = G;
},
{
alignment = -1;
pos = (342,0);
ref = commaaccentcomb;
}
);
width = 976;
},
{
layerId = "4A3736D9-1D75-4B42-9353-97DA234A9782";
shapes = (
{
alignment = -1;
ref = G;
},
{
alignment = -1;
pos = (350,0);
ref = commaaccentcomb;
}
);
width = 946;
},
{
layerId = "8FDEF4EB-75F1-466F-B872-024C1FB72131";
shapes = (
{
alignment = -1;
ref = G;
},
{
alignment = -1;
pos = (356,0);
ref = commaaccentcomb;
}
);
width = 920;
}
);
unicode = 290;
},
{
glyphname = Gdotaccent;
layers = (
{
anchors = (
{
name = bottom;
position = "{492, 0}";
},
{
name = top;
position = "{472, 1002}";
}
);
layerId = "46B6653D-66F4-44F1-A5DA-92680F42D66A";
associatedMasterId = "97350278-980A-4778-8478-A58DCFDD7560";
name = "Black [710]";
shapes = (
{
closed = 1;
nodes = (
(731,324,l),
(717,229,o),
(627,187,o),
(502,187,cs),
(371,187,o),
(291,246,o),
(291,375,cs),
(291,500,o),
(362,557,o),
(478,557,cs),
(571,557,o),
(644,525,o),
(663,469,c),
(922,469,l),
(885,644,o),
(735,768,o),
(476,768,cs),
(229,768,o),
(33,633,o),
(33,375,cs),
(33,117,o),
(230,-18,o),
(462,-18,cs),
(718,-18,o),
(830,147,o),
(840,324,c)
);
},
{
closed = 1;
nodes = (
(756,255,l),
(711,287,l),
(749,0,l),
(928,0,l),
(928,401,l),
(518,401,l),
(518,255,l)
);
},
{
closed = 1;
nodes = (
(563,792,o),
(619,836,o),
(619,908,cs),
(619,980,o),
(563,1024,o),
(477,1024,cs),
(391,1024,o),
(335,980,o),
(335,908,cs),
(335,836,o),
(391,792,o),
(477,792,cs)
);
}
);
width = 976;
},
{
layerId = "97350278-980A-4778-8478-A58DCFDD7560";
shapes = (
{
alignment = -1;
ref = G;
},
{
alignment = -1;
pos = (300,0);
ref = dotaccentcomb.case;
}
);
width = 976;
},
{
layerId = "4A3736D9-1D75-4B42-9353-97DA234A9782";
shapes = (
{
alignment = -1;
ref = G;
},
{
alignment = -1;
pos = (335,0);
ref = dotaccentcomb.case;
}
);
width = 946;
},
{
layerId = "8FDEF4EB-75F1-466F-B872-024C1FB72131";
shapes = (
{
alignment = -1;
ref = G;
},
{
alignment = -1;
pos = (352,0);
ref = dotaccentcomb.case;
}
);
width = 920;
}
);
leftKerningGroup = C2;
rightKerningGroup = G;
unicode = 288;
},
{
glyphname = Ghook;
layers = (
{
anchors = (
{
name = bottom;
position = "{494, 0}";
},
{
name = top;
position = "{479, 750}";
}
);
layerId = "46B6653D-66F4-44F1-A5DA-92680F42D66A";
associatedMasterId = "97350278-980A-4778-8478-A58DCFDD7560";
name = "Black [710]";
shapes = (
{
closed = 1;
nodes = (
(720,-18,o),
(832,147,o),
(842,324,c),
(733,324,l),
(719,229,o),
(629,187,o),
(504,187,cs),
(373,187,o),
(293,246,o),
(293,375,cs),
(293,500,o),
(364,557,o),
(480,557,cs),
(573,557,o),
(646,525,o),
(665,469,c),
(921,469,l),
(912,500,o),
(900,534,o),
(892,568,cs),
(886,593,o),
(881,617,o),
(881,640,cs),
(881,688,o),
(908,713,o),
(968,713,cs),
(996,713,o),
(1020,707,o),
(1043,700,c),
(1043,887,l),
(1000,900,o),
(951,906,o),
(903,906,cs),
(757,906,o),
(697,826,o),
(697,730,cs),
(697,670,o),
(732,605,o),
(762,555,c),
(823,534,l),
(751,703,o),
(630,768,o),
(457,768,cs),
(247,768,o),
(35,643,o),
(35,375,cs),
(35,117,o),
(232,-18,o),
(464,-18,cs)
);
},
{
closed = 1;
nodes = (
(758,224,l),
(713,287,l),
(751,0,l),
(930,0,l),
(930,401,l),
(520,401,l),
(520,224,l)
);
}
);
width = 1038;
},
{
anchors = (
{
name = bottom;
position = "{494, 0}";
},
{
name = top;
position = "{479, 750}";
}
);
layerId = "97350278-980A-4778-8478-A58DCFDD7560";
shapes = (
{
closed = 1;
nodes = (
(720,-18,o),
(832,147,o),
(842,324,c),
(733,324,l),
(719,229,o),
(629,187,o),
(504,187,cs),
(373,187,o),
(293,246,o),
(293,375,cs),
(293,500,o),
(364,557,o),
(480,557,cs),
(573,557,o),
(646,525,o),
(665,469,c),
(921,469,l),
(912,500,o),
(900,534,o),
(892,568,cs),
(886,593,o),
(881,617,o),
(881,640,cs),
(881,688,o),
(908,713,o),
(968,713,cs),
(996,713,o),
(1020,707,o),
(1043,700,c),
(1043,887,l),
(1000,900,o),
(951,906,o),
(903,906,cs),
(757,906,o),
(697,826,o),
(697,730,cs),
(697,670,o),
(732,605,o),
(762,555,c),
(823,534,l),
(751,703,o),
(630,768,o),
(457,768,cs),
(247,768,o),
(35,643,o),
(35,375,cs),
(35,117,o),
(232,-18,o),
(464,-18,cs)
);
},
{
closed = 1;
nodes = (
(758,255,l),
(713,287,l),
(751,0,l),
(930,0,l),
(930,401,l),
(520,401,l),
(520,255,l)
);
}
);
width = 1038;
},
{
anchors = (
{
name = bottom;
position = "{471, 0}";
},
{
name = top;
position = "{469, 750}";
}
);
layerId = "4A3736D9-1D75-4B42-9353-97DA234A9782";
shapes = (
{
closed = 1;
nodes = (
(696,-14,o),
(832,139,o),
(836,326,c),
(777,337,l),
(771,194,o),
(654,99,o),
(478,99,cs),
(296,99,o),
(180,201,o),
(180,375,cs),
(180,547,o),
(292,648,o),
(468,648,cs),
(616,648,o),
(718,581,o),
(740,475,c),
(875,475,l),
(869,509,o),
(856,545,o),
(844,575,cs),
(820,634,o),
(804,678,o),
(804,711,cs),
(804,758,o),
(833,792,o),
(901,792,cs),
(934,792,o),
(962,785,o),
(993,774,c),
(993,878,l),
(960,891,o),
(921,900,o),
(873,900,cs),
(749,900,o),
(687,839,o),
(687,757,cs),
(687,699,o),
(717,649,o),
(749,603,c),
(782,605,l),
(717,708,o),
(628,764,o),
(469,764,cs),
(224,764,o),
(46,615,o),
(46,375,cs),
(46,135,o),
(224,-14,o),
(462,-14,cs)
);
},
{
closed = 1;
nodes = (
(800,269,l),
(769,311,l),
(785,0,l),
(883,0,l),
(883,369,l),
(504,369,l),
(504,269,l)
);
}
);
width = 943;
},
{
anchors = (
{
name = bottom;
position = "{457, 0}";
},
{
name = top;
position = "{458, 750}";
}
);
layerId = "8FDEF4EB-75F1-466F-B872-024C1FB72131";
shapes = (
{
closed = 1;
nodes = (
(680,-12,o),
(832,134,o),
(832,328,c),
(803,345,l),
(803,171,o),
(669,40,o),
(461,40,cs),
(248,40,o),
(110,172,o),
(110,375,cs),
(110,578,o),
(248,710,o),
(460,710,cs),
(642,710,o),
(761,617,o),
(786,479,c),
(844,479,l),
(841,515,o),
(828,550,o),
(814,579,cs),
(776,656,o),
(754,701,o),
(754,750,cs),
(754,804,o),
(789,845,o),
(858,845,cs),
(899,845,o),
(933,829,o),
(960,812,c),
(960,867,l),
(934,883,o),
(901,897,o),
(853,897,cs),
(763,897,o),
(698,843,o),
(698,762,cs),
(698,705,o),
(725,664,o),
(757,620,c),
(754,648,l),
(688,721,o),
(597,762,o),
(463,762,cs),
(219,762,o),
(52,604,o),
(52,375,cs),
(52,146,o),
(219,-12,o),
(461,-12,cs)
);
},
{
closed = 1;
nodes = (
(825,302,l),
(803,325,l),
(806,0,l),
(854,0,l),
(854,352,l),
(508,352,l),
(508,302,l)
);
}
);
width = 919;
}
);
unicode = 403;
},
{
glyphname = Glottalstop;
layers = (
{
anchors = (
{
name = bottom;
position = "{389, 0}";
},
{
name = top;
position = "{409, 750}";
}
);
layerId = "97350278-980A-4778-8478-A58DCFDD7560";
shapes = (
{
closed = 1;
nodes = (
(149,768,o),
(11,640,o),
(4,490,c),
(260,490,l),
(268,543,o),
(311,574,o),
(398,574,cs),
(480,574,o),
(513,545,o),
(513,512,cs),
(513,483,o),
(499,472,o),
(447,435,cs),
(378,385,ls),
(294,324,o),
(259,264,o),
(259,146,cs),
(259,0,l),
(517,0,l),
(517,97,ls),
(517,180,o),
(525,215,o),
(600,269,cs),
(663,314,ls),
(737,367,o),
(773,425,o),
(773,516,cs),
(773,668,o),
(635,768,o),
(410,768,cs)
);
}
);
width = 790;
},
{
anchors = (
{
name = bottom;
position = "{354, 0}";
},
{
name = top;
position = "{368, 750}";
}
);
layerId = "4A3736D9-1D75-4B42-9353-97DA234A9782";
shapes = (
{
closed = 1;
nodes = (
(153,764,o),
(25,657,o),
(13,519,c),
(145,519,l),
(161,607,o),
(236,656,o),
(365,656,cs),
(484,656,o),
(556,619,o),
(556,544,cs),
(556,495,o),
(534,475,o),
(458,418,cs),
(391,368,ls),
(311,309,o),
(277,253,o),
(277,144,cs),
(277,0,l),
(409,0,l),
(409,128,ls),
(409,214,o),
(430,251,o),
(498,302,cs),
(562,350,ls),
(660,424,o),
(690,465,o),
(690,546,cs),
(690,671,o),
(589,764,o),
(371,764,cs)
);
}
);
width = 706;
},
{
anchors = (
{
name = bottom;
position = "{332, 0}";
},
{
name = top;
position = "{352, 750}";
}
);
layerId = "8FDEF4EB-75F1-466F-B872-024C1FB72131";
shapes = (
{
closed = 1;
nodes = (
(156,762,o),
(34,664,o),
(18,531,c),
(74,531,l),
(93,644,o),
(193,712,o),
(347,712,cs),
(487,712,o),
(583,660,o),
(583,559,cs),
(583,495,o),
(550,463,o),
(466,407,cs),
(400,363,ls),
(318,308,o),
(289,247,o),
(289,142,cs),
(289,0,l),
(345,0,l),
(345,142,ls),
(345,230,o),
(367,279,o),
(432,322,cs),
(508,373,ls),
(587,426,o),
(641,472,o),
(641,564,cs),
(641,682,o),
(530,762,o),
(349,762,cs)
);
}
);
width = 660;
}
);
unicode = 577;
},
{
glyphname = Gmacron;
layers = (
{
anchors = (
{
name = bottom;
position = "{492, 0}";
},
{
name = top;
position = "{469, 972}";
}
);
layerId = "46B6653D-66F4-44F1-A5DA-92680F42D66A";
associatedMasterId = "97350278-980A-4778-8478-A58DCFDD7560";
name = "Black [710]";
shapes = (
{
closed = 1;
nodes = (
(731,324,l),
(717,229,o),
(627,187,o),
(502,187,cs),
(371,187,o),
(291,246,o),
(291,375,cs),
(291,500,o),
(362,557,o),
(478,557,cs),
(571,557,o),
(644,525,o),
(663,469,c),
(922,469,l),
(885,644,o),
(735,768,o),
(476,768,cs),
(229,768,o),
(33,633,o),
(33,375,cs),
(33,117,o),
(230,-18,o),
(462,-18,cs),
(718,-18,o),
(830,147,o),
(840,324,c)
);
},
{
closed = 1;
nodes = (
(756,255,l),
(711,287,l),
(749,0,l),
(928,0,l),
(928,401,l),
(518,401,l),
(518,255,l)
);
},
{
closed = 1;
nodes = (
(739,817,l),
(739,964,l),
(215,964,l),
(215,817,l)
);
}
);
width = 976;
},
{
layerId = "97350278-980A-4778-8478-A58DCFDD7560";
shapes = (
{
alignment = -1;
ref = G;
},
{
alignment = -1;
pos = (205,0);
ref = macroncomb.case;
}
);
width = 976;
},
{
layerId = "4A3736D9-1D75-4B42-9353-97DA234A9782";
shapes = (
{
alignment = -1;
ref = G;
},
{
alignment = -1;
pos = (220,0);
ref = macroncomb.case;
}
);
width = 946;
},
{
layerId = "8FDEF4EB-75F1-466F-B872-024C1FB72131";
shapes = (
{
alignment = -1;
ref = G;
},
{
alignment = -1;
pos = (224,0);
ref = macroncomb.case;
}
);
width = 920;
}
);
unicode = 7712;
},
{
glyphname = Gscript;
layers = (
{
anchors = (
{
name = bottom;
position = "{465, -165}";
},
{
name = top;
position = "{465, 750}";
}
);
layerId = "97350278-980A-4778-8478-A58DCFDD7560";
shapes = (
{
closed = 1;
nodes = (
(624,218,ls),
(624,81,o),
(540,32,o),
(414,32,cs),
(326,32,o),
(211,54,o),
(100,133,c),
(100,-90,l),
(195,-148,o),
(303,-183,o),
(433,-183,cs),
(706,-183,o),
(880,-41,o),
(880,229,cs),
(880,750,l),
(624,750,l),
(624,595,l),
(634,569,l),
(634,372,l),
(624,338,l)
);
},
{
closed = 1;
nodes = (
(605,120,o),
(724,321,o),
(724,440,cs),
(724,546,o),
(605,768,o),
(355,768,cs),
(166,768,o),
(33,640,o),
(33,444,cs),
(33,248,o),
(166,120,o),
(355,120,cs)
);
},
{
closed = 1;
nodes = (
(355,323,o),
(291,366,o),
(291,444,cs),
(291,522,o),
(355,565,o),
(437,565,cs),
(525,565,o),
(598,522,o),
(635,444,c),
(598,366,o),
(527,323,o),
(437,323,cs)
);
}
);
width = 937;
},
{
anchors = (
{
name = bottom;
position = "{461, -165}";
},
{
name = top;
position = "{461, 750}";
}
);
layerId = "4A3736D9-1D75-4B42-9353-97DA234A9782";
shapes = (
{
closed = 1;
nodes = (
(721,216,ls),
(721,41,o),
(616,-65,o),
(424,-65,cs),
(328,-65,o),
(219,-36,o),
(115,46,c),
(115,-77,l),
(207,-145,o),
(310,-179,o),
(433,-179,cs),
(676,-179,o),
(853,-46,o),
(853,232,cs),
(853,750,l),
(721,750,l),
(721,523,l),
(727,498,l),
(727,363,l),
(721,340,l)
);
},
{
closed = 1;
nodes = (
(615,94,o),
(769,295,o),
(769,428,cs),
(769,555,o),
(615,764,o),
(377,764,cs),
(189,764,o),
(45,631,o),
(45,429,cs),
(45,228,o),
(189,94,o),
(377,94,cs)
);
},
{
closed = 1;
nodes = (
(266,206,o),
(179,300,o),
(179,429,cs),
(179,559,o),
(266,652,o),
(415,652,cs),
(540,652,o),
(647,583,o),
(727,429,c),
(646,274,o),
(541,206,o),
(415,206,cs)
);
}
);
width = 933;
},
{
anchors = (
{
name = bottom;
position = "{458, -165}";
},
{
name = top;
position = "{458, 750}";
}
);
layerId = "8FDEF4EB-75F1-466F-B872-024C1FB72131";
shapes = (
{
closed = 1;
nodes = (
(780,214,ls),
(780,15,o),
(662,-125,o),
(431,-125,cs),
(331,-125,o),
(225,-92,o),
(125,-9,c),
(125,-70,l),
(215,-144,o),
(316,-177,o),
(435,-177,cs),
(659,-177,o),
(836,-50,o),
(836,233,cs),
(836,750,l),
(780,750,l),
(780,479,l),
(785,454,l),
(785,357,l),
(780,342,l)
);
},
{
closed = 1;
nodes = (
(622,78,o),
(798,279,o),
(798,420,cs),
(798,561,o),
(622,762,o),
(392,762,cs),
(204,762,o),
(54,625,o),
(54,420,cs),
(54,215,o),
(204,78,o),
(392,78,cs)
);
},
{
closed = 1;
nodes = (
(215,130,o),
(112,254,o),
(112,420,cs),
(112,586,o),
(215,710,o),
(402,710,cs),
(550,710,o),
(678,626,o),
(785,420,c),
(676,213,o),
(550,130,o),
(402,130,cs)
);
}
);
width = 928;
}
);
unicode = 42924;
},
{
glyphname = Gstroke;
layers = (
{
anchors = (
{
name = bottom;
position = "{457, 0}";
},
{
name = top;
position = "{458, 750}";
}
);
layerId = "14BCB3E6-570F-4F38-AC09-A287191C401E";
name = "Light.Light [705]";
shapes = (
{
closed = 1;
nodes = (
(448,203,l),
(956,203,l),
(956,253,l),
(448,253,l)
);
},
{
closed = 1;
nodes = (
(508,324,l),
(830,324,l),
(803,350,l),
(803,308,ls),
(803,130,o),
(672,40,o),
(470,40,cs),
(248,40,o),
(110,175,o),
(110,375,cs),
(110,578,o),
(248,710,o),
(460,710,cs),
(642,710,o),
(761,617,o),
(786,479,c),
(844,479,l),
(827,641,o),
(673,762,o),
(463,762,cs),
(219,762,o),
(52,604,o),
(52,375,cs),
(52,146,o),
(213,-12,o),
(463,-12,cs),
(695,-12,o),
(837,107,o),
(837,307,c),
(854,308,l),
(854,374,l),
(508,374,l)
);
},
{
closed = 1;
nodes = (
(806,1,l),
(854,1,l),
(854,369,l),
(803,369,l)
);
}
);
width = 952;
},
{
anchors = (
{
name = bottom;
position = "{492, 0}";
},
{
name = top;
position = "{477, 750}";
}
);
layerId = "18EF4CF3-4CEB-4A3C-A2EF-4BB48522AF96";
associatedMasterId = "97350278-980A-4778-8478-A58DCFDD7560";
name = "Black [705]";
shapes = (
{
closed = 1;
nodes = (
(489,218,l),
(1008,218,l),
(1008,300,l),
(489,300,l)
);
},
{
closed = 1;
nodes = (
(528,323,l),
(756,323,l),
(725,356,l),
(725,331,ls),
(725,249,o),
(650,187,o),
(490,187,cs),
(349,187,o),
(291,265,o),
(291,375,cs),
(291,500,o),
(365,557,o),
(485,557,cs),
(565,557,o),
(628,526,o),
(644,500,c),
(915,500,l),
(857,657,o),
(729,768,o),
(476,768,cs),
(229,768,o),
(33,633,o),
(33,375,cs),
(33,138,o),
(206,-18,o),
(462,-18,cs),
(727,-18,o),
(840,163,o),
(840,397,c),
(928,397,l),
(928,433,l),
(528,433,l)
);
},
{
closed = 1;
nodes = (
(770,1,l),
(928,1,l),
(928,414,l),
(737,414,l)
);
}
);
width = 1018;
},
{
anchors = (
{
name = bottom;
position = "{492, 0}";
},
{
name = top;
position = "{477, 750}";
}
);
layerId = "97350278-980A-4778-8478-A58DCFDD7560";
shapes = (
{
closed = 1;
nodes = (
(489,173,l),
(1008,173,l),
(1008,282,l),
(489,282,l)
);
},
{
closed = 1;
nodes = (
(528,298,l),
(756,298,l),
(725,356,l),
(725,331,ls),
(725,249,o),
(650,187,o),
(490,187,cs),
(349,187,o),
(291,265,o),
(291,375,cs),
(291,500,o),
(365,557,o),
(485,557,cs),
(565,557,o),
(628,526,o),
(644,500,c),
(915,500,l),
(857,657,o),
(729,768,o),
(476,768,cs),
(229,768,o),
(33,633,o),
(33,375,cs),
(33,138,o),
(206,-18,o),
(462,-18,cs),
(727,-18,o),
(840,163,o),
(840,397,c),
(928,397,l),
(928,433,l),
(528,433,l)
);
},
{
closed = 1;
nodes = (
(770,1,l),
(928,1,l),
(928,414,l),
(737,414,l)
);
}
);
width = 1018;
},
{
anchors = (
{
name = bottom;
position = "{469, 0}";
},
{
name = top;
position = "{467, 750}";
}
);
layerId = "E28897B8-13A7-4F1A-9ABA-5B086C73F531";
associatedMasterId = "4A3736D9-1D75-4B42-9353-97DA234A9782";
name = "Regular [705]";
shapes = (
{
closed = 1;
nodes = (
(467,151,l),
(974,151,l),
(974,249,l),
(467,249,l)
);
},
{
closed = 1;
nodes = (
(516,283,l),
(802,283,l),
(773,356,l),
(773,321,ls),
(773,177,o),
(664,96,o),
(478,96,cs),
(286,96,o),
(179,209,o),
(179,375,cs),
(179,547,o),
(293,650,o),
(470,650,cs),
(613,650,o),
(711,581,o),
(732,487,c),
(871,487,l),
(839,647,o),
(694,764,o),
(468,764,cs),
(223,764,o),
(45,615,o),
(45,375,cs),
(45,135,o),
(220,-14,o),
(466,-14,cs),
(711,-14,o),
(842,132,o),
(842,352,c),
(882,352,l),
(882,383,l),
(516,383,l)
);
},
{
closed = 1;
nodes = (
(792,1,l),
(882,1,l),
(882,375,l),
(778,375,l)
);
}
);
width = 971;
},
{
anchors = (
{
name = bottom;
position = "{469, 0}";
},
{
name = top;
position = "{467, 750}";
}
);
layerId = "4A3736D9-1D75-4B42-9353-97DA234A9782";
shapes = (
{
closed = 1;
nodes = (
(467,182,l),
(974,182,l),
(974,270,l),
(467,270,l)
);
},
{
closed = 1;
nodes = (
(516,308,l),
(802,308,l),
(773,346,l),
(773,311,ls),
(773,173,o),
(664,96,o),
(478,96,cs),
(286,96,o),
(179,209,o),
(179,375,cs),
(179,547,o),
(293,650,o),
(470,650,cs),
(613,650,o),
(711,581,o),
(732,487,c),
(871,487,l),
(839,647,o),
(694,764,o),
(468,764,cs),
(223,764,o),
(45,615,o),
(45,375,cs),
(45,135,o),
(220,-14,o),
(466,-14,cs),
(711,-14,o),
(842,128,o),
(842,342,c),
(882,342,l),
(882,406,l),
(516,406,l)
);
},
{
closed = 1;
nodes = (
(792,1,l),
(882,1,l),
(882,380,l),
(778,380,l)
);
}
);
width = 971;
},
{
anchors = (
{
name = bottom;
position = "{457, 0}";
},
{
name = top;
position = "{458, 750}";
}
);
layerId = "8FDEF4EB-75F1-466F-B872-024C1FB72131";
shapes = (
{
closed = 1;
nodes = (
(448,203,l),
(956,203,l),
(956,253,l),
(448,253,l)
);
},
{
closed = 1;
nodes = (
(508,324,l),
(830,324,l),
(803,350,l),
(803,308,ls),
(803,130,o),
(672,40,o),
(470,40,cs),
(248,40,o),
(110,175,o),
(110,375,cs),
(110,578,o),
(248,710,o),
(460,710,cs),
(642,710,o),
(761,617,o),
(786,479,c),
(844,479,l),
(827,641,o),
(673,762,o),
(463,762,cs),
(219,762,o),
(52,604,o),
(52,375,cs),
(52,146,o),
(213,-12,o),
(463,-12,cs),
(695,-12,o),
(837,107,o),
(837,307,c),
(854,308,l),
(854,374,l),
(508,374,l)
);
},
{
closed = 1;
nodes = (
(806,1,l),
(854,1,l),
(854,369,l),
(803,369,l)
);
}
);
width = 952;
}
);
unicode = 484;
},
{
glyphname = H;
layers = (
{
anchors = (
{
name = bottom;
position = "{478, 0}";
},
{
name = center;
position = "{478, 375}";
},
{
name = top;
position = "{478, 750}";
},
{
name = topleft;
position = "{26, 750}";
}
);
guides = (
{
angle = 18.435;
position = "{298, 962}";
},
{
angle = 18.435;
position = "{478, 750}";
}
);
layerId = "97350278-980A-4778-8478-A58DCFDD7560";
shapes = (
{
closed = 1;
nodes = (
(60,0,l),
(318,0,l),
(318,750,l),
(60,750,l)
);
},
{
closed = 1;
nodes = (
(638,0,l),
(896,0,l),
(896,750,l),
(638,750,l)
);
},
{
closed = 1;
nodes = (
(206,269,l),
(739,269,l),
(739,497,l),
(206,497,l)
);
}
);
width = 956;
},
{
anchors = (
{
name = bottom;
position = "{455, 0}";
},
{
name = center;
position = "{455, 375}";
},
{
name = top;
position = "{455, 750}";
},
{
name = topleft;
position = "{28, 750}";
}
);
layerId = "4A3736D9-1D75-4B42-9353-97DA234A9782";
shapes = (
{
closed = 1;
nodes = (
(84,0,l),
(216,0,l),
(216,750,l),
(84,750,l)
);
},
{
closed = 1;
nodes = (
(694,0,l),
(826,0,l),
(826,750,l),
(694,750,l)
);
},
{
closed = 1;
nodes = (
(155,320,l),
(757,320,l),
(757,436,l),
(155,436,l)
);
}
);
width = 910;
},
{
anchors = (
{
name = bottom;
position = "{440, 0}";
},
{
name = center;
position = "{440, 375}";
},
{
name = top;
position = "{440, 750}";
},
{
name = topleft;
position = "{28, 750}";
}
);
guides = (
{
angle = 7.125;
position = "{271, 641}";
}
);
layerId = "8FDEF4EB-75F1-466F-B872-024C1FB72131";
shapes = (
{
closed = 1;
nodes = (
(97,0,l),
(153,0,l),
(153,750,l),
(97,750,l)
);
},
{
closed = 1;
nodes = (
(727,0,l),
(783,0,l),
(783,750,l),
(727,750,l)
);
},
{
closed = 1;
nodes = (
(123,350,l),
(767,350,l),
(767,400,l),
(123,400,l)
);
}
);
width = 880;
}
);
leftKerningGroup = D2;
rightKerningGroup = H;
unicode = 72;
},
{
glyphname = Hbar;
layers = (
{
anchors = (
{
name = bottom;
position = "{499, 0}";
},
{
name = center;
position = "{499, 375}";
},
{
name = top;
position = "{499, 750}";
},
{
name = topleft;
position = "{27, 750}";
}
);
guides = (
{
angle = 153.435;
position = "{299, 962}";
}
);
layerId = "97350278-980A-4778-8478-A58DCFDD7560";
shapes = (
{
closed = 1;
nodes = (
(81,0,l),
(339,0,l),
(339,750,l),
(81,750,l)
);
},
{
closed = 1;
nodes = (
(659,0,l),
(917,0,l),
(917,750,l),
(659,750,l)
);
},
{
closed = 1;
nodes = (
(207,249,l),
(740,249,l),
(740,457,l),
(207,457,l)
);
},
{
closed = 1;
nodes = (
(19,523,l),
(979,523,l),
(979,689,l),
(19,689,l)
);
}
);
width = 998;
},
{
anchors = (
{
name = bottom;
position = "{469, 0}";
},
{
name = center;
position = "{469, 375}";
},
{
name = top;
position = "{469, 750}";
},
{
name = topleft;
position = "{35, 750}";
}
);
layerId = "4A3736D9-1D75-4B42-9353-97DA234A9782";
shapes = (
{
closed = 1;
nodes = (
(98,0,l),
(230,0,l),
(230,750,l),
(98,750,l)
);
},
{
closed = 1;
nodes = (
(709,0,l),
(841,0,l),
(841,750,l),
(709,750,l)
);
},
{
closed = 1;
nodes = (
(162,309,l),
(764,309,l),
(764,425,l),
(162,425,l)
);
},
{
closed = 1;
nodes = (
(24,560,l),
(915,560,l),
(915,658,l),
(24,658,l)
);
}
);
width = 939;
},
{
anchors = (
{
name = bottom;
position = "{449, 0}";
},
{
name = center;
position = "{449, 375}";
},
{
name = top;
position = "{449, 750}";
},
{
name = topleft;
position = "{37, 750}";
}
);
guides = (
{
angle = 176.82;
position = "{280, 641}";
}
);
layerId = "8FDEF4EB-75F1-466F-B872-024C1FB72131";
shapes = (
{
closed = 1;
nodes = (
(106,0,l),
(162,0,l),
(162,750,l),
(106,750,l)
);
},
{
closed = 1;
nodes = (
(736,0,l),
(792,0,l),
(792,750,l),
(736,750,l)
);
},
{
closed = 1;
nodes = (
(132,348,l),
(776,348,l),
(776,398,l),
(132,398,l)
);
},
{
closed = 1;
nodes = (
(22,581,l),
(876,581,l),
(876,631,l),
(22,631,l)
);
}
);
width = 898;
}
);
leftKerningGroup = D2;
rightKerningGroup = H;
unicode = 294;
},
{
glyphname = Heng;
layers = (
{
anchors = (
{
name = bottom;
position = "{594, -165}";
},
{
name = center;
position = "{478, 375}";
},
{
name = top;
position = "{478, 750}";
}
);
layerId = "97350278-980A-4778-8478-A58DCFDD7560";
shapes = (
{
closed = 1;
nodes = (
(60,0,l),
(318,0,l),
(318,750,l),
(60,750,l)
);
},
{
closed = 1;
nodes = (
(206,269,l),
(739,269,l),
(739,497,l),
(206,497,l)
);
},
{
closed = 1;
nodes = (
(638,105,ls),
(638,39,o),
(603,12,o),
(540,12,cs),
(495,12,o),
(452,19,o),
(417,32,c),
(417,-158,l),
(461,-172,o),
(526,-183,o),
(594,-183,cs),
(799,-183,o),
(896,-87,o),
(896,74,cs),
(896,750,l),
(638,750,l)
);
}
);
width = 956;
},
{
anchors = (
{
name = bottom;
position = "{593, -165}";
},
{
name = center;
position = "{455, 375}";
},
{
name = top;
position = "{455, 750}";
}
);
layerId = "4A3736D9-1D75-4B42-9353-97DA234A9782";
shapes = (
{
closed = 1;
nodes = (
(84,0,l),
(216,0,l),
(216,750,l),
(84,750,l)
);
},
{
closed = 1;
nodes = (
(155,320,l),
(757,320,l),
(757,436,l),
(155,436,l)
);
},
{
closed = 1;
nodes = (
(694,49,ls),
(694,-43,o),
(667,-74,o),
(577,-74,cs),
(522,-74,o),
(470,-62,o),
(427,-41,c),
(427,-146,l),
(461,-162,o),
(523,-179,o),
(593,-179,cs),
(760,-179,o),
(826,-94,o),
(826,28,cs),
(826,750,l),
(694,750,l)
);
}
);
width = 910;
},
{
anchors = (
{
name = bottom;
position = "{593, -165}";
},
{
name = center;
position = "{440, 375}";
},
{
name = top;
position = "{440, 750}";
}
);
layerId = "8FDEF4EB-75F1-466F-B872-024C1FB72131";
shapes = (
{
closed = 1;
nodes = (
(97,0,l),
(153,0,l),
(153,750,l),
(97,750,l)
);
},
{
closed = 1;
nodes = (
(123,350,l),
(767,350,l),
(767,400,l),
(123,400,l)
);
},
{
closed = 1;
nodes = (
(727,17,ls),
(727,-89,o),
(686,-126,o),
(591,-126,cs),
(536,-126,o),
(479,-113,o),
(432,-86,c),
(432,-138,l),
(460,-156,o),
(520,-177,o),
(591,-177,cs),
(735,-177,o),
(783,-99,o),
(783,0,cs),
(783,750,l),
(727,750,l)
);
}
);
width = 880;
}
);
unicode = 42790;
},
{
glyphname = Hhook;
layers = (
{
anchors = (
{
name = bottom;
position = "{738, 0}";
},
{
name = center;
position = "{738, 375}";
},
{
name = top;
position = "{738, 750}";
},
{
name = topleft;
position = "{286, 750}";
}
);
layerId = "97350278-980A-4778-8478-A58DCFDD7560";
shapes = (
{
closed = 1;
nodes = (
(248,750,ls),
(83,750,o),
(15,673,o),
(15,555,cs),
(15,487,o),
(32,437,o),
(58,394,c),
(243,394,l),
(238,410,o),
(231,442,o),
(231,472,cs),
(231,519,o),
(252,535,o),
(295,535,cs),
(432,535,l),
(320,657,l),
(320,0,l),
(578,0,l),
(578,750,l)
);
},
{
closed = 1;
nodes = (
(898,0,l),
(1156,0,l),
(1156,750,l),
(898,750,l)
);
},
{
closed = 1;
nodes = (
(466,269,l),
(999,269,l),
(999,497,l),
(466,497,l)
);
}
);
width = 1216;
},
{
anchors = (
{
name = bottom;
position = "{652, 0}";
},
{
name = center;
position = "{652, 375}";
},
{
name = top;
position = "{652, 750}";
},
{
name = topleft;
position = "{225, 750}";
}
);
layerId = "4A3736D9-1D75-4B42-9353-97DA234A9782";
shapes = (
{
closed = 1;
nodes = (
(201,750,ls),
(85,750,o),
(23,692,o),
(23,589,cs),
(23,535,o),
(40,484,o),
(60,447,c),
(165,447,l),
(152,482,o),
(141,518,o),
(141,558,cs),
(141,617,o),
(173,638,o),
(227,638,cs),
(329,638,l),
(281,694,l),
(281,0,l),
(413,0,l),
(413,750,l)
);
},
{
closed = 1;
nodes = (
(891,0,l),
(1023,0,l),
(1023,750,l),
(891,750,l)
);
},
{
closed = 1;
nodes = (
(352,320,l),
(954,320,l),
(954,436,l),
(352,436,l)
);
}
);
width = 1107;
},
{
anchors = (
{
name = bottom;
position = "{597, 0}";
},
{
name = center;
position = "{597, 375}";
},
{
name = top;
position = "{597, 750}";
},
{
name = topleft;
position = "{185, 750}";
}
);
layerId = "8FDEF4EB-75F1-466F-B872-024C1FB72131";
shapes = (
{
closed = 1;
nodes = (
(169,750,ls),
(83,750,o),
(25,704,o),
(25,610,cs),
(25,564,o),
(44,513,o),
(59,479,c),
(114,479,l),
(95,526,o),
(82,565,o),
(82,610,cs),
(82,677,o),
(121,701,o),
(182,701,cs),
(280,701,l),
(254,727,l),
(254,0,l),
(310,0,l),
(310,750,l)
);
},
{
closed = 1;
nodes = (
(884,0,l),
(940,0,l),
(940,750,l),
(884,750,l)
);
},
{
closed = 1;
nodes = (
(280,350,l),
(924,350,l),
(924,400,l),
(280,400,l)
);
}
);
width = 1037;
}
);
unicode = 42922;
},
{
glyphname = Hturned;
layers = (
{
anchors = (
{
name = bottom;
position = "{447, 0}";
},
{
name = top;
position = "{447, 750}";
}
);
layerId = "97350278-980A-4778-8478-A58DCFDD7560";
shapes = (
{
closed = 1;
nodes = (
(55,269,l),
(313,269,l),
(313,750,l),
(55,750,l)
);
},
{
closed = 1;
nodes = (
(571,0,l),
(829,0,l),
(829,750,l),
(571,750,l)
);
},
{
closed = 1;
nodes = (
(201,269,l),
(672,269,l),
(672,497,l),
(201,497,l)
);
}
);
width = 889;
},
{
anchors = (
{
name = bottom;
position = "{409, 0}";
},
{
name = top;
position = "{409, 750}";
}
);
layerId = "4A3736D9-1D75-4B42-9353-97DA234A9782";
shapes = (
{
closed = 1;
nodes = (
(60,319,l),
(192,319,l),
(192,750,l),
(60,750,l)
);
},
{
closed = 1;
nodes = (
(607,0,l),
(739,0,l),
(739,750,l),
(607,750,l)
);
},
{
closed = 1;
nodes = (
(132,319,l),
(669,319,l),
(669,435,l),
(132,435,l)
);
}
);
width = 823;
},
{
anchors = (
{
name = bottom;
position = "{381, 0}";
},
{
name = top;
position = "{381, 750}";
}
);
layerId = "8FDEF4EB-75F1-466F-B872-024C1FB72131";
shapes = (
{
closed = 1;
nodes = (
(61,350,l),
(117,350,l),
(117,750,l),
(61,750,l)
);
},
{
closed = 1;
nodes = (
(625,0,l),
(681,0,l),
(681,750,l),
(625,750,l)
);
},
{
closed = 1;
nodes = (
(87,350,l),
(665,350,l),
(665,400,l),
(87,400,l)
);
}
);
width = 778;
}
);
unicode = 42893;
},
{
glyphname = I;
layers = (
{
anchors = (
{
name = bottom;
position = "{189, 0}";
},
{
name = ogonek;
position = "{318, 0}";
},
{
name = top;
position = "{189, 750}";
},
{
name = topleft;
position = "{6, 750}";
}
);
layerId = "97350278-980A-4778-8478-A58DCFDD7560";
shapes = (
{
closed = 1;
nodes = (
(60,0,l),
(318,0,l),
(318,750,l),
(60,750,l)
);
}
);
width = 378;
},
{
anchors = (
{
name = bottom;
position = "{150, 0}";
},
{
name = ogonek;
position = "{217, 0}";
},
{
name = top;
position = "{150, 750}";
},
{
name = topleft;
position = "{21, 750}";
}
);
layerId = "4A3736D9-1D75-4B42-9353-97DA234A9782";
shapes = (
{
closed = 1;
nodes = (
(84,0,l),
(216,0,l),
(216,750,l),
(84,750,l)
);
}
);
width = 300;
},
{
anchors = (
{
name = bottom;
position = "{125, 0}";
},
{
name = ogonek;
position = "{153, 0}";
},
{
name = top;
position = "{125, 750}";
},
{
name = topleft;
position = "{28, 750}";
}
);
layerId = "8FDEF4EB-75F1-466F-B872-024C1FB72131";
shapes = (
{
closed = 1;
nodes = (
(97,0,l),
(153,0,l),
(153,750,l),
(97,750,l)
);
}
);
width = 250;
}
);
leftKerningGroup = D2;
rightKerningGroup = H;
unicode = 73;
},
{
glyphname = IJ;
layers = (
{
anchors = (
{
name = bottom;
position = "{427, 0}";
},
{
name = top;
position = "{177, 750}";
}
);
layerId = "97350278-980A-4778-8478-A58DCFDD7560";
shapes = (
{
closed = 1;
nodes = (
(48,419,l),
(306,419,l),
(306,750,l),
(48,750,l)
);
},
{
closed = 1;
nodes = (
(52,314,ls),
(61,115,o),
(199,-18,o),
(427,-18,cs),
(658,-18,o),
(811,109,o),
(811,300,cs),
(811,750,l),
(553,750,l),
(553,314,ls),
(553,244,o),
(515,202,o),
(427,202,cs),
(337,202,o),
(304,246,o),
(304,336,cs),
(304,356,l),
(50,356,l)
);
}
);
width = 862;
},
{
anchors = (
{
name = bottom;
position = "{404, 0}";
},
{
name = top;
position = "{130, 750}";
}
);
layerId = "4A3736D9-1D75-4B42-9353-97DA234A9782";
shapes = (
{
closed = 1;
nodes = (
(64,407,l),
(196,407,l),
(196,750,l),
(64,750,l)
);
},
{
closed = 1;
nodes = (
(65,298,ls),
(65,91,o),
(202,-14,o),
(404,-14,cs),
(606,-14,o),
(745,89,o),
(745,293,cs),
(745,750,l),
(613,750,l),
(613,298,ls),
(613,174,o),
(550,100,o),
(404,100,cs),
(256,100,o),
(195,176,o),
(195,306,cs),
(195,339,l),
(65,339,l)
);
}
);
width = 820;
},
{
anchors = (
{
name = bottom;
position = "{389, 0}";
},
{
name = top;
position = "{101, 750}";
}
);
layerId = "8FDEF4EB-75F1-466F-B872-024C1FB72131";
shapes = (
{
closed = 1;
nodes = (
(73,400,l),
(129,400,l),
(129,750,l),
(73,750,l)
);
},
{
closed = 1;
nodes = (
(73,288,ls),
(73,76,o),
(203,-12,o),
(389,-12,cs),
(574,-12,o),
(704,76,o),
(704,288,cs),
(704,750,l),
(648,750,l),
(648,288,ls),
(648,130,o),
(569,37,o),
(389,37,cs),
(208,37,o),
(129,132,o),
(129,288,cs),
(129,329,l),
(73,329,l)
);
}
);
width = 793;
}
);
leftKerningGroup = U2;
rightKerningGroup = J;
unicode = 306;
},
{
glyphname = Ibreve;
layers = (
{
layerId = "97350278-980A-4778-8478-A58DCFDD7560";
shapes = (
{
closed = 1;
nodes = (
(60,0,l),
(318,0,l),
(318,750,l),
(60,750,l)
);
},
{
closed = 1;
nodes = (
(-37,982,l),
(-26,868,o),
(59,792,o),
(189,792,cs),
(319,792,o),
(404,868,o),
(415,982,c),
(241,982,l),
(237,949,o),
(221,928,o),
(189,928,cs),
(157,928,o),
(141,949,o),
(137,982,c)
);
}
);
width = 378;
},
{
layerId = "4A3736D9-1D75-4B42-9353-97DA234A9782";
shapes = (
{
closed = 1;
nodes = (
(84,0,l),
(216,0,l),
(216,750,l),
(84,750,l)
);
},
{
closed = 1;
nodes = (
(-30,963,l),
(-19,866,o),
(48,806,o),
(150,806,cs),
(252,806,o),
(318,866,o),
(329,963,c),
(235,963,l),
(226,914,o),
(198,885,o),
(150,885,cs),
(102,885,o),
(74,914,o),
(65,963,c)
);
}
);
width = 300;
},
{
layerId = "8FDEF4EB-75F1-466F-B872-024C1FB72131";
shapes = (
{
closed = 1;
nodes = (
(97,0,l),
(153,0,l),
(153,750,l),
(97,750,l)
);
},
{
closed = 1;
nodes = (
(-26,952,l),
(-15,865,o),
(40,814,o),
(125,814,cs),
(210,814,o),
(265,865,o),
(276,952,c),
(230,952,l),
(218,892,o),
(183,859,o),
(125,859,cs),
(67,859,o),
(32,892,o),
(20,952,c)
);
}
);
width = 250;
}
);
leftKerningGroup = D2;
rightKerningGroup = H;
unicode = 300;
},
{
glyphname = Icircumflex;
layers = (
{
layerId = "97350278-980A-4778-8478-A58DCFDD7560";
shapes = (
{
closed = 1;
nodes = (
(60,0,l),
(318,0,l),
(318,750,l),
(60,750,l)
);
},
{
closed = 1;
nodes = (
(-47,802,l),
(124,802,l),
(220,905,l),
(158,905,l),
(254,802,l),
(425,802,l),
(317,982,l),
(61,982,l)
);
}
);
width = 378;
},
{
layerId = "4A3736D9-1D75-4B42-9353-97DA234A9782";
shapes = (
{
closed = 1;
nodes = (
(84,0,l),
(216,0,l),
(216,750,l),
(84,750,l)
);
},
{
closed = 1;
nodes = (
(-32,811,l),
(70,811,l),
(166,913,l),
(134,913,l),
(230,811,l),
(332,811,l),
(220,963,l),
(80,963,l)
);
}
);
width = 300;
},
{
layerId = "8FDEF4EB-75F1-466F-B872-024C1FB72131";
shapes = (
{
closed = 1;
nodes = (
(97,0,l),
(153,0,l),
(153,750,l),
(97,750,l)
);
},
{
closed = 1;
nodes = (
(-24,817,l),
(36,817,l),
(132,918,l),
(118,918,l),
(214,817,l),
(274,817,l),
(159,952,l),
(91,952,l)
);
}
);
width = 250;
}
);
leftKerningGroup = D2;
rightKerningGroup = H;
unicode = 206;
},
{
glyphname = Idblgrave;
layers = (
{
layerId = "97350278-980A-4778-8478-A58DCFDD7560";
shapes = (
{
closed = 1;
nodes = (
(60,0,l),
(318,0,l),
(318,750,l),
(60,750,l)
);
},
{
closed = 1;
nodes = (
(144,982,l),
(253,802,l),
(439,802,l),
(342,982,l)
);
},
{
closed = 1;
nodes = (
(-99,982,l),
(10,802,l),
(196,802,l),
(99,982,l)
);
}
);
width = 378;
},
{
layerId = "4A3736D9-1D75-4B42-9353-97DA234A9782";
shapes = (
{
closed = 1;
nodes = (
(84,0,l),
(216,0,l),
(216,750,l),
(84,750,l)
);
},
{
closed = 1;
nodes = (
(110,963,l),
(204,811,l),
(312,811,l),
(223,963,l)
);
},
{
closed = 1;
nodes = (
(-74,963,l),
(20,811,l),
(127,811,l),
(39,963,l)
);
}
);
width = 300;
},
{
layerId = "8FDEF4EB-75F1-466F-B872-024C1FB72131";
shapes = (
{
closed = 1;
nodes = (
(97,0,l),
(153,0,l),
(153,750,l),
(97,750,l)
);
},
{
closed = 1;
nodes = (
(89,952,l),
(174,817,l),
(233,817,l),
(150,952,l)
);
},
{
closed = 1;
nodes = (
(-60,952,l),
(25,817,l),
(84,817,l),
(1,952,l)
);
}
);
width = 250;
}
);
unicode = 520;
},
{
glyphname = Idieresis;
layers = (
{
layerId = "97350278-980A-4778-8478-A58DCFDD7560";
shapes = (
{
closed = 1;
nodes = (
(60,0,l),
(318,0,l),
(318,750,l),
(60,750,l)
);
},
{
closed = 1;
nodes = (
(136,792,o),
(174,831,o),
(174,901,cs),
(174,971,o),
(136,1010,o),
(69,1010,cs),
(2,1010,o),
(-36,971,o),
(-36,901,cs),
(-36,831,o),
(2,792,o),
(69,792,cs)
);
},
{
closed = 1;
nodes = (
(376,792,o),
(414,831,o),
(414,901,cs),
(414,971,o),
(376,1010,o),
(309,1010,cs),
(242,1010,o),
(204,971,o),
(204,901,cs),
(204,831,o),
(242,792,o),
(309,792,cs)
);
}
);
width = 378;
},
{
layerId = "4A3736D9-1D75-4B42-9353-97DA234A9782";
shapes = (
{
closed = 1;
nodes = (
(84,0,l),
(216,0,l),
(216,750,l),
(84,750,l)
);
},
{
closed = 1;
nodes = (
(96,825,o),
(124,853,o),
(124,897,cs),
(124,940,o),
(96,968,o),
(53,968,cs),
(10,968,o),
(-18,940,o),
(-18,897,cs),
(-18,853,o),
(10,825,o),
(53,825,cs)
);
},
{
closed = 1;
nodes = (
(290,825,o),
(318,853,o),
(318,897,cs),
(318,940,o),
(290,968,o),
(247,968,cs),
(205,968,o),
(177,940,o),
(177,897,cs),
(177,853,o),
(205,825,o),
(247,825,cs)
);
}
);
width = 300;
},
{
layerId = "8FDEF4EB-75F1-466F-B872-024C1FB72131";
shapes = (
{
closed = 1;
nodes = (
(97,0,l),
(153,0,l),
(153,750,l),
(97,750,l)
);
},
{
closed = 1;
nodes = (
(70,845,o),
(92,867,o),
(92,894,cs),
(92,921,o),
(70,943,o),
(42,943,cs),
(14,943,o),
(-8,921,o),
(-8,894,cs),
(-8,867,o),
(14,845,o),
(42,845,cs)
);
},
{
closed = 1;
nodes = (
(236,845,o),
(258,867,o),
(258,894,cs),
(258,921,o),
(236,943,o),
(208,943,cs),
(180,943,o),
(158,921,o),
(158,894,cs),
(158,867,o),
(180,845,o),
(208,845,cs)
);
}
);
width = 250;
}
);
leftKerningGroup = D2;
rightKerningGroup = H;
unicode = 207;
},
{
glyphname = Idieresisacute;
layers = (
{
layerId = "97350278-980A-4778-8478-A58DCFDD7560";
shapes = (
{
closed = 1;
nodes = (
(60,0,l),
(318,0,l),
(318,750,l),
(60,750,l)
);
},
{
closed = 1;
nodes = (
(136,792,o),
(174,831,o),
(174,901,cs),
(174,971,o),
(136,1010,o),
(69,1010,cs),
(2,1010,o),
(-36,971,o),
(-36,901,cs),
(-36,831,o),
(2,792,o),
(69,792,cs)
);
},
{
closed = 1;
nodes = (
(376,792,o),
(414,831,o),
(414,901,cs),
(414,971,o),
(376,1010,o),
(309,1010,cs),
(242,1010,o),
(204,971,o),
(204,901,cs),
(204,831,o),
(242,792,o),
(309,792,cs)
);
},
{
closed = 1;
nodes = (
(44,1054,l),
(296,1054,l),
(476,1234,l),
(192,1234,l)
);
}
);
width = 378;
},
{
layerId = "4A3736D9-1D75-4B42-9353-97DA234A9782";
shapes = (
{
closed = 1;
nodes = (
(84,0,l),
(216,0,l),
(216,750,l),
(84,750,l)
);
},
{
closed = 1;
nodes = (
(96,825,o),
(124,853,o),
(124,897,cs),
(124,940,o),
(96,968,o),
(53,968,cs),
(10,968,o),
(-18,940,o),
(-18,897,cs),
(-18,853,o),
(10,825,o),
(53,825,cs)
);
},
{
closed = 1;
nodes = (
(290,825,o),
(318,853,o),
(318,897,cs),
(318,940,o),
(290,968,o),
(247,968,cs),
(205,968,o),
(177,940,o),
(177,897,cs),
(177,853,o),
(205,825,o),
(247,825,cs)
);
},
{
closed = 1;
nodes = (
(59,1013,l),
(195,1013,l),
(359,1165,l),
(205,1165,l)
);
}
);
width = 300;
},
{
layerId = "8FDEF4EB-75F1-466F-B872-024C1FB72131";
shapes = (
{
closed = 1;
nodes = (
(97,0,l),
(153,0,l),
(153,750,l),
(97,750,l)
);
},
{
closed = 1;
nodes = (
(70,845,o),
(92,867,o),
(92,894,cs),
(92,921,o),
(70,943,o),
(42,943,cs),
(14,943,o),
(-8,921,o),
(-8,894,cs),
(-8,867,o),
(14,845,o),
(42,845,cs)
);
},
{
closed = 1;
nodes = (
(236,845,o),
(258,867,o),
(258,894,cs),
(258,921,o),
(236,943,o),
(208,943,cs),
(180,943,o),
(158,921,o),
(158,894,cs),
(158,867,o),
(180,845,o),
(208,845,cs)
);
},
{
closed = 1;
nodes = (
(67,988,l),
(132,988,l),
(286,1123,l),
(212,1123,l)
);
}
);
width = 250;
}
);
unicode = 7726;
},
{
glyphname = Imacron;
layers = (
{
layerId = "97350278-980A-4778-8478-A58DCFDD7560";
shapes = (
{
closed = 1;
nodes = (
(60,0,l),
(318,0,l),
(318,750,l),
(60,750,l)
);
},
{
closed = 1;
nodes = (
(390,817,l),
(390,964,l),
(-12,964,l),
(-12,817,l)
);
}
);
width = 378;
},
{
layerId = "4A3736D9-1D75-4B42-9353-97DA234A9782";
shapes = (
{
closed = 1;
nodes = (
(84,0,l),
(216,0,l),
(216,750,l),
(84,750,l)
);
},
{
closed = 1;
nodes = (
(318,839,l),
(318,926,l),
(-18,926,l),
(-18,839,l)
);
}
);
width = 300;
},
{
layerId = "8FDEF4EB-75F1-466F-B872-024C1FB72131";
shapes = (
{
closed = 1;
nodes = (
(97,0,l),
(153,0,l),
(153,750,l),
(97,750,l)
);
},
{
closed = 1;
nodes = (
(273,851,l),
(273,900,l),
(-23,900,l),
(-23,851,l)
);
}
);
width = 250;
}
);
leftKerningGroup = D2;
rightKerningGroup = H;
unicode = 298;
},
{
color = 2;
glyphname = Iogonek;
layers = (
{
layerId = "97350278-980A-4778-8478-A58DCFDD7560";
shapes = (
{
closed = 1;
nodes = (
(208,12,l),
(91,-15,o),
(30,-57,o),
(30,-119,cs),
(30,-181,o),
(99,-222,o),
(202,-222,cs),
(252,-222,o),
(305,-213,o),
(323,-206,c),
(323,-82,l),
(306,-86,o),
(287,-89,o),
(268,-89,cs),
(236,-89,o),
(220,-80,o),
(220,-63,cs),
(220,-38,o),
(254,-19,o),
(318,0,c),
(295,0,l),
(295,12,l)
);
},
{
closed = 1;
nodes = (
(60,0,l),
(318,0,l),
(318,750,l),
(60,750,l)
);
}
);
width = 378;
},
{
layerId = "4A3736D9-1D75-4B42-9353-97DA234A9782";
shapes = (
{
closed = 1;
nodes = (
(144,13,l),
(69,-17,o),
(26,-57,o),
(26,-107,cs),
(26,-163,o),
(79,-197,o),
(159,-197,cs),
(193,-197,o),
(231,-191,o),
(247,-185,c),
(247,-102,l),
(231,-106,o),
(205,-108,o),
(188,-108,cs),
(148,-108,o),
(130,-98,o),
(130,-78,cs),
(130,-48,o),
(165,-24,o),
(216,0,c),
(193,0,l),
(193,13,l)
);
},
{
closed = 1;
nodes = (
(84,0,l),
(216,0,l),
(216,750,l),
(84,750,l)
);
}
);
width = 300;
},
{
layerId = "8FDEF4EB-75F1-466F-B872-024C1FB72131";
shapes = (
{
closed = 1;
nodes = (
(115,13,l),
(58,-19,o),
(21,-54,o),
(21,-100,cs),
(21,-149,o),
(64,-181,o),
(130,-181,cs),
(154,-181,o),
(183,-177,o),
(197,-172,c),
(197,-130,l),
(182,-134,o),
(152,-136,o),
(136,-136,cs),
(91,-136,o),
(69,-121,o),
(69,-92,cs),
(69,-54,o),
(107,-29,o),
(153,0,c),
(131,0,l),
(131,13,l)
);
},
{
closed = 1;
nodes = (
(97,0,l),
(153,0,l),
(153,750,l),
(97,750,l)
);
}
);
width = 250;
}
);
leftKerningGroup = D2;
rightKerningGroup = H;
unicode = 302;
},
{
glyphname = Iotaafrican;
layers = (
{
anchors = (
{
name = bottom;
position = "{147, 0}";
},
{
name = top;
position = "{147, 750}";
}
);
layerId = "4A3736D9-1D75-4B42-9353-97DA234A9782";
shapes = (
{
closed = 1;
nodes = (
(81,176,ls),
(81,54,o),
(134,-14,o),
(254,-14,cs),
(293,-14,o),
(324,-8,o),
(349,0,c),
(349,104,l),
(330,98,o),
(309,94,o),
(288,94,cs),
(233,94,o),
(213,121,o),
(213,183,cs),
(213,750,l),
(81,750,l)
);
}
);
width = 370;
},
{
anchors = (
{
name = bottom;
position = "{121, 0}";
},
{
name = top;
position = "{121, 750}";
}
);
layerId = "8FDEF4EB-75F1-466F-B872-024C1FB72131";
shapes = (
{
closed = 1;
nodes = (
(93,127,ls),
(93,40,o),
(129,-12,o),
(213,-12,cs),
(240,-12,o),
(261,-7,o),
(278,-1,c),
(278,52,l),
(263,46,o),
(243,40,o),
(223,40,cs),
(170,40,o),
(149,69,o),
(149,128,cs),
(149,750,l),
(93,750,l)
);
}
);
width = 299;
},
{
anchors = (
{
name = bottom;
position = "{181, 0}";
},
{
name = top;
position = "{184, 750}";
}
);
guides = (
{
position = "{0, 0}";
}
);
layerId = "97350278-980A-4778-8478-A58DCFDD7560";
shapes = (
{
closed = 1;
nodes = (
(54,255,ls),
(54,76,o),
(136,-18,o),
(315,-18,cs),
(372,-18,o),
(421,-10,o),
(459,1,c),
(459,188,l),
(433,180,o),
(410,175,o),
(387,175,cs),
(330,175,o),
(312,205,o),
(312,270,cs),
(312,750,l),
(54,750,l)
);
}
);
width = 478;
}
);
unicode = 406;
},
{
color = 2;
glyphname = Istroke;
layers = (
{
anchors = (
{
name = bottom;
position = "{233, 0}";
},
{
name = top;
position = "{233, 750}";
},
{
name = topleft;
position = "{54, 750}";
}
);
layerId = "97350278-980A-4778-8478-A58DCFDD7560";
shapes = (
{
closed = 1;
nodes = (
(442,300,l),
(442,470,l),
(24,470,l),
(24,300,l)
);
},
{
closed = 1;
nodes = (
(104,0,l),
(362,0,l),
(362,750,l),
(104,750,l)
);
}
);
width = 466;
},
{
anchors = (
{
name = bottom;
position = "{176, 0}";
},
{
name = top;
position = "{176, 750}";
},
{
name = topleft;
position = "{28, 750}";
}
);
layerId = "4A3736D9-1D75-4B42-9353-97DA234A9782";
shapes = (
{
closed = 1;
nodes = (
(333,338,l),
(333,436,l),
(17,436,l),
(17,338,l)
);
},
{
closed = 1;
nodes = (
(109,0,l),
(241,0,l),
(241,750,l),
(109,750,l)
);
}
);
width = 350;
},
{
anchors = (
{
name = bottom;
position = "{144, 0}";
},
{
name = top;
position = "{144, 750}";
},
{
name = topleft;
position = "{3, 750}";
}
);
layerId = "8FDEF4EB-75F1-466F-B872-024C1FB72131";
shapes = (
{
closed = 1;
nodes = (
(274,355,l),
(274,405,l),
(14,405,l),
(14,355,l)
);
},
{
closed = 1;
nodes = (
(116,0,l),
(172,0,l),
(172,750,l),
(116,750,l)
);
}
);
width = 288;
}
);
unicode = 407;
},
{
glyphname = Itilde;
layers = (
{
layerId = "97350278-980A-4778-8478-A58DCFDD7560";
shapes = (
{
closed = 1;
nodes = (
(60,0,l),
(318,0,l),
(318,750,l),
(60,750,l)
);
},
{
closed = 1;
nodes = (
(89,802,l),
(94,828,o),
(108,844,o),
(132,844,cs),
(172,844,o),
(198,800,o),
(266,800,cs),
(357,800,o),
(402,870,o),
(408,983,c),
(288,983,l),
(283,957,o),
(269,941,o),
(245,941,cs),
(205,941,o),
(179,985,o),
(111,985,cs),
(20,985,o),
(-25,915,o),
(-31,802,c)
);
}
);
width = 378;
},
{
layerId = "4A3736D9-1D75-4B42-9353-97DA234A9782";
shapes = (
{
closed = 1;
nodes = (
(84,0,l),
(216,0,l),
(216,750,l),
(84,750,l)
);
},
{
closed = 1;
nodes = (
(49,818,l),
(54,855,o),
(69,876,o),
(91,876,cs),
(130,876,o),
(157,817,o),
(219,817,cs),
(283,817,o),
(320,873,o),
(325,959,c),
(252,959,l),
(246,922,o),
(232,901,o),
(210,901,cs),
(170,901,o),
(144,960,o),
(82,960,cs),
(17,960,o),
(-20,904,o),
(-25,818,c)
);
}
);
width = 300;
},
{
layerId = "8FDEF4EB-75F1-466F-B872-024C1FB72131";
shapes = (
{
closed = 1;
nodes = (
(97,0,l),
(153,0,l),
(153,750,l),
(97,750,l)
);
},
{
closed = 1;
nodes = (
(22,828,l),
(28,871,o),
(43,896,o),
(64,896,cs),
(103,896,o),
(130,828,o),
(188,828,cs),
(236,828,o),
(268,875,o),
(273,944,c),
(228,944,l),
(222,901,o),
(207,876,o),
(186,876,cs),
(147,876,o),
(120,944,o),
(62,944,cs),
(14,944,o),
(-18,897,o),
(-23,828,c)
);
}
);
width = 250;
}
);
leftKerningGroup = D2;
rightKerningGroup = H;
unicode = 296;
},
{
glyphname = Itildebelow;
layers = (
{
layerId = "97350278-980A-4778-8478-A58DCFDD7560";
shapes = (
{
closed = 1;
nodes = (
(60,0,l),
(318,0,l),
(318,750,l),
(60,750,l)
);
},
{
closed = 1;
nodes = (
(89,-225,l),
(94,-199,o),
(108,-183,o),
(132,-183,cs),
(172,-183,o),
(198,-227,o),
(266,-227,cs),
(357,-227,o),
(402,-157,o),
(408,-44,c),
(288,-44,l),
(283,-70,o),
(269,-86,o),
(245,-86,cs),
(205,-86,o),
(179,-42,o),
(111,-42,cs),
(20,-42,o),
(-25,-112,o),
(-31,-225,c)
);
}
);
width = 378;
},
{
layerId = "4A3736D9-1D75-4B42-9353-97DA234A9782";
shapes = (
{
closed = 1;
nodes = (
(84,0,l),
(216,0,l),
(216,750,l),
(84,750,l)
);
},
{
closed = 1;
nodes = (
(49,-181,l),
(54,-144,o),
(69,-123,o),
(91,-123,cs),
(130,-123,o),
(157,-182,o),
(219,-182,cs),
(283,-182,o),
(320,-126,o),
(325,-40,c),
(252,-40,l),
(246,-77,o),
(232,-98,o),
(210,-98,cs),
(170,-98,o),
(144,-39,o),
(82,-39,cs),
(17,-39,o),
(-20,-95,o),
(-25,-181,c)
);
}
);
width = 300;
},
{
layerId = "8FDEF4EB-75F1-466F-B872-024C1FB72131";
shapes = (
{
closed = 1;
nodes = (
(97,0,l),
(153,0,l),
(153,750,l),
(97,750,l)
);
},
{
closed = 1;
nodes = (
(22,-165,l),
(28,-122,o),
(43,-97,o),
(64,-97,cs),
(103,-97,o),
(130,-165,o),
(188,-165,cs),
(236,-165,o),
(268,-118,o),
(273,-49,c),
(228,-49,l),
(222,-92,o),
(207,-117,o),
(186,-117,cs),
(147,-117,o),
(120,-49,o),
(62,-49,cs),
(14,-49,o),
(-18,-96,o),
(-23,-165,c)
);
}
);
width = 250;
}
);
unicode = 7724;
},
{
glyphname = J;
layers = (
{
anchors = (
{
name = bottom;
position = "{407, 0}";
},
{
name = top;
position = "{644, 750}";
}
);
guides = (
{
angle = 177.274;
position = "{205, 962}";
}
);
layerId = "97350278-980A-4778-8478-A58DCFDD7560";
shapes = (
{
closed = 1;
nodes = (
(15,334,l),
(15,123,o),
(162,-18,o),
(389,-18,cs),
(620,-18,o),
(773,117,o),
(773,320,cs),
(773,750,l),
(515,750,l),
(515,334,ls),
(515,251,o),
(477,202,o),
(389,202,cs),
(298,202,o),
(265,253,o),
(265,356,cs),
(265,376,l),
(13,376,l)
);
}
);
width = 824;
},
{
anchors = (
{
name = bottom;
position = "{377, 0}";
},
{
name = top;
position = "{638, 750}";
}
);
layerId = "4A3736D9-1D75-4B42-9353-97DA234A9782";
shapes = (
{
closed = 1;
nodes = (
(25,318,ls),
(25,98,o),
(162,-14,o),
(363,-14,cs),
(565,-14,o),
(704,96,o),
(704,313,cs),
(704,750,l),
(572,750,l),
(572,318,ls),
(572,184,o),
(509,104,o),
(363,104,cs),
(216,104,o),
(155,186,o),
(155,326,cs),
(155,359,l),
(25,359,l)
);
}
);
width = 779;
},
{
anchors = (
{
name = bottom;
position = "{359, 0}";
},
{
name = top;
position = "{634, 750}";
}
);
guides = (
{
angle = 177.614;
position = "{136, 641}";
},
{
position = "{0, 750}";
}
);
layerId = "8FDEF4EB-75F1-466F-B872-024C1FB72131";
shapes = (
{
closed = 1;
nodes = (
(32,308,ls),
(32,82,o),
(162,-12,o),
(347,-12,cs),
(532,-12,o),
(662,82,o),
(662,308,cs),
(662,750,l),
(606,750,l),
(606,308,ls),
(606,139,o),
(527,40,o),
(347,40,cs),
(166,40,o),
(87,142,o),
(87,308,cs),
(87,349,l),
(32,349,l)
);
}
);
width = 750;
}
);
leftKerningGroup = J2;
rightKerningGroup = J;
unicode = 74;
},
{
glyphname = Jcircumflex;
layers = (
{
layerId = "97350278-980A-4778-8478-A58DCFDD7560";
shapes = (
{
closed = 1;
nodes = (
(15,334,l),
(15,123,o),
(162,-18,o),
(389,-18,cs),
(620,-18,o),
(773,117,o),
(773,320,cs),
(773,750,l),
(515,750,l),
(515,334,ls),
(515,251,o),
(477,202,o),
(389,202,cs),
(298,202,o),
(265,253,o),
(265,356,cs),
(265,376,l),
(13,376,l)
);
},
{
closed = 1;
nodes = (
(408,802,l),
(579,802,l),
(675,905,l),
(613,905,l),
(709,802,l),
(880,802,l),
(772,982,l),
(516,982,l)
);
}
);
width = 824;
},
{
layerId = "4A3736D9-1D75-4B42-9353-97DA234A9782";
shapes = (
{
closed = 1;
nodes = (
(25,318,ls),
(25,98,o),
(162,-14,o),
(363,-14,cs),
(565,-14,o),
(704,96,o),
(704,313,cs),
(704,750,l),
(572,750,l),
(572,318,ls),
(572,184,o),
(509,104,o),
(363,104,cs),
(216,104,o),
(155,186,o),
(155,326,cs),
(155,359,l),
(25,359,l)
);
},
{
closed = 1;
nodes = (
(456,811,l),
(558,811,l),
(654,913,l),
(622,913,l),
(718,811,l),
(820,811,l),
(708,963,l),
(568,963,l)
);
}
);
width = 779;
},
{
layerId = "8FDEF4EB-75F1-466F-B872-024C1FB72131";
shapes = (
{
closed = 1;
nodes = (
(32,308,ls),
(32,82,o),
(162,-12,o),
(347,-12,cs),
(532,-12,o),
(662,82,o),
(662,308,cs),
(662,750,l),
(606,750,l),
(606,308,ls),
(606,139,o),
(527,40,o),
(347,40,cs),
(166,40,o),
(87,142,o),
(87,308,cs),
(87,349,l),
(32,349,l)
);
},
{
closed = 1;
nodes = (
(485,817,l),
(545,817,l),
(641,918,l),
(627,918,l),
(723,817,l),
(783,817,l),
(668,952,l),
(600,952,l)
);
}
);
width = 750;
}
);
leftKerningGroup = J2;
rightKerningGroup = J;
unicode = 308;
},
{
glyphname = Jcrossedtail;
layers = (
{
anchors = (
{
name = bottom;
position = "{344, 0}";
},
{
name = top;
position = "{639, 750}";
}
);
layerId = "4A3736D9-1D75-4B42-9353-97DA234A9782";
shapes = (
{
closed = 1;
nodes = (
(705,750,l),
(573,750,l),
(573,315,ls),
(573,174,o),
(502,102,o),
(338,102,cs),
(212,102,o),
(151,140,o),
(151,189,cs),
(151,241,o),
(215,280,o),
(349,280,cs),
(526,280,o),
(696,194,o),
(794,99,c),
(794,226,l),
(701,304,o),
(528,386,o),
(347,386,cs),
(144,386,o),
(17,316,o),
(17,191,cs),
(17,77,o),
(139,-14,o),
(338,-14,cs),
(580,-14,o),
(705,107,o),
(705,313,cs)
);
}
);
width = 836;
},
{
anchors = (
{
name = bottom;
position = "{332, 0}";
},
{
name = top;
position = "{623, 750}";
}
);
layerId = "8FDEF4EB-75F1-466F-B872-024C1FB72131";
shapes = (
{
closed = 1;
nodes = (
(651,750,l),
(595,750,l),
(595,308,ls),
(595,137,o),
(503,38,o),
(307,38,cs),
(146,38,o),
(78,102,o),
(78,167,cs),
(78,239,o),
(150,296,o),
(318,296,cs),
(507,296,o),
(667,205,o),
(758,109,c),
(758,172,l),
(663,271,o),
(503,345,o),
(318,345,cs),
(121,345,o),
(21,268,o),
(21,167,cs),
(21,77,o),
(109,-12,o),
(307,-12,cs),
(550,-12,o),
(651,121,o),
(651,308,cs)
);
}
);
width = 795;
},
{
anchors = (
{
name = bottom;
position = "{405, 0}";
},
{
name = top;
position = "{663, 750}";
}
);
layerId = "97350278-980A-4778-8478-A58DCFDD7560";
shapes = (
{
closed = 1;
nodes = (
(792,750,l),
(534,750,l),
(534,303,ls),
(534,225,o),
(478,177,o),
(369,177,cs),
(293,177,o),
(262,200,o),
(262,227,cs),
(262,256,o),
(298,281,o),
(380,281,cs),
(535,281,o),
(733,199,o),
(850,94,c),
(850,293,l),
(724,380,o),
(564,455,o),
(380,455,cs),
(108,455,o),
(10,339,o),
(10,221,cs),
(10,97,o),
(119,-18,o),
(380,-18,cs),
(663,-18,o),
(792,131,o),
(792,320,cs)
);
}
);
width = 888;
}
);
unicode = 42930;
},
{
color = 2;
glyphname = Jstroke;
layers = (
{
layerId = "97350278-980A-4778-8478-A58DCFDD7560";
shapes = (
{
closed = 1;
nodes = (
(393,359,l),
(853,359,l),
(853,529,l),
(393,529,l)
);
},
{
closed = 1;
nodes = (
(15,334,l),
(15,123,o),
(162,-18,o),
(389,-18,cs),
(620,-18,o),
(773,117,o),
(773,320,cs),
(773,750,l),
(515,750,l),
(515,334,ls),
(515,251,o),
(477,202,o),
(389,202,cs),
(298,202,o),
(265,253,o),
(265,356,cs),
(265,376,l),
(13,376,l)
);
}
);
width = 881;
},
{
layerId = "4A3736D9-1D75-4B42-9353-97DA234A9782";
shapes = (
{
closed = 1;
nodes = (
(363,391,l),
(797,391,l),
(797,489,l),
(363,489,l)
);
},
{
closed = 1;
nodes = (
(25,318,ls),
(25,98,o),
(162,-14,o),
(363,-14,cs),
(565,-14,o),
(704,96,o),
(704,313,cs),
(704,750,l),
(572,750,l),
(572,318,ls),
(572,184,o),
(509,104,o),
(363,104,cs),
(216,104,o),
(155,186,o),
(155,326,cs),
(155,359,l),
(25,359,l)
);
}
);
width = 817;
},
{
layerId = "8FDEF4EB-75F1-466F-B872-024C1FB72131";
shapes = (
{
closed = 1;
nodes = (
(345,415,l),
(764,415,l),
(764,465,l),
(345,465,l)
);
},
{
closed = 1;
nodes = (
(32,308,ls),
(32,82,o),
(162,-12,o),
(347,-12,cs),
(532,-12,o),
(662,82,o),
(662,308,cs),
(662,750,l),
(606,750,l),
(606,308,ls),
(606,139,o),
(527,40,o),
(347,40,cs),
(166,40,o),
(87,142,o),
(87,308,cs),
(87,349,l),
(32,349,l)
);
}
);
width = 777;
}
);
unicode = 584;
},
{
glyphname = K;
layers = (
{
anchors = (
{
name = bottom;
position = "{463, 0}";
},
{
name = top;
position = "{473, 750}";
}
);
layerId = "97350278-980A-4778-8478-A58DCFDD7560";
shapes = (
{
closed = 1;
nodes = (
(60,0,l),
(60,750,l),
(316,750,l),
(316,0,l)
);
},
{
closed = 1;
nodes = (
(377,383,l),
(674,750,l),
(954,750,l),
(654,397,l),
(964,0,l),
(662,0,l)
);
},
{
closed = 1;
nodes = (
(206,497,l),
(627,497,l),
(627,269,l),
(206,269,l)
);
}
);
width = 964;
},
{
anchors = (
{
name = bottom;
position = "{439, 0}";
},
{
name = top;
position = "{442, 750}";
}
);
layerId = "4A3736D9-1D75-4B42-9353-97DA234A9782";
shapes = (
{
closed = 1;
nodes = (
(84,0,l),
(84,750,l),
(216,750,l),
(216,0,l)
);
},
{
closed = 1;
nodes = (
(361,384,l),
(678,750,l),
(831,750,l),
(518,391,l),
(842,0,l),
(681,0,l)
);
},
{
closed = 1;
nodes = (
(155,436,l),
(487,436,l),
(487,320,l),
(155,320,l)
);
}
);
width = 842;
},
{
anchors = (
{
name = bottom;
position = "{422, 0}";
},
{
name = top;
position = "{422, 750}";
}
);
layerId = "8FDEF4EB-75F1-466F-B872-024C1FB72131";
shapes = (
{
closed = 1;
nodes = (
(97,0,l),
(97,750,l),
(153,750,l),
(153,0,l)
);
},
{
closed = 1;
nodes = (
(384,374,l),
(709,750,l),
(780,750,l),
(458,376,l),
(792,0,l),
(721,0,l)
);
},
{
closed = 1;
nodes = (
(123,400,l),
(437,400,l),
(437,350,l),
(123,350,l)
);
}
);
width = 792;
}
);
leftKerningGroup = D2;
rightKerningGroup = K;
unicode = 75;
},
{
glyphname = Khook;
layers = (
{
anchors = (
{
name = bottom;
position = "{471, 0}";
},
{
name = top;
position = "{471, 750}";
}
);
guides = (
{
angle = 18.435;
position = "{904, -1}";
}
);
layerId = "97350278-980A-4778-8478-A58DCFDD7560";
shapes = (
{
closed = 1;
nodes = (
(612,0,l),
(905,0,l),
(610,494,l),
(420,345,l)
);
},
{
closed = 1;
nodes = (
(294,0,l),
(702,527,ls),
(728,560,o),
(753,579,o),
(800,579,cs),
(827,579,o),
(853,574,o),
(888,562,c),
(888,749,l),
(846,760,o),
(806,768,o),
(754,768,cs),
(639,768,o),
(586,721,o),
(535,651,cs),
(251,256,l),
(316,201,l),
(316,750,l),
(60,750,l),
(60,0,l)
);
}
);
width = 915;
},
{
anchors = (
{
name = bottom;
position = "{443, 0}";
},
{
name = top;
position = "{430, 750}";
}
);
guides = (
{
angle = 9.462;
position = "{833, 0}";
}
);
layerId = "4A3736D9-1D75-4B42-9353-97DA234A9782";
shapes = (
{
closed = 1;
nodes = (
(680,0,l),
(833,0,l),
(518,475,l),
(427,385,l)
);
},
{
closed = 1;
nodes = (
(202,0,l),
(669,602,ls),
(691,630,o),
(714,655,o),
(762,655,cs),
(784,655,o),
(802,652,o),
(833,646,c),
(833,750,l),
(811,757,o),
(781,764,o),
(744,764,cs),
(669,764,o),
(628,730,o),
(591,682,cs),
(174,136,l),
(216,111,l),
(216,750,l),
(84,750,l),
(84,0,l)
);
}
);
width = 850;
},
{
anchors = (
{
name = bottom;
position = "{423, 0}";
},
{
name = top;
position = "{403, 750}";
}
);
guides = (
{
position = "{0, 381}";
}
);
layerId = "8FDEF4EB-75F1-466F-B872-024C1FB72131";
shapes = (
{
closed = 1;
nodes = (
(721,0,l),
(787,0,l),
(457,464,l),
(424,409,l)
);
},
{
closed = 1;
nodes = (
(144,0,l),
(640,668,ls),
(659,693,o),
(681,710,o),
(714,710,cs),
(738,710,o),
(756,703,o),
(778,694,c),
(778,748,l),
(761,755,o),
(739,762,o),
(714,762,cs),
(657,762,o),
(627,735,o),
(602,701,cs),
(128,62,l),
(153,56,l),
(153,750,l),
(97,750,l),
(97,0,l)
);
}
);
width = 798;
}
);
unicode = 408;
},
{
glyphname = L;
layers = (
{
anchors = (
{
name = bottom;
position = "{420, 0}";
},
{
name = center;
position = "{390, 375}";
},
{
name = top;
position = "{189, 750}";
},
{
name = topright;
position = "{301, 555}";
}
);
guides = (
{
angle = 18.435;
position = "{410, 0}";
}
);
layerId = "97350278-980A-4778-8478-A58DCFDD7560";
shapes = (
{
closed = 1;
nodes = (
(60,750,l),
(60,0,l),
(760,0,l),
(760,230,l),
(202,230,l),
(318,114,l),
(318,750,l)
);
}
);
width = 781;
},
{
anchors = (
{
name = bottom;
position = "{423, 0}";
},
{
name = center;
position = "{383, 375}";
},
{
name = top;
position = "{150, 750}";
},
{
name = topright;
position = "{309, 546}";
}
);
layerId = "4A3736D9-1D75-4B42-9353-97DA234A9782";
shapes = (
{
closed = 1;
nodes = (
(84,750,l),
(84,0,l),
(722,0,l),
(722,116,l),
(157,116,l),
(216,59,l),
(216,750,l)
);
}
);
width = 738;
},
{
anchors = (
{
name = bottom;
position = "{407, 0}";
},
{
name = center;
position = "{377, 375}";
},
{
name = top;
position = "{125, 750}";
},
{
name = topright;
position = "{312, 540}";
}
);
guides = (
{
angle = 7.125;
position = "{231, 641}";
},
{
position = "{0, 750}";
},
{
position = "{0, 0}";
}
);
layerId = "8FDEF4EB-75F1-466F-B872-024C1FB72131";
shapes = (
{
closed = 1;
nodes = (
(97,750,l),
(97,0,l),
(697,0,l),
(697,50,l),
(128,50,l),
(153,25,l),
(153,750,l)
);
}
);
width = 710;
}
);
leftKerningGroup = D2;
rightKerningGroup = L;
unicode = 76;
},
{
color = 2;
glyphname = Lbar;
layers = (
{
layerId = "97350278-980A-4778-8478-A58DCFDD7560";
shapes = (
{
closed = 1;
nodes = (
(24,345,l),
(576,345,l),
(576,515,l),
(24,515,l)
);
},
{
closed = 1;
nodes = (
(104,750,l),
(104,0,l),
(804,0,l),
(804,230,l),
(246,230,l),
(362,114,l),
(362,750,l)
);
}
);
width = 825;
},
{
layerId = "4A3736D9-1D75-4B42-9353-97DA234A9782";
shapes = (
{
closed = 1;
nodes = (
(18,362,l),
(508,362,l),
(508,460,l),
(18,460,l)
);
},
{
closed = 1;
nodes = (
(110,750,l),
(110,0,l),
(748,0,l),
(748,116,l),
(183,116,l),
(242,59,l),
(242,750,l)
);
}
);
width = 765;
},
{
layerId = "8FDEF4EB-75F1-466F-B872-024C1FB72131";
shapes = (
{
closed = 1;
nodes = (
(14,375,l),
(472,375,l),
(472,425,l),
(14,425,l)
);
},
{
closed = 1;
nodes = (
(116,750,l),
(116,0,l),
(716,0,l),
(716,50,l),
(147,50,l),
(172,25,l),
(172,750,l)
);
}
);
width = 729;
}
);
unicode = 573;
},
{
color = 2;
glyphname = Lbelt;
layers = (
{
layerId = "97350278-980A-4778-8478-A58DCFDD7560";
shapes = (
{
closed = 1;
nodes = (
(65,594,o),
(3,528,o),
(3,438,cs),
(3,336,o),
(82,275,o),
(223,275,cs),
(271,275,o),
(318,282,o),
(364,290,c),
(453,312,l),
(528,334,o),
(605,364,o),
(685,402,c),
(685,550,l),
(595,500,o),
(516,468,o),
(446,447,c),
(351,419,l),
(306,409,o),
(262,401,o),
(226,401,cs),
(178,401,o),
(158,418,o),
(158,445,cs),
(158,468,o),
(175,482,o),
(207,482,cs),
(251,482,o),
(285,453,o),
(285,398,cs),
(285,262,l),
(378,262,l),
(378,390,ls),
(378,493,o),
(313,594,o),
(176,594,cs)
);
},
{
closed = 1;
nodes = (
(257,750,l),
(257,0,l),
(957,0,l),
(957,230,l),
(399,230,l),
(515,114,l),
(515,750,l)
);
}
);
width = 978;
},
{
layerId = "4A3736D9-1D75-4B42-9353-97DA234A9782";
shapes = (
{
closed = 1;
nodes = (
(60,546,o),
(11,490,o),
(11,416,cs),
(11,329,o),
(79,275,o),
(191,275,cs),
(221,275,o),
(256,279,o),
(284,284,c),
(329,295,l),
(408,315,o),
(490,357,o),
(558,404,c),
(558,509,l),
(473,450,o),
(399,410,o),
(327,391,c),
(278,376,l),
(249,370,o),
(223,366,o),
(197,366,cs),
(132,366,o),
(110,390,o),
(110,418,cs),
(110,444,o),
(128,462,o),
(163,462,cs),
(207,462,o),
(250,434,o),
(250,363,cs),
(250,258,l),
(306,258,l),
(306,374,ls),
(306,478,o),
(249,546,o),
(150,546,cs)
);
},
{
closed = 1;
nodes = (
(230,750,l),
(230,0,l),
(868,0,l),
(868,116,l),
(303,116,l),
(362,59,l),
(362,750,l)
);
}
);
width = 884;
},
{
layerId = "8FDEF4EB-75F1-466F-B872-024C1FB72131";
shapes = (
{
closed = 1;
nodes = (
(55,500,o),
(15,460,o),
(15,403,cs),
(15,339,o),
(66,296,o),
(155,296,cs),
(174,296,o),
(201,298,o),
(218,301,c),
(237,305,l),
(318,324,o),
(403,373,o),
(464,426,c),
(464,484,l),
(382,419,o),
(310,374,o),
(237,356,c),
(217,350,l),
(197,346,o),
(183,345,o),
(165,345,cs),
(93,345,o),
(69,371,o),
(69,404,cs),
(69,430,o),
(86,450,o),
(125,450,cs),
(175,450,o),
(211,413,o),
(211,342,cs),
(211,256,l),
(245,256,l),
(245,364,ls),
(245,447,o),
(198,500,o),
(122,500,cs)
);
},
{
closed = 1;
nodes = (
(197,750,l),
(197,0,l),
(797,0,l),
(797,50,l),
(228,50,l),
(253,25,l),
(253,750,l)
);
}
);
width = 810;
}
);
unicode = 42925;
},
{
color = 2;
glyphname = Lslash;
layers = (
{
layerId = "97350278-980A-4778-8478-A58DCFDD7560";
shapes = (
{
closed = 1;
nodes = (
(36,291,l),
(554,426,l),
(554,596,l),
(36,461,l)
);
},
{
closed = 1;
nodes = (
(88,750,l),
(88,0,l),
(788,0,l),
(788,230,l),
(230,230,l),
(346,114,l),
(346,750,l)
);
}
);
width = 809;
},
{
layerId = "4A3736D9-1D75-4B42-9353-97DA234A9782";
shapes = (
{
closed = 1;
nodes = (
(36,315,l),
(517,444,l),
(517,541,l),
(36,413,l)
);
},
{
closed = 1;
nodes = (
(127,750,l),
(127,0,l),
(765,0,l),
(765,116,l),
(200,116,l),
(259,59,l),
(259,750,l)
);
}
);
width = 782;
},
{
layerId = "8FDEF4EB-75F1-466F-B872-024C1FB72131";
shapes = (
{
closed = 1;
nodes = (
(32,327,l),
(490,452,l),
(490,504,l),
(32,379,l)
);
},
{
closed = 1;
nodes = (
(146,750,l),
(146,0,l),
(746,0,l),
(746,50,l),
(177,50,l),
(202,25,l),
(202,750,l)
);
}
);
width = 759;
}
);
rightKerningGroup = L;
unicode = 321;
},
{
glyphname = M;
layers = (
{
anchors = (
{
name = bottom;
position = "{638, 0}";
},
{
name = top;
position = "{638, 750}";
}
);
guides = (
{
angle = 7.944;
position = "{684, 501}";
}
);
layerId = "97350278-980A-4778-8478-A58DCFDD7560";
shapes = (
{
closed = 1;
nodes = (
(816,750,l),
(594,139,l),
(683,139,l),
(459,750,l),
(60,750,l),
(60,0,l),
(305,0,l),
(305,651,l),
(258,644,l),
(510,0,l),
(765,0,l),
(1017,647,l),
(970,653,l),
(970,0,l),
(1215,0,l),
(1215,750,l)
);
}
);
width = 1275;
},
{
anchors = (
{
name = bottom;
position = "{589, 0}";
},
{
name = top;
position = "{589, 750}";
}
);
layerId = "4A3736D9-1D75-4B42-9353-97DA234A9782";
shapes = (
{
closed = 1;
nodes = (
(891,750,l),
(556,57,l),
(622,57,l),
(286,750,l),
(84,750,l),
(84,0,l),
(210,0,l),
(210,709,l),
(169,707,l),
(518,0,l),
(659,0,l),
(1008,708,l),
(967,710,l),
(967,0,l),
(1093,0,l),
(1093,750,l)
);
}
);
width = 1177;
},
{
anchors = (
{
name = bottom;
position = "{557, 0}";
},
{
name = top;
position = "{557, 750}";
}
);
guides = (
{
position = "{0, 0}";
}
);
layerId = "8FDEF4EB-75F1-466F-B872-024C1FB72131";
shapes = (
{
closed = 1;
nodes = (
(935,750,l),
(532,7,l),
(583,7,l),
(179,750,l),
(97,750,l),
(97,0,l),
(151,0,l),
(151,745,l),
(119,745,l),
(528,0,l),
(586,0,l),
(995,745,l),
(963,745,l),
(963,0,l),
(1017,0,l),
(1017,750,l)
);
}
);
width = 1114;
}
);
leftKerningGroup = D2;
rightKerningGroup = H;
unicode = 77;
},
{
glyphname = Mhook;
layers = (
{
anchors = (
{
name = bottom;
position = "{883, -165}";
},
{
name = top;
position = "{589, 750}";
}
);
layerId = "4A3736D9-1D75-4B42-9353-97DA234A9782";
shapes = (
{
closed = 1;
nodes = (
(967,53,ls),
(967,-31,o),
(930,-71,o),
(855,-71,cs),
(816,-71,o),
(785,-62,o),
(760,-53,c),
(760,-157,l),
(796,-172,o),
(840,-179,o),
(884,-179,cs),
(1026,-179,o),
(1093,-98,o),
(1093,39,cs),
(1093,750,l),
(891,750,l),
(556,57,l),
(622,57,l),
(286,750,l),
(84,750,l),
(84,0,l),
(210,0,l),
(210,709,l),
(169,707,l),
(518,0,l),
(659,0,l),
(1008,708,l),
(967,710,l)
);
}
);
width = 1177;
},
{
anchors = (
{
name = bottom;
position = "{846, -165}";
},
{
name = top;
position = "{557, 750}";
}
);
layerId = "8FDEF4EB-75F1-466F-B872-024C1FB72131";
shapes = (
{
closed = 1;
nodes = (
(963,21,ls),
(963,-79,o),
(921,-125,o),
(838,-125,cs),
(799,-125,o),
(759,-108,o),
(734,-92,c),
(734,-147,l),
(760,-163,o),
(801,-177,o),
(843,-177,cs),
(957,-177,o),
(1017,-103,o),
(1017,8,cs),
(1017,750,l),
(935,750,l),
(532,7,l),
(583,7,l),
(179,750,l),
(97,750,l),
(97,0,l),
(151,0,l),
(151,745,l),
(119,745,l),
(528,0,l),
(586,0,l),
(995,745,l),
(963,745,l)
);
}
);
width = 1114;
},
{
anchors = (
{
name = bottom;
position = "{949, -165}";
},
{
name = top;
position = "{638, 750}";
}
);
layerId = "97350278-980A-4778-8478-A58DCFDD7560";
shapes = (
{
closed = 1;
nodes = (
(970,105,ls),
(970,45,o),
(946,10,o),
(884,10,cs),
(852,10,o),
(823,16,o),
(800,23,c),
(800,-164,l),
(843,-177,o),
(901,-183,o),
(949,-183,cs),
(1135,-183,o),
(1215,-89,o),
(1215,90,cs),
(1215,750,l),
(816,750,l),
(594,139,l),
(683,139,l),
(459,750,l),
(60,750,l),
(60,0,l),
(305,0,l),
(305,651,l),
(258,644,l),
(510,0,l),
(765,0,l),
(1017,647,l),
(970,653,l)
);
}
);
width = 1275;
}
);
unicode = 11374;
},
{
glyphname = Mturned;
layers = (
{
anchors = (
{
name = bottom;
position = "{580, 184}";
},
{
name = top;
position = "{587, 750}";
}
);
layerId = "4A3736D9-1D75-4B42-9353-97DA234A9782";
shapes = (
{
closed = 1;
nodes = (
(1096,184,l),
(1096,750,l),
(964,750,l),
(964,204,l),
(964,0,l),
(1096,0,l)
);
},
{
closed = 1;
nodes = (
(891,-14,o),
(993,90,o),
(1010,265,c),
(964,290,l),
(964,177,o),
(899,102,o),
(798,102,cs),
(704,102,o),
(653,162,o),
(653,273,cs),
(653,750,l),
(521,750,l),
(521,253,ls),
(521,86,o),
(607,-14,o),
(755,-14,cs)
);
},
{
closed = 1;
nodes = (
(451,-14,o),
(554,90,o),
(571,265,c),
(521,290,l),
(521,177,o),
(456,102,o),
(355,102,cs),
(261,102,o),
(210,162,o),
(210,273,cs),
(210,750,l),
(78,750,l),
(78,253,ls),
(78,86,o),
(165,-14,o),
(315,-14,cs)
);
}
);
width = 1185;
},
{
anchors = (
{
name = bottom;
position = "{560, 190}";
},
{
name = top;
position = "{562, 750}";
}
);
layerId = "8FDEF4EB-75F1-466F-B872-024C1FB72131";
shapes = (
{
closed = 1;
nodes = (
(1035,171,l),
(1035,750,l),
(979,750,l),
(979,179,l),
(979,0,l),
(1035,0,l)
);
},
{
closed = 1;
nodes = (
(899,-12,o),
(997,95,o),
(1007,256,c),
(979,283,l),
(979,139,o),
(896,40,o),
(771,40,cs),
(653,40,o),
(591,117,o),
(591,265,cs),
(591,750,l),
(535,750,l),
(535,254,ls),
(535,84,o),
(616,-12,o),
(758,-12,cs)
);
},
{
closed = 1;
nodes = (
(455,-12,o),
(553,95,o),
(563,256,c),
(535,283,l),
(535,139,o),
(452,40,o),
(327,40,cs),
(209,40,o),
(147,117,o),
(147,265,cs),
(147,750,l),
(91,750,l),
(91,254,ls),
(91,84,o),
(172,-12,o),
(314,-12,cs)
);
}
);
width = 1136;
},
{
anchors = (
{
name = bottom;
position = "{617, 175}";
},
{
name = top;
position = "{625, 750}";
}
);
layerId = "97350278-980A-4778-8478-A58DCFDD7560";
shapes = (
{
closed = 1;
nodes = (
(1200,206,l),
(1200,750,l),
(942,750,l),
(942,255,l),
(942,0,l),
(1200,0,l)
);
},
{
closed = 1;
nodes = (
(880,-18,o),
(989,78,o),
(1017,273,c),
(942,311,l),
(942,239,o),
(907,197,o),
(845,197,cs),
(788,197,o),
(756,233,o),
(756,297,cs),
(756,750,l),
(498,750,l),
(498,261,ls),
(498,93,o),
(591,-18,o),
(753,-18,cs)
);
},
{
closed = 1;
nodes = (
(437,-18,o),
(545,78,o),
(573,273,c),
(498,311,l),
(498,239,o),
(463,197,o),
(401,197,cs),
(344,197,o),
(312,233,o),
(312,297,cs),
(312,750,l),
(54,750,l),
(54,251,ls),
(54,89,o),
(148,-18,o),
(310,-18,cs)
);
}
);
width = 1271;
}
);
unicode = 412;
},
{
glyphname = N;
layers = (
{
anchors = (
{
name = bottom;
position = "{498, 0}";
},
{
name = top;
position = "{512, 750}";
}
);
guides = (
{
angle = 7.944;
position = "{649, 501}";
}
);
layerId = "97350278-980A-4778-8478-A58DCFDD7560";
shapes = (
{
closed = 1;
nodes = (
(393,750,l),
(60,750,l),
(60,0,l),
(310,0,l),
(310,595,l),
(240,578,l),
(612,0,l),
(935,0,l),
(935,750,l),
(685,750,l),
(685,171,l),
(755,188,l)
);
}
);
width = 995;
},
{
anchors = (
{
name = bottom;
position = "{469, 0}";
},
{
name = top;
position = "{481, 750}";
}
);
layerId = "4A3736D9-1D75-4B42-9353-97DA234A9782";
shapes = (
{
closed = 1;
nodes = (
(256,750,l),
(84,750,l),
(84,0,l),
(212,0,l),
(212,682,l),
(159,676,l),
(685,0,l),
(853,0,l),
(853,750,l),
(725,750,l),
(725,74,l),
(779,80,l)
);
}
);
width = 937;
},
{
anchors = (
{
name = bottom;
position = "{450, 0}";
},
{
name = top;
position = "{462, 750}";
}
);
guides = (
{
angle = 3.582;
position = "{623, 391}";
}
);
layerId = "8FDEF4EB-75F1-466F-B872-024C1FB72131";
shapes = (
{
closed = 1;
nodes = (
(170,750,l),
(97,750,l),
(97,0,l),
(151,0,l),
(151,736,l),
(112,736,l),
(729,0,l),
(802,0,l),
(802,750,l),
(748,750,l),
(748,14,l),
(787,14,l)
);
}
);
width = 899;
}
);
leftKerningGroup = D2;
rightKerningGroup = H;
unicode = 78;
},
{
glyphname = Nhookleft;
layers = (
{
anchors = (
{
name = bottom;
position = "{469, 0}";
},
{
name = top;
position = "{469, 750}";
}
);
layerId = "4A3736D9-1D75-4B42-9353-97DA234A9782";
shapes = (
{
closed = 1;
nodes = (
(84,55,ls),
(84,-31,o),
(48,-70,o),
(-34,-70,cs),
(-66,-70,o),
(-97,-64,o),
(-123,-57,c),
(-123,-161,l),
(-89,-172,o),
(-54,-179,o),
(-11,-179,cs),
(137,-179,o),
(212,-98,o),
(212,47,cs),
(212,682,l),
(160,676,l),
(685,0,l),
(853,0,l),
(853,750,l),
(725,750,l),
(725,74,l),
(778,80,l),
(256,750,l),
(84,750,l)
);
}
);
width = 937;
},
{
anchors = (
{
name = bottom;
position = "{450, 0}";
},
{
name = top;
position = "{450, 750}";
}
);
layerId = "8FDEF4EB-75F1-466F-B872-024C1FB72131";
shapes = (
{
closed = 1;
nodes = (
(97,21,ls),
(97,-79,o),
(55,-125,o),
(-28,-125,cs),
(-67,-125,o),
(-107,-108,o),
(-132,-92,c),
(-132,-147,l),
(-106,-163,o),
(-65,-177,o),
(-23,-177,cs),
(91,-177,o),
(151,-103,o),
(151,8,cs),
(151,736,l),
(112,736,l),
(729,0,l),
(802,0,l),
(802,750,l),
(748,750,l),
(748,14,l),
(787,14,l),
(170,750,l),
(97,750,l)
);
}
);
width = 899;
},
{
anchors = (
{
name = bottom;
position = "{498, 0}";
},
{
name = top;
position = "{498, 750}";
}
);
layerId = "97350278-980A-4778-8478-A58DCFDD7560";
shapes = (
{
closed = 1;
nodes = (
(60,105,ls),
(60,45,o),
(36,10,o),
(-26,10,cs),
(-58,10,o),
(-87,16,o),
(-110,23,c),
(-110,-164,l),
(-67,-177,o),
(-9,-183,o),
(39,-183,cs),
(225,-183,o),
(310,-89,o),
(310,90,cs),
(310,595,l),
(240,578,l),
(612,0,l),
(935,0,l),
(935,750,l),
(685,750,l),
(685,171,l),
(755,188,l),
(393,750,l),
(60,750,l)
);
}
);
width = 995;
}
);
unicode = 413;
},
{
glyphname = Nlongrightleg;
layers = (
{
anchors = (
{
name = bottom;
position = "{437, 0}";
},
{
name = top;
position = "{452, 750}";
}
);
layerId = "4A3736D9-1D75-4B42-9353-97DA234A9782";
shapes = (
{
closed = 1;
nodes = (
(84,0,l),
(216,0,l),
(216,750,l),
(84,750,l)
);
},
{
closed = 1;
nodes = (
(316,764,o),
(192,664,o),
(168,464,c),
(216,439,l),
(216,563,o),
(305,645,o),
(449,645,cs),
(585,645,o),
(658,573,o),
(658,437,cs),
(658,-165,l),
(790,-165,l),
(790,467,ls),
(790,653,o),
(680,764,o),
(495,764,cs)
);
}
);
width = 867;
},
{
anchors = (
{
name = bottom;
position = "{421, 0}";
},
{
name = top;
position = "{421, 750}";
}
);
layerId = "8FDEF4EB-75F1-466F-B872-024C1FB72131";
shapes = (
{
closed = 1;
nodes = (
(97,0,l),
(153,0,l),
(153,750,l),
(97,750,l)
);
},
{
closed = 1;
nodes = (
(263,762,o),
(133,651,o),
(123,484,c),
(153,467,l),
(153,611,o),
(265,710,o),
(438,710,cs),
(602,710,o),
(689,623,o),
(689,455,cs),
(689,-165,l),
(745,-165,l),
(745,466,ls),
(745,655,o),
(637,762,o),
(453,762,cs)
);
}
);
width = 834;
},
{
anchors = (
{
name = bottom;
position = "{460, 0}";
},
{
name = top;
position = "{510, 750}";
}
);
layerId = "97350278-980A-4778-8478-A58DCFDD7560";
shapes = (
{
closed = 1;
nodes = (
(60,0,l),
(318,0,l),
(318,750,l),
(60,750,l)
);
},
{
closed = 1;
nodes = (
(404,768,o),
(288,686,o),
(241,432,c),
(318,394,l),
(318,485,o),
(371,538,o),
(465,538,cs),
(554,538,o),
(604,491,o),
(604,408,cs),
(604,-165,l),
(862,-165,l),
(862,469,ls),
(862,649,o),
(748,768,o),
(562,768,cs)
);
}
);
width = 915;
}
);
unicode = 544;
},
{
glyphname = Eng;
layers = (
{
anchors = (
{
name = bottom;
position = "{471, -165}";
},
{
name = top;
position = "{533, 750}";
}
);
layerId = "97350278-980A-4778-8478-A58DCFDD7560";
shapes = (
{
closed = 1;
nodes = (
(60,0,l),
(318,0,l),
(318,750,l),
(60,750,l)
);
},
{
closed = 1;
nodes = (
(882,469,ls),
(882,649,o),
(764,768,o),
(572,768,cs),
(428,768,o),
(291,686,o),
(241,432,c),
(318,394,l),
(318,485,o),
(374,538,o),
(475,538,cs),
(571,538,o),
(624,491,o),
(624,408,cs),
(624,107,ls),
(624,47,o),
(597,12,o),
(531,12,cs),
(481,12,o),
(434,21,o),
(403,32,c),
(403,-158,l),
(447,-172,o),
(512,-183,o),
(580,-183,cs),
(785,-183,o),
(882,-87,o),
(882,74,cs)
);
}
);
width = 934;
},
{
anchors = (
{
name = bottom;
position = "{456, -165}";
},
{
name = top;
position = "{456, 750}";
}
);
layerId = "4A3736D9-1D75-4B42-9353-97DA234A9782";
shapes = (
{
closed = 1;
nodes = (
(84,0,l),
(216,0,l),
(216,750,l),
(84,750,l)
);
},
{
closed = 1;
nodes = (
(825,473,ls),
(825,655,o),
(709,764,o),
(513,764,cs),
(322,764,o),
(191,664,o),
(164,464,c),
(216,429,l),
(216,560,o),
(311,646,o),
(467,646,cs),
(615,646,o),
(693,576,o),
(693,443,cs),
(693,38,ls),
(693,-46,o),
(657,-74,o),
(571,-74,cs),
(516,-74,o),
(464,-62,o),
(421,-41,c),
(421,-146,l),
(455,-162,o),
(517,-179,o),
(587,-179,cs),
(754,-179,o),
(825,-94,o),
(825,28,cs)
);
}
);
width = 902;
},
{
anchors = (
{
name = bottom;
position = "{426, -165}";
},
{
name = top;
position = "{426, 750}";
}
);
guides = (
{
angle = 7.125;
position = "{426, 0}";
}
);
layerId = "8FDEF4EB-75F1-466F-B872-024C1FB72131";
shapes = (
{
closed = 1;
nodes = (
(97,0,l),
(153,0,l),
(153,750,l),
(97,750,l)
);
},
{
closed = 1;
nodes = (
(755,466,ls),
(755,655,o),
(646,762,o),
(458,762,cs),
(263,762,o),
(130,647,o),
(119,474,c),
(153,457,l),
(153,607,o),
(267,710,o),
(443,710,cs),
(610,710,o),
(699,623,o),
(699,455,cs),
(699,22,ls),
(699,-88,o),
(657,-126,o),
(561,-126,cs),
(506,-126,o),
(449,-113,o),
(402,-86,c),
(402,-138,l),
(430,-156,o),
(490,-177,o),
(561,-177,cs),
(705,-177,o),
(755,-99,o),
(755,0,cs)
);
}
);
width = 844;
}
);
leftKerningGroup = D2;
unicode = 330;
},
{
glyphname = O;
layers = (
{
anchors = (
{
name = bottom;
position = "{488, 0}";
},
{
name = center;
position = "{488, 375}";
},
{
name = ogonek;
position = "{640, 0}";
},
{
name = top;
position = "{488, 750}";
},
{
name = topleft;
position = "{15, 750}";
},
{
name = topright;
position = "{961, 750}";
}
);
guides = (
{
angle = 165.964;
position = "{488, 646}";
}
);
layerId = "97350278-980A-4778-8478-A58DCFDD7560";
shapes = (
{
closed = 1;
nodes = (
(762,-18,o),
(944,139,o),
(944,375,cs),
(944,611,o),
(762,768,o),
(488,768,cs),
(214,768,o),
(32,611,o),
(32,375,cs),
(32,139,o),
(214,-18,o),
(488,-18,cs)
);
},
{
closed = 1;
nodes = (
(366,212,o),
(292,273,o),
(292,375,cs),
(292,477,o),
(366,538,o),
(488,538,cs),
(610,538,o),
(684,477,o),
(684,375,cs),
(684,273,o),
(610,212,o),
(488,212,cs)
);
}
);
width = 976;
},
{
anchors = (
{
name = bottom;
position = "{474, 0}";
},
{
name = center;
position = "{474, 375}";
},
{
name = ogonek;
position = "{600, 0}";
},
{
name = top;
position = "{474, 750}";
},
{
name = topleft;
position = "{14, 750}";
},
{
name = topright;
position = "{935, 750}";
}
);
layerId = "4A3736D9-1D75-4B42-9353-97DA234A9782";
shapes = (
{
closed = 1;
nodes = (
(730,-14,o),
(904,143,o),
(904,375,cs),
(904,607,o),
(730,764,o),
(474,764,cs),
(218,764,o),
(44,607,o),
(44,375,cs),
(44,143,o),
(218,-14,o),
(474,-14,cs)
);
},
{
closed = 1;
nodes = (
(293,104,o),
(178,209,o),
(178,375,cs),
(178,541,o),
(293,646,o),
(474,646,cs),
(655,646,o),
(770,541,o),
(770,375,cs),
(770,209,o),
(655,104,o),
(474,104,cs)
);
}
);
width = 948;
},
{
anchors = (
{
name = bottom;
position = "{465, 0}";
},
{
name = center;
position = "{465, 375}";
},
{
name = ogonek;
position = "{574, 0}";
},
{
name = top;
position = "{465, 750}";
},
{
name = topleft;
position = "{12, 750}";
},
{
name = topright;
position = "{918, 750}";
}
);
layerId = "8FDEF4EB-75F1-466F-B872-024C1FB72131";
shapes = (
{
closed = 1;
nodes = (
(710,-12,o),
(878,146,o),
(878,375,cs),
(878,604,o),
(710,762,o),
(465,762,cs),
(220,762,o),
(52,604,o),
(52,375,cs),
(52,146,o),
(220,-12,o),
(465,-12,cs)
);
},
{
closed = 1;
nodes = (
(249,40,o),
(110,172,o),
(110,375,cs),
(110,578,o),
(249,710,o),
(465,710,cs),
(681,710,o),
(820,578,o),
(820,375,cs),
(820,172,o),
(681,40,o),
(465,40,cs)
);
}
);
width = 930;
}
);
leftKerningGroup = C2;
rightKerningGroup = O;
unicode = 79;
},
{
glyphname = Ocenteredtilde;
layers = (
{
anchors = (
{
name = bottom;
position = "{474, 0}";
},
{
name = top;
position = "{474, 750}";
}
);
layerId = "4A3736D9-1D75-4B42-9353-97DA234A9782";
shapes = (
{
closed = 1;
nodes = (
(90,317,l),
(844,317,l),
(844,433,l),
(90,433,l)
);
},
{
closed = 1;
nodes = (
(730,-14,o),
(904,143,o),
(904,375,cs),
(904,607,o),
(730,764,o),
(474,764,cs),
(218,764,o),
(44,607,o),
(44,375,cs),
(44,143,o),
(218,-14,o),
(474,-14,cs)
);
},
{
closed = 1;
nodes = (
(293,104,o),
(178,209,o),
(178,375,cs),
(178,541,o),
(293,646,o),
(474,646,cs),
(655,646,o),
(770,541,o),
(770,375,cs),
(770,209,o),
(655,104,o),
(474,104,cs)
);
}
);
width = 948;
},
{
anchors = (
{
name = bottom;
position = "{465, 0}";
},
{
name = top;
position = "{465, 750}";
}
);
layerId = "8FDEF4EB-75F1-466F-B872-024C1FB72131";
shapes = (
{
closed = 1;
nodes = (
(88,350,l),
(842,350,l),
(842,400,l),
(88,400,l)
);
},
{
closed = 1;
nodes = (
(710,-12,o),
(878,146,o),
(878,375,cs),
(878,604,o),
(710,762,o),
(465,762,cs),
(220,762,o),
(52,604,o),
(52,375,cs),
(52,146,o),
(220,-12,o),
(465,-12,cs)
);
},
{
closed = 1;
nodes = (
(249,40,o),
(110,172,o),
(110,375,cs),
(110,578,o),
(249,710,o),
(465,710,cs),
(681,710,o),
(820,578,o),
(820,375,cs),
(820,172,o),
(681,40,o),
(465,40,cs)
);
}
);
width = 930;
},
{
anchors = (
{
name = bottom;
position = "{488, 0}";
},
{
name = top;
position = "{488, 750}";
}
);
layerId = "97350278-980A-4778-8478-A58DCFDD7560";
shapes = (
{
closed = 1;
nodes = (
(92,288,l),
(846,288,l),
(846,462,l),
(92,462,l)
);
},
{
closed = 1;
nodes = (
(762,-18,o),
(944,139,o),
(944,375,cs),
(944,611,o),
(762,768,o),
(488,768,cs),
(214,768,o),
(32,611,o),
(32,375,cs),
(32,139,o),
(214,-18,o),
(488,-18,cs)
);
},
{
closed = 1;
nodes = (
(360,194,o),
(282,262,o),
(282,375,cs),
(282,488,o),
(360,556,o),
(488,556,cs),
(616,556,o),
(694,488,o),
(694,375,cs),
(694,262,o),
(616,194,o),
(488,194,cs)
);
}
);
width = 976;
}
);
unicode = 415;
},
{
glyphname = Ohorn;
layers = (
{
anchors = (
{
name = bottom;
position = "{480, 0}";
},
{
name = center;
position = "{488, 375}";
},
{
name = ogonek;
position = "{640, 0}";
},
{
name = top;
position = "{480, 750}";
},
{
name = topleft;
position = "{15, 750}";
},
{
name = topright;
position = "{961, 750}";
}
);
guides = (
{
angle = 165.964;
position = "{481, 750}";
}
);
layerId = "97350278-980A-4778-8478-A58DCFDD7560";
shapes = (
{
closed = 1;
nodes = (
(762,-18,o),
(944,139,o),
(944,375,cs),
(944,472,o),
(913,556,o),
(857,621,c),
(940,644,o),
(986,697,o),
(986,767,cs),
(986,804,o),
(973,843,o),
(949,880,c),
(763,880,l),
(784,849,o),
(794,825,o),
(794,802,cs),
(794,773,o),
(771,743,o),
(707,743,cs),
(680,743,o),
(654,748,o),
(625,754,cs),
(590,761,o),
(550,768,o),
(488,768,cs),
(214,768,o),
(32,611,o),
(32,375,cs),
(32,139,o),
(214,-18,o),
(488,-18,cs)
);
},
{
closed = 1;
nodes = (
(366,212,o),
(292,273,o),
(292,375,cs),
(292,477,o),
(366,538,o),
(488,538,cs),
(610,538,o),
(684,477,o),
(684,375,cs),
(684,273,o),
(610,212,o),
(488,212,cs)
);
}
);
width = 989;
},
{
anchors = (
{
name = bottom;
position = "{470, 0}";
},
{
name = center;
position = "{473, 375}";
},
{
name = ogonek;
position = "{599, 0}";
},
{
name = top;
position = "{470, 750}";
},
{
name = topleft;
position = "{13, 750}";
},
{
name = topright;
position = "{934, 750}";
}
);
layerId = "4A3736D9-1D75-4B42-9353-97DA234A9782";
shapes = (
{
closed = 1;
nodes = (
(728,-14,o),
(902,143,o),
(902,375,cs),
(902,499,o),
(851,601,o),
(765,668,c),
(858,680,o),
(905,726,o),
(905,791,cs),
(905,821,o),
(895,854,o),
(879,881,c),
(765,881,l),
(781,858,o),
(790,831,o),
(790,809,cs),
(790,769,o),
(762,739,o),
(690,739,cs),
(658,739,o),
(627,744,o),
(597,751,cs),
(562,759,o),
(522,764,o),
(473,764,cs),
(217,764,o),
(44,607,o),
(44,375,cs),
(44,143,o),
(217,-14,o),
(473,-14,cs)
);
},
{
closed = 1;
nodes = (
(292,104,o),
(178,209,o),
(178,375,cs),
(178,541,o),
(292,646,o),
(473,646,cs),
(654,646,o),
(768,541,o),
(768,375,cs),
(768,209,o),
(654,104,o),
(473,104,cs)
);
}
);
width = 944;
},
{
anchors = (
{
name = bottom;
position = "{465, 0}";
},
{
name = center;
position = "{465, 375}";
},
{
name = ogonek;
position = "{574, 0}";
},
{
name = top;
position = "{465, 750}";
},
{
name = topleft;
position = "{12, 750}";
},
{
name = topright;
position = "{918, 750}";
}
);
guides = (
{
angle = 172.875;
position = "{465, 750}";
}
);
layerId = "8FDEF4EB-75F1-466F-B872-024C1FB72131";
shapes = (
{
closed = 1;
nodes = (
(710,-12,o),
(878,146,o),
(878,375,cs),
(878,515,o),
(815,629,o),
(710,696,c),
(804,702,o),
(850,744,o),
(850,806,cs),
(850,832,o),
(842,860,o),
(830,881,c),
(777,881,l),
(790,863,o),
(798,834,o),
(798,813,cs),
(798,767,o),
(764,737,o),
(680,737,cs),
(645,737,o),
(612,742,o),
(581,749,cs),
(545,757,o),
(506,762,o),
(465,762,cs),
(220,762,o),
(52,604,o),
(52,375,cs),
(52,146,o),
(220,-12,o),
(465,-12,cs)
);
},
{
closed = 1;
nodes = (
(249,40,o),
(110,172,o),
(110,375,cs),
(110,578,o),
(249,710,o),
(465,710,cs),
(681,710,o),
(820,578,o),
(820,375,cs),
(820,172,o),
(681,40,o),
(465,40,cs)
);
}
);
width = 925;
}
);
leftKerningGroup = C2;
rightKerningGroup = Ohorn;
unicode = 416;
},
{
glyphname = "Omega-latin";
layers = (
{
anchors = (
{
name = bottom;
position = "{563, 0}";
},
{
name = top;
position = "{563, 750}";
}
);
layerId = "4A3736D9-1D75-4B42-9353-97DA234A9782";
shapes = (
{
closed = 1;
nodes = (
(48,134,o),
(161,-14,o),
(336,-14,cs),
(497,-14,o),
(588,102,o),
(575,306,c),
(554,306,l),
(541,102,o),
(632,-14,o),
(793,-14,cs),
(968,-14,o),
(1081,134,o),
(1081,361,cs),
(1081,586,o),
(954,745,o),
(733,755,c),
(733,633,l),
(876,618,o),
(947,517,o),
(947,361,cs),
(947,195,o),
(881,102,o),
(774,102,cs),
(678,102,o),
(623,171,o),
(623,339,cs),
(623,483,l),
(506,483,l),
(506,339,ls),
(506,171,o),
(451,102,o),
(355,102,cs),
(248,102,o),
(182,195,o),
(182,361,cs),
(182,517,o),
(253,618,o),
(396,633,c),
(396,755,l),
(175,745,o),
(48,586,o),
(48,361,cs)
);
}
);
width = 1129;
},
{
anchors = (
{
name = bottom;
position = "{547, 0}";
},
{
name = top;
position = "{547, 750}";
}
);
layerId = "8FDEF4EB-75F1-466F-B872-024C1FB72131";
shapes = (
{
closed = 1;
nodes = (
(56,131,o),
(160,-12,o),
(329,-12,cs),
(477,-12,o),
(569,100,o),
(555,305,c),
(541,305,l),
(527,100,o),
(619,-12,o),
(767,-12,cs),
(936,-12,o),
(1040,131,o),
(1040,356,cs),
(1040,581,o),
(926,739,o),
(728,753,c),
(728,694,l),
(904,676,o),
(982,532,o),
(982,356,cs),
(982,154,o),
(900,40,o),
(766,40,cs),
(653,40,o),
(575,121,o),
(575,319,cs),
(575,483,l),
(521,483,l),
(521,319,ls),
(521,121,o),
(443,40,o),
(330,40,cs),
(196,40,o),
(114,154,o),
(114,356,cs),
(114,532,o),
(192,676,o),
(368,694,c),
(368,753,l),
(170,739,o),
(56,581,o),
(56,356,cs)
);
}
);
width = 1096;
},
{
anchors = (
{
name = bottom;
position = "{590, 0}";
},
{
name = top;
position = "{590, 750}";
}
);
layerId = "97350278-980A-4778-8478-A58DCFDD7560";
shapes = (
{
closed = 1;
nodes = (
(35,139,o),
(163,-18,o),
(347,-18,cs),
(531,-18,o),
(620,106,o),
(609,307,c),
(574,307,l),
(563,106,o),
(652,-18,o),
(836,-18,cs),
(1020,-18,o),
(1148,139,o),
(1148,368,cs),
(1148,595,o),
(999,754,o),
(742,759,c),
(742,538,l),
(829,530,o),
(888,492,o),
(888,368,cs),
(888,263,o),
(848,206,o),
(787,206,cs),
(719,206,o),
(698,255,o),
(698,373,cs),
(698,484,l),
(485,484,l),
(485,373,ls),
(485,255,o),
(464,206,o),
(396,206,cs),
(335,206,o),
(295,263,o),
(295,368,cs),
(295,492,o),
(354,530,o),
(441,538,c),
(441,759,l),
(184,754,o),
(35,595,o),
(35,368,cs)
);
}
);
width = 1183;
}
);
unicode = 42934;
},
{
glyphname = Oogonek;
layers = (
{
anchors = (
{
name = bottom;
position = "{474, 0}";
},
{
name = center;
position = "{474, 375}";
},
{
name = ogonek;
position = "{599, 0}";
},
{
name = top;
position = "{474, 750}";
},
{
name = topleft;
position = "{14, 750}";
},
{
name = topright;
position = "{935, 750}";
}
);
layerId = "4A3736D9-1D75-4B42-9353-97DA234A9782";
shapes = (
{
closed = 1;
nodes = (
(600,-102,l),
(583,-106,o),
(560,-108,o),
(539,-108,cs),
(499,-108,o),
(478,-98,o),
(478,-77,cs),
(478,-48,o),
(516,-20,o),
(599,0,cs),
(783,44,o),
(904,183,o),
(904,375,cs),
(904,607,o),
(730,764,o),
(474,764,cs),
(218,764,o),
(44,607,o),
(44,375,cs),
(44,142,o),
(220,-17,o),
(480,-14,c),
(489,6,l),
(409,-25,o),
(374,-59,o),
(374,-104,cs),
(374,-160,o),
(428,-197,o),
(509,-197,cs),
(545,-197,o),
(583,-191,o),
(600,-185,c)
);
},
{
closed = 1;
nodes = (
(178,541,o),
(293,646,o),
(474,646,cs),
(655,646,o),
(770,541,o),
(770,375,cs),
(770,209,o),
(655,104,o),
(474,104,cs),
(293,104,o),
(178,209,o),
(178,375,cs)
);
}
);
width = 948;
},
{
anchors = (
{
name = bottom;
position = "{465, 0}";
},
{
name = center;
position = "{465, 375}";
},
{
name = ogonek;
position = "{574, -1}";
},
{
name = top;
position = "{465, 750}";
},
{
name = topleft;
position = "{12, 750}";
},
{
name = topright;
position = "{918, 750}";
}
);
layerId = "8FDEF4EB-75F1-466F-B872-024C1FB72131";
shapes = (
{
closed = 1;
nodes = (
(574,-130,l),
(556,-134,o),
(530,-136,o),
(510,-136,cs),
(454,-136,o),
(425,-122,o),
(425,-95,cs),
(425,-57,o),
(486,-24,o),
(574,-1,cs),
(759,47,o),
(878,180,o),
(878,375,cs),
(878,604,o),
(710,762,o),
(465,762,cs),
(220,762,o),
(52,604,o),
(52,375,cs),
(52,144,o),
(223,-14,o),
(470,-12,c),
(475,-1,l),
(401,-32,o),
(373,-67,o),
(373,-105,cs),
(373,-152,o),
(424,-181,o),
(501,-181,cs),
(528,-181,o),
(557,-177,o),
(574,-172,c)
);
},
{
closed = 1;
nodes = (
(110,578,o),
(249,710,o),
(465,710,cs),
(681,710,o),
(820,578,o),
(820,375,cs),
(820,172,o),
(681,40,o),
(465,40,cs),
(249,40,o),
(110,172,o),
(110,375,cs)
);
}
);
width = 930;
},
{
anchors = (
{
name = bottom;
position = "{488, 0}";
},
{
name = center;
position = "{488, 375}";
},
{
name = ogonek;
position = "{640, 0}";
},
{
name = top;
position = "{488, 750}";
},
{
name = topleft;
position = "{15, 750}";
},
{
name = topright;
position = "{961, 750}";
}
);
layerId = "97350278-980A-4778-8478-A58DCFDD7560";
shapes = (
{
closed = 1;
nodes = (
(640,-82,l),
(623,-86,o),
(605,-89,o),
(583,-89,cs),
(543,-89,o),
(521,-80,o),
(521,-63,cs),
(521,-42,o),
(563,-20,o),
(640,0,cs),
(827,48,o),
(944,186,o),
(944,375,cs),
(944,611,o),
(762,768,o),
(488,768,cs),
(214,768,o),
(32,611,o),
(32,375,cs),
(32,129,o),
(231,-32,o),
(526,-18,c),
(541,10,l),
(415,-15,o),
(347,-60,o),
(347,-124,cs),
(347,-183,o),
(416,-222,o),
(519,-222,cs),
(569,-222,o),
(622,-213,o),
(640,-206,c)
);
},
{
closed = 1;
nodes = (
(292,477,o),
(366,538,o),
(488,538,cs),
(610,538,o),
(684,477,o),
(684,375,cs),
(684,273,o),
(610,212,o),
(488,212,cs),
(366,212,o),
(292,273,o),
(292,375,cs)
);
}
);
width = 976;
}
);
unicode = 490;
},
{
glyphname = Oslash;
layers = (
{
anchors = (
{
name = bottom;
position = "{473, 0}";
},
{
name = center;
position = "{473, 375}";
},
{
name = ogonek;
position = "{640, 31}";
},
{
name = top;
position = "{473, 750}";
},
{
name = topleft;
position = "{13, 750}";
},
{
name = topright;
position = "{934, 750}";
}
);
background = {
shapes = (
{
closed = 1;
nodes = (
(71,-14,l),
(197,-14,l),
(890,764,l),
(763,764,l)
);
},
{
closed = 1;
nodes = (
(736,-14,o),
(910,143,o),
(910,375,cs),
(910,607,o),
(736,764,o),
(480,764,cs),
(224,764,o),
(51,607,o),
(51,375,cs),
(51,143,o),
(224,-14,o),
(480,-14,cs)
);
},
{
closed = 1;
nodes = (
(298,99,o),
(182,206,o),
(182,375,cs),
(182,544,o),
(298,651,o),
(480,651,cs),
(663,651,o),
(779,544,o),
(779,375,cs),
(779,206,o),
(663,99,o),
(480,99,cs)
);
}
);
};
layerId = "4A3736D9-1D75-4B42-9353-97DA234A9782";
shapes = (
{
closed = 1;
nodes = (
(64,-14,l),
(197,-14,l),
(883,764,l),
(750,764,l)
);
},
{
closed = 1;
nodes = (
(729,-14,o),
(903,143,o),
(903,375,cs),
(903,607,o),
(719,764,o),
(473,764,cs),
(217,764,o),
(44,607,o),
(44,375,cs),
(44,143,o),
(217,-14,o),
(473,-14,cs)
);
},
{
closed = 1;
nodes = (
(293,104,o),
(178,209,o),
(178,375,cs),
(178,541,o),
(293,646,o),
(473,646,cs),
(654,646,o),
(769,541,o),
(769,375,cs),
(769,209,o),
(654,104,o),
(473,104,cs)
);
}
);
width = 947;
},
{
anchors = (
{
name = bottom;
position = "{465, 0}";
},
{
name = center;
position = "{465, 375}";
},
{
name = ogonek;
position = "{647, 42}";
},
{
name = top;
position = "{465, 750}";
},
{
name = topleft;
position = "{12, 750}";
},
{
name = topright;
position = "{918, 750}";
}
);
layerId = "8FDEF4EB-75F1-466F-B872-024C1FB72131";
shapes = (
{
closed = 1;
nodes = (
(72,-10,l),
(140,-10,l),
(858,760,l),
(790,760,l)
);
},
{
closed = 1;
nodes = (
(710,-12,o),
(878,146,o),
(878,375,cs),
(878,604,o),
(710,762,o),
(465,762,cs),
(220,762,o),
(52,604,o),
(52,375,cs),
(52,146,o),
(220,-12,o),
(465,-12,cs)
);
},
{
closed = 1;
nodes = (
(249,40,o),
(110,172,o),
(110,375,cs),
(110,578,o),
(249,710,o),
(465,710,cs),
(681,710,o),
(820,578,o),
(820,375,cs),
(820,172,o),
(681,40,o),
(465,40,cs)
);
}
);
width = 930;
},
{
anchors = (
{
name = bottom;
position = "{488, 0}";
},
{
name = center;
position = "{488, 375}";
},
{
name = ogonek;
position = "{629, 12}";
},
{
name = top;
position = "{488, 750}";
},
{
name = topleft;
position = "{15, 750}";
},
{
name = topright;
position = "{961, 750}";
}
);
layerId = "97350278-980A-4778-8478-A58DCFDD7560";
shapes = (
{
closed = 1;
nodes = (
(52,-20,l),
(273,-20,l),
(924,770,l),
(703,770,l)
);
},
{
closed = 1;
nodes = (
(762,-18,o),
(944,139,o),
(944,375,cs),
(944,611,o),
(762,768,o),
(488,768,cs),
(214,768,o),
(32,611,o),
(32,375,cs),
(32,139,o),
(214,-18,o),
(488,-18,cs)
);
},
{
closed = 1;
nodes = (
(360,194,o),
(282,262,o),
(282,375,cs),
(282,488,o),
(360,556,o),
(488,556,cs),
(616,556,o),
(694,488,o),
(694,375,cs),
(694,262,o),
(616,194,o),
(488,194,cs)
);
}
);
width = 976;
}
);
leftKerningGroup = C2;
rightKerningGroup = O;
unicode = 216;
},
{
glyphname = OE;
layers = (
{
anchors = (
{
name = bottom;
position = "{670, 0}";
},
{
name = top;
position = "{670, 750}";
}
);
background = {
shapes = (
{
closed = 1;
nodes = (
(1297,0,l),
(1297,108,l),
(806,108,l),
(806,326,l),
(1267,326,l),
(1267,424,l),
(806,424,l),
(806,641,l),
(1292,641,l),
(1292,750,l),
(473,750,ls),
(217,750,o),
(50,599,o),
(50,375,cs),
(50,151,o),
(223,0,o),
(479,0,cs)
);
},
{
closed = 1;
nodes = (
(472,118,ls),
(300,118,o),
(185,221,o),
(185,375,cs),
(185,529,o),
(300,632,o),
(472,632,cs),
(677,632,l),
(677,118,l)
);
}
);
};
layerId = "4A3736D9-1D75-4B42-9353-97DA234A9782";
shapes = (
{
closed = 1;
nodes = (
(1292,0,l),
(1292,114,l),
(801,114,l),
(801,321,l),
(1262,321,l),
(1262,431,l),
(801,431,l),
(801,636,l),
(1287,636,l),
(1287,750,l),
(467,750,ls),
(211,750,o),
(44,599,o),
(44,375,cs),
(44,151,o),
(217,0,o),
(473,0,cs)
);
},
{
closed = 1;
nodes = (
(466,116,ls),
(293,116,o),
(178,220,o),
(178,375,cs),
(178,530,o),
(293,634,o),
(466,634,cs),
(671,634,l),
(671,116,l)
);
}
);
width = 1346;
},
{
anchors = (
{
name = bottom;
position = "{673, 0}";
},
{
name = top;
position = "{673, 750}";
}
);
layerId = "8FDEF4EB-75F1-466F-B872-024C1FB72131";
shapes = (
{
closed = 1;
nodes = (
(1298,0,l),
(1298,49,l),
(765,49,l),
(765,350,l),
(1273,350,l),
(1273,400,l),
(765,400,l),
(765,700,l),
(1293,700,l),
(1293,750,l),
(455,750,ls),
(210,750,o),
(52,597,o),
(52,375,cs),
(52,153,o),
(220,0,o),
(465,0,cs)
);
},
{
closed = 1;
nodes = (
(465,49,ls),
(255,49,o),
(110,182,o),
(110,375,cs),
(110,568,o),
(255,701,o),
(465,701,cs),
(709,701,l),
(709,49,l)
);
}
);
width = 1353;
},
{
anchors = (
{
name = bottom;
position = "{660, 0}";
},
{
name = top;
position = "{660, 750}";
}
);
layerId = "97350278-980A-4778-8478-A58DCFDD7560";
shapes = (
{
closed = 1;
nodes = (
(1280,0,l),
(1280,204,l),
(859,204,l),
(859,286,l),
(1243,286,l),
(1243,464,l),
(859,464,l),
(859,546,l),
(1275,546,l),
(1275,750,l),
(488,750,ls),
(214,750,o),
(32,602,o),
(32,375,cs),
(32,148,o),
(214,0,o),
(488,0,cs)
);
},
{
closed = 1;
nodes = (
(468,230,ls),
(358,230,o),
(292,284,o),
(292,375,cs),
(292,466,o),
(358,520,o),
(468,520,cs),
(611,520,l),
(611,230,l)
);
}
);
width = 1326;
}
);
rightKerningGroup = E;
unicode = 338;
},
{
glyphname = P;
layers = (
{
anchors = (
{
name = bottom;
position = "{421, 0}";
},
{
name = top;
position = "{421, 750}";
}
);
layerId = "97350278-980A-4778-8478-A58DCFDD7560";
shapes = (
{
closed = 1;
nodes = (
(60,750,l),
(60,0,l),
(318,0,l),
(318,665,l),
(202,549,l),
(480,549,ls),
(531,549,o),
(560,523,o),
(560,477,cs),
(560,431,o),
(531,405,o),
(480,405,cs),
(180,405,l),
(180,204,l),
(497,204,ls),
(701,204,o),
(820,311,o),
(820,477,cs),
(820,643,o),
(701,750,o),
(497,750,cs)
);
}
);
width = 837;
},
{
anchors = (
{
name = bottom;
position = "{401, 0}";
},
{
name = top;
position = "{401, 750}";
}
);
layerId = "4A3736D9-1D75-4B42-9353-97DA234A9782";
shapes = (
{
closed = 1;
nodes = (
(84,750,l),
(84,0,l),
(216,0,l),
(216,702,l),
(157,636,l),
(476,636,ls),
(566,636,o),
(621,589,o),
(621,513,cs),
(621,437,o),
(566,390,o),
(476,390,cs),
(144,390,l),
(144,276,l),
(481,276,ls),
(648,276,o),
(755,373,o),
(755,513,cs),
(755,653,o),
(648,750,o),
(481,750,cs)
);
}
);
width = 779;
},
{
anchors = (
{
name = bottom;
position = "{388, 0}";
},
{
name = top;
position = "{386, 750}";
}
);
layerId = "8FDEF4EB-75F1-466F-B872-024C1FB72131";
shapes = (
{
closed = 1;
nodes = (
(97,750,l),
(97,0,l),
(153,0,l),
(153,725,l),
(128,700,l),
(470,700,ls),
(582,700,o),
(655,637,o),
(655,540,cs),
(655,443,o),
(582,380,o),
(470,380,cs),
(121,380,l),
(121,330,l),
(469,330,ls),
(614,330,o),
(713,416,o),
(713,540,cs),
(713,664,o),
(614,750,o),
(469,750,cs)
);
}
);
width = 741;
}
);
leftKerningGroup = D2;
rightKerningGroup = P;
unicode = 80;
},
{
glyphname = Phook;
layers = (
{
anchors = (
{
name = bottom;
position = "{598, 0}";
},
{
name = top;
position = "{598, 750}";
}
);
layerId = "4A3736D9-1D75-4B42-9353-97DA234A9782";
shapes = (
{
closed = 1;
nodes = (
(201,750,ls),
(85,750,o),
(23,692,o),
(23,589,cs),
(23,535,o),
(42,484,o),
(59,447,c),
(165,447,l),
(151,482,o),
(140,518,o),
(140,558,cs),
(140,617,o),
(173,638,o),
(227,638,cs),
(336,638,l),
(281,702,l),
(281,0,l),
(413,0,l),
(413,702,l),
(354,636,l),
(673,636,ls),
(763,636,o),
(818,589,o),
(818,513,cs),
(818,437,o),
(763,390,o),
(673,390,cs),
(341,390,l),
(341,276,l),
(678,276,ls),
(845,276,o),
(952,373,o),
(952,513,cs),
(952,653,o),
(845,750,o),
(678,750,cs)
);
}
);
width = 976;
},
{
anchors = (
{
name = bottom;
position = "{545, 0}";
},
{
name = top;
position = "{543, 750}";
}
);
layerId = "8FDEF4EB-75F1-466F-B872-024C1FB72131";
shapes = (
{
closed = 1;
nodes = (
(169,750,ls),
(83,750,o),
(25,704,o),
(25,610,cs),
(25,564,o),
(43,513,o),
(59,479,c),
(114,479,l),
(95,526,o),
(82,565,o),
(82,610,cs),
(82,677,o),
(121,701,o),
(182,701,cs),
(272,701,l),
(254,725,l),
(254,0,l),
(310,0,l),
(310,725,l),
(285,700,l),
(627,700,ls),
(739,700,o),
(812,637,o),
(812,540,cs),
(812,443,o),
(739,380,o),
(627,380,cs),
(278,380,l),
(278,330,l),
(626,330,ls),
(771,330,o),
(870,416,o),
(870,540,cs),
(870,664,o),
(771,750,o),
(626,750,cs)
);
}
);
width = 898;
},
{
anchors = (
{
name = bottom;
position = "{681, 0}";
},
{
name = top;
position = "{681, 750}";
}
);
layerId = "97350278-980A-4778-8478-A58DCFDD7560";
shapes = (
{
closed = 1;
nodes = (
(248,750,ls),
(83,750,o),
(15,673,o),
(15,555,cs),
(15,487,o),
(37,437,o),
(58,394,c),
(243,394,l),
(238,410,o),
(231,442,o),
(231,472,cs),
(231,519,o),
(252,535,o),
(295,535,cs),
(432,535,l),
(320,634,l),
(320,0,l),
(578,0,l),
(578,665,l),
(462,549,l),
(740,549,ls),
(791,549,o),
(820,523,o),
(820,477,cs),
(820,431,o),
(791,405,o),
(740,405,cs),
(440,405,l),
(440,204,l),
(757,204,ls),
(961,204,o),
(1080,311,o),
(1080,477,cs),
(1080,643,o),
(961,750,o),
(757,750,cs)
);
}
);
width = 1097;
}
);
unicode = 420;
},
{
glyphname = Thorn;
layers = (
{
anchors = (
{
name = bottom;
position = "{401, 0}";
},
{
name = top;
position = "{401, 750}";
}
);
layerId = "4A3736D9-1D75-4B42-9353-97DA234A9782";
shapes = (
{
closed = 1;
nodes = (
(84,0,l),
(216,0,l),
(216,750,l),
(84,750,l)
);
},
{
closed = 1;
nodes = (
(481,143,ls),
(648,143,o),
(755,238,o),
(755,380,cs),
(755,522,o),
(648,617,o),
(481,617,cs),
(173,617,l),
(173,503,l),
(475,503,ls),
(565,503,o),
(621,455,o),
(621,380,cs),
(621,304,o),
(565,257,o),
(475,257,cs),
(172,257,l),
(172,143,l)
);
}
);
width = 793;
},
{
anchors = (
{
name = bottom;
position = "{388, 0}";
},
{
name = top;
position = "{388, 750}";
}
);
layerId = "8FDEF4EB-75F1-466F-B872-024C1FB72131";
shapes = (
{
closed = 1;
nodes = (
(97,0,l),
(153,0,l),
(153,750,l),
(97,750,l)
);
},
{
closed = 1;
nodes = (
(469,170,ls),
(614,170,o),
(713,256,o),
(713,380,cs),
(713,504,o),
(614,590,o),
(469,590,cs),
(137,590,l),
(137,540,l),
(470,540,ls),
(582,540,o),
(655,477,o),
(655,380,cs),
(655,283,o),
(582,220,o),
(470,220,cs),
(136,220,l),
(136,170,l)
);
}
);
width = 756;
},
{
anchors = (
{
name = bottom;
position = "{421, 0}";
},
{
name = top;
position = "{421, 750}";
}
);
background = {
shapes = (
{
closed = 1;
nodes = (
(57,0,l),
(312,0,l),
(312,750,l),
(57,750,l)
);
},
{
closed = 1;
nodes = (
(531,206,ls),
(708,206,o),
(817,302,o),
(817,479,cs),
(817,632,o),
(735,750,o),
(561,750,cs),
(226,750,l),
(226,549,l),
(477,549,ls),
(530,549,o),
(557,514,o),
(557,479,cs),
(557,422,o),
(526,407,o),
(477,407,cs),
(225,407,l),
(225,206,l)
);
}
);
};
layerId = "97350278-980A-4778-8478-A58DCFDD7560";
shapes = (
{
closed = 1;
nodes = (
(60,0,l),
(318,0,l),
(318,750,l),
(60,750,l)
);
},
{
closed = 1;
nodes = (
(497,106,ls),
(701,106,o),
(820,213,o),
(820,379,cs),
(820,545,o),
(701,652,o),
(497,652,cs),
(229,652,l),
(229,455,l),
(480,455,ls),
(531,455,o),
(560,428,o),
(560,379,cs),
(560,330,o),
(531,303,o),
(480,303,cs),
(228,303,l),
(228,106,l)
);
}
);
width = 854;
}
);
leftKerningGroup = D2;
unicode = 222;
},
{
glyphname = Pstroke;
layers = (
{
anchors = (
{
name = bottom;
position = "{181, 0}";
},
{
name = top;
position = "{433, 750}";
}
);
layerId = "E28897B8-13A7-4F1A-9ABA-5B086C73F531";
associatedMasterId = "4A3736D9-1D75-4B42-9353-97DA234A9782";
name = "Regular [705]";
shapes = (
{
closed = 1;
nodes = (
(23,454,l),
(461,454,l),
(461,572,l),
(23,572,l)
);
},
{
closed = 1;
nodes = (
(116,750,l),
(116,0,l),
(249,0,l),
(249,702,l),
(189,638,l),
(507,638,ls),
(597,638,o),
(652,590,o),
(652,513,cs),
(652,436,o),
(597,388,o),
(507,388,cs),
(176,388,l),
(176,276,l),
(513,276,ls),
(680,276,o),
(787,373,o),
(787,513,cs),
(787,653,o),
(680,750,o),
(513,750,cs)
);
}
);
width = 811;
},
{
anchors = (
{
name = bottom;
position = "{181, 0}";
},
{
name = top;
position = "{433, 750}";
}
);
layerId = "4A3736D9-1D75-4B42-9353-97DA234A9782";
shapes = (
{
closed = 1;
nodes = (
(23,464,l),
(461,464,l),
(461,562,l),
(23,562,l)
);
},
{
closed = 1;
nodes = (
(116,750,l),
(116,0,l),
(248,0,l),
(248,702,l),
(189,636,l),
(507,636,ls),
(598,636,o),
(653,589,o),
(653,513,cs),
(653,437,o),
(598,390,o),
(507,390,cs),
(176,390,l),
(176,276,l),
(513,276,ls),
(680,276,o),
(787,373,o),
(787,513,cs),
(787,653,o),
(680,750,o),
(513,750,cs)
);
}
);
width = 811;
},
{
anchors = (
{
name = bottom;
position = "{146, 0}";
},
{
name = top;
position = "{408, 750}";
}
);
layerId = "14BCB3E6-570F-4F38-AC09-A287191C401E";
name = "Light.Light [705]";
shapes = (
{
closed = 1;
nodes = (
(17,515,l),
(457,515,l),
(457,565,l),
(17,565,l)
);
},
{
closed = 1;
nodes = (
(119,750,l),
(119,0,l),
(175,0,l),
(175,725,l),
(150,700,l),
(492,700,ls),
(604,700,o),
(677,637,o),
(677,540,cs),
(677,443,o),
(604,380,o),
(492,380,cs),
(143,380,l),
(143,330,l),
(491,330,ls),
(636,330,o),
(735,416,o),
(735,540,cs),
(735,664,o),
(636,750,o),
(491,750,cs)
);
}
);
width = 763;
},
{
anchors = (
{
name = bottom;
position = "{146, 0}";
},
{
name = top;
position = "{408, 750}";
}
);
layerId = "8FDEF4EB-75F1-466F-B872-024C1FB72131";
shapes = (
{
closed = 1;
nodes = (
(17,515,l),
(457,515,l),
(457,565,l),
(17,565,l)
);
},
{
closed = 1;
nodes = (
(119,750,l),
(119,0,l),
(175,0,l),
(175,725,l),
(150,700,l),
(492,700,ls),
(604,700,o),
(677,637,o),
(677,540,cs),
(677,443,o),
(604,380,o),
(492,380,cs),
(143,380,l),
(143,330,l),
(491,330,ls),
(636,330,o),
(735,416,o),
(735,540,cs),
(735,664,o),
(636,750,o),
(491,750,cs)
);
}
);
width = 763;
},
{
anchors = (
{
name = bottom;
position = "{222, 0}";
},
{
name = top;
position = "{461, 750}";
}
);
layerId = "18EF4CF3-4CEB-4A3C-A2EF-4BB48522AF96";
associatedMasterId = "97350278-980A-4778-8478-A58DCFDD7560";
name = "Black [705]";
shapes = (
{
closed = 1;
nodes = (
(20,419,l),
(495,419,l),
(495,515,l),
(20,515,l)
);
},
{
closed = 1;
nodes = (
(100,750,l),
(100,0,l),
(358,0,l),
(358,665,l),
(242,549,l),
(520,549,ls),
(571,549,o),
(600,519,o),
(600,467,cs),
(600,415,o),
(571,385,o),
(520,385,cs),
(220,385,l),
(220,184,l),
(537,184,ls),
(741,184,o),
(860,295,o),
(860,467,cs),
(860,639,o),
(741,750,o),
(537,750,cs)
);
}
);
width = 878;
},
{
anchors = (
{
name = bottom;
position = "{222, 0}";
},
{
name = top;
position = "{461, 750}";
}
);
layerId = "97350278-980A-4778-8478-A58DCFDD7560";
shapes = (
{
closed = 1;
nodes = (
(20,399,l),
(495,399,l),
(495,535,l),
(20,535,l)
);
},
{
closed = 1;
nodes = (
(100,750,l),
(100,0,l),
(358,0,l),
(358,665,l),
(242,549,l),
(520,549,ls),
(571,549,o),
(600,519,o),
(600,467,cs),
(600,415,o),
(571,385,o),
(520,385,cs),
(220,385,l),
(220,184,l),
(537,184,ls),
(741,184,o),
(860,295,o),
(860,467,cs),
(860,639,o),
(741,750,o),
(537,750,cs)
);
}
);
width = 878;
}
);
unicode = 11363;
},
{
color = 2;
glyphname = Q;
layers = (
{
anchors = (
{
name = bottom;
position = "{489, 0}";
},
{
name = top;
position = "{489, 750}";
}
);
guides = (
{
angle = 165.964;
position = "{934, 202}";
}
);
layerId = "97350278-980A-4778-8478-A58DCFDD7560";
shapes = (
{
closed = 1;
nodes = (
(650,-59,l),
(963,-59,l),
(641,318,l),
(336,318,l)
);
},
{
alignment = -1;
ref = O;
}
);
width = 977;
},
{
anchors = (
{
name = bottom;
position = "{475, 0}";
},
{
name = top;
position = "{475, 750}";
}
);
layerId = "4A3736D9-1D75-4B42-9353-97DA234A9782";
shapes = (
{
closed = 1;
nodes = (
(709,-52,l),
(873,-52,l),
(540,286,l),
(379,286,l)
);
},
{
alignment = -1;
ref = O;
}
);
width = 948;
},
{
anchors = (
{
name = bottom;
position = "{465, 0}";
},
{
name = top;
position = "{465, 750}";
}
);
layerId = "8FDEF4EB-75F1-466F-B872-024C1FB72131";
shapes = (
{
closed = 1;
nodes = (
(761,-66,l),
(833,-66,l),
(494,258,l),
(422,258,l)
);
},
{
alignment = -1;
ref = O;
}
);
width = 930;
}
);
leftKerningGroup = C2;
rightKerningGroup = O;
unicode = 81;
},
{
glyphname = Qhooktail;
layers = (
{
anchors = (
{
name = bottom;
position = "{412, 0}";
},
{
name = top;
position = "{412, 750}";
}
);
layerId = "4A3736D9-1D75-4B42-9353-97DA234A9782";
shapes = (
{
closed = 1;
nodes = (
(907,-71,o),
(875,-31,o),
(875,53,cs),
(875,750,l),
(743,750,l),
(743,470,l),
(768,376,l),
(743,281,l),
(743,39,ls),
(743,-98,o),
(812,-179,o),
(953,-179,cs),
(997,-179,o),
(1041,-172,o),
(1077,-157,c),
(1077,-53,l),
(1052,-62,o),
(1021,-71,o),
(982,-71,cs)
);
},
{
closed = 1;
nodes = (
(759,613,o),
(615,764,o),
(412,764,cs),
(194,764,o),
(46,607,o),
(46,375,cs),
(46,143,o),
(194,-14,o),
(412,-14,cs),
(616,-14,o),
(758,140,o),
(808,376,c)
);
},
{
closed = 1;
nodes = (
(180,535,o),
(286,648,o),
(441,648,cs),
(586,648,o),
(695,535,o),
(752,376,c),
(695,215,o),
(585,102,o),
(441,102,cs),
(285,102,o),
(180,216,o),
(180,376,cs)
);
}
);
width = 959;
},
{
anchors = (
{
name = bottom;
position = "{425, 0}";
},
{
name = top;
position = "{425, 750}";
}
);
layerId = "8FDEF4EB-75F1-466F-B872-024C1FB72131";
shapes = (
{
closed = 1;
nodes = (
(892,-125,o),
(851,-80,o),
(851,17,cs),
(851,750,l),
(795,750,l),
(795,463,l),
(813,376,l),
(795,290,l),
(795,8,ls),
(795,-103,o),
(855,-177,o),
(969,-177,cs),
(1011,-177,o),
(1052,-163,o),
(1078,-147,c),
(1078,-92,l),
(1053,-108,o),
(1013,-125,o),
(974,-125,cs)
);
},
{
closed = 1;
nodes = (
(771,610,o),
(626,762,o),
(421,762,cs),
(203,762,o),
(53,604,o),
(53,375,cs),
(53,146,o),
(203,-12,o),
(421,-12,cs),
(627,-12,o),
(771,142,o),
(836,376,c)
);
},
{
closed = 1;
nodes = (
(111,574,o),
(239,710,o),
(425,710,cs),
(601,710,o),
(721,574,o),
(797,376,c),
(721,176,o),
(600,40,o),
(424,40,cs),
(238,40,o),
(111,177,o),
(111,376,cs)
);
}
);
width = 948;
},
{
anchors = (
{
name = bottom;
position = "{399, 0}";
},
{
name = top;
position = "{399, 750}";
}
);
layerId = "97350278-980A-4778-8478-A58DCFDD7560";
shapes = (
{
closed = 1;
nodes = (
(943,10,o),
(927,45,o),
(927,105,cs),
(927,750,l),
(675,750,l),
(675,481,l),
(712,375,l),
(675,266,l),
(675,90,ls),
(675,-89,o),
(754,-183,o),
(940,-183,cs),
(988,-183,o),
(1046,-174,o),
(1089,-154,c),
(1089,23,l),
(1066,16,o),
(1037,10,o),
(1005,10,cs)
);
},
{
closed = 1;
nodes = (
(739,617,o),
(598,768,o),
(399,768,cs),
(181,768,o),
(35,611,o),
(35,375,cs),
(35,139,o),
(181,-18,o),
(399,-18,cs),
(599,-18,o),
(737,138,o),
(762,375,c)
);
},
{
closed = 1;
nodes = (
(295,470,o),
(366,540,o),
(469,540,cs),
(561,540,o),
(652,470,o),
(679,375,c),
(652,281,o),
(561,210,o),
(469,210,cs),
(366,210,o),
(295,281,o),
(295,375,cs)
);
}
);
width = 987;
}
);
unicode = 586;
},
{
glyphname = R;
layers = (
{
anchors = (
{
name = bottom;
position = "{436, 0}";
},
{
name = top;
position = "{420, 750}";
}
);
guides = (
{
angle = 18.435;
position = "{278, 962}";
},
{
position = "{0, 509}";
}
);
layerId = "97350278-980A-4778-8478-A58DCFDD7560";
shapes = (
{
closed = 1;
nodes = (
(238,250,l),
(530,250,ls),
(710,250,o),
(830,350,o),
(830,499,cs),
(830,650,o),
(710,750,o),
(530,750,cs),
(60,750,l),
(60,0,l),
(318,0,l),
(318,685,l),
(202,569,l),
(490,569,ls),
(541,569,o),
(570,544,o),
(570,499,cs),
(570,454,o),
(541,429,o),
(490,429,cs),
(238,429,l)
);
},
{
closed = 1;
nodes = (
(565,0,l),
(860,0,l),
(611,351,l),
(326,351,l)
);
}
);
width = 876;
},
{
anchors = (
{
name = bottom;
position = "{415, 0}";
},
{
name = top;
position = "{401, 750}";
}
);
layerId = "4A3736D9-1D75-4B42-9353-97DA234A9782";
shapes = (
{
closed = 1;
nodes = (
(176,300,l),
(493,300,ls),
(651,300,o),
(758,391,o),
(758,524,cs),
(758,659,o),
(651,750,o),
(493,750,cs),
(84,750,l),
(84,0,l),
(216,0,l),
(216,710,l),
(157,636,l),
(481,636,ls),
(569,636,o),
(624,594,o),
(624,524,cs),
(624,455,o),
(569,412,o),
(481,412,cs),
(176,412,l)
);
},
{
closed = 1;
nodes = (
(619,0,l),
(777,0,l),
(479,351,l),
(324,351,l)
);
}
);
width = 811;
},
{
anchors = (
{
name = bottom;
position = "{394, 0}";
},
{
name = top;
position = "{378, 750}";
}
);
guides = (
{
angle = 7.125;
position = "{231, 641}";
}
);
layerId = "8FDEF4EB-75F1-466F-B872-024C1FB72131";
shapes = (
{
closed = 1;
nodes = (
(136,330,l),
(469,330,ls),
(614,330,o),
(713,416,o),
(713,540,cs),
(713,664,o),
(614,750,o),
(469,750,cs),
(97,750,l),
(97,0,l),
(153,0,l),
(153,725,l),
(128,700,l),
(474,700,ls),
(585,700,o),
(657,637,o),
(657,540,cs),
(657,443,o),
(585,380,o),
(474,380,cs),
(136,380,l)
);
},
{
closed = 1;
nodes = (
(649,0,l),
(725,0,l),
(396,351,l),
(320,351,l)
);
}
);
width = 765;
}
);
leftKerningGroup = D2;
rightKerningGroup = R;
unicode = 82;
},
{
color = 2;
glyphname = Rstroke;
layers = (
{
layerId = "97350278-980A-4778-8478-A58DCFDD7560";
shapes = (
{
closed = 1;
nodes = (
(24,258,l),
(339,258,l),
(339,428,l),
(24,428,l)
);
},
{
closed = 1;
nodes = (
(282,250,l),
(574,250,ls),
(754,250,o),
(874,350,o),
(874,499,cs),
(874,650,o),
(754,750,o),
(574,750,cs),
(104,750,l),
(104,0,l),
(362,0,l),
(362,685,l),
(246,569,l),
(534,569,ls),
(585,569,o),
(614,544,o),
(614,499,cs),
(614,454,o),
(585,429,o),
(534,429,cs),
(282,429,l)
);
},
{
closed = 1;
nodes = (
(609,0,l),
(904,0,l),
(655,351,l),
(370,351,l)
);
}
);
width = 920;
},
{
layerId = "4A3736D9-1D75-4B42-9353-97DA234A9782";
shapes = (
{
closed = 1;
nodes = (
(18,300,l),
(263,300,l),
(263,398,l),
(18,398,l)
);
},
{
closed = 1;
nodes = (
(212,300,l),
(529,300,ls),
(687,300,o),
(794,391,o),
(794,524,cs),
(794,659,o),
(687,750,o),
(529,750,cs),
(120,750,l),
(120,0,l),
(252,0,l),
(252,710,l),
(193,636,l),
(517,636,ls),
(605,636,o),
(660,594,o),
(660,524,cs),
(660,455,o),
(605,412,o),
(517,412,cs),
(212,412,l)
);
},
{
closed = 1;
nodes = (
(655,0,l),
(813,0,l),
(515,351,l),
(360,351,l)
);
}
);
width = 847;
},
{
layerId = "8FDEF4EB-75F1-466F-B872-024C1FB72131";
shapes = (
{
closed = 1;
nodes = (
(14,330,l),
(203,330,l),
(203,380,l),
(14,380,l)
);
},
{
closed = 1;
nodes = (
(155,330,l),
(488,330,ls),
(633,330,o),
(732,416,o),
(732,540,cs),
(732,664,o),
(633,750,o),
(488,750,cs),
(116,750,l),
(116,0,l),
(172,0,l),
(172,725,l),
(147,700,l),
(493,700,ls),
(604,700,o),
(676,637,o),
(676,540,cs),
(676,443,o),
(604,380,o),
(493,380,cs),
(155,380,l)
);
},
{
closed = 1;
nodes = (
(668,0,l),
(744,0,l),
(415,351,l),
(339,351,l)
);
}
);
width = 784;
}
);
unicode = 588;
},
{
glyphname = Rtail;
layers = (
{
anchors = (
{
name = bottom;
position = "{295, -165}";
},
{
name = top;
position = "{415, 750}";
}
);
layerId = "4A3736D9-1D75-4B42-9353-97DA234A9782";
shapes = (
{
closed = 1;
nodes = (
(618,0,l),
(777,0,l),
(479,351,l),
(323,351,l)
);
},
{
closed = 1;
nodes = (
(84,39,ls),
(84,-98,o),
(153,-179,o),
(295,-179,cs),
(339,-179,o),
(383,-172,o),
(419,-157,c),
(419,-53,l),
(394,-62,o),
(363,-71,o),
(324,-71,cs),
(248,-71,o),
(216,-31,o),
(216,53,cs),
(216,300,l),
(493,300,ls),
(651,300,o),
(758,391,o),
(758,524,cs),
(758,659,o),
(651,750,o),
(493,750,cs),
(84,750,l)
);
},
{
closed = 1;
nodes = (
(216,636,l),
(481,636,ls),
(568,636,o),
(624,593,o),
(624,524,cs),
(624,455,o),
(568,412,o),
(481,412,cs),
(216,412,l)
);
}
);
width = 811;
},
{
anchors = (
{
name = bottom;
position = "{265, -165}";
},
{
name = top;
position = "{394, 750}";
}
);
layerId = "8FDEF4EB-75F1-466F-B872-024C1FB72131";
shapes = (
{
closed = 1;
nodes = (
(649,0,l),
(725,0,l),
(396,351,l),
(320,351,l)
);
},
{
closed = 1;
nodes = (
(97,8,ls),
(97,-103,o),
(157,-177,o),
(271,-177,cs),
(313,-177,o),
(354,-163,o),
(380,-147,c),
(380,-92,l),
(355,-108,o),
(315,-125,o),
(276,-125,cs),
(194,-125,o),
(153,-80,o),
(153,17,cs),
(153,330,l),
(469,330,ls),
(614,330,o),
(713,416,o),
(713,540,cs),
(713,664,o),
(614,750,o),
(469,750,cs),
(97,750,l)
);
},
{
closed = 1;
nodes = (
(153,700,l),
(474,700,ls),
(585,700,o),
(657,637,o),
(657,540,cs),
(657,443,o),
(585,380,o),
(474,380,cs),
(153,380,l)
);
}
);
width = 765;
},
{
anchors = (
{
name = bottom;
position = "{326, -165}";
},
{
name = top;
position = "{447, 750}";
}
);
layerId = "97350278-980A-4778-8478-A58DCFDD7560";
shapes = (
{
closed = 1;
nodes = (
(565,0,l),
(860,0,l),
(611,351,l),
(326,351,l)
);
},
{
closed = 1;
nodes = (
(60,90,ls),
(60,-89,o),
(145,-183,o),
(331,-183,cs),
(379,-183,o),
(437,-177,o),
(480,-164,c),
(480,23,l),
(457,16,o),
(428,10,o),
(396,10,cs),
(334,10,o),
(318,45,o),
(318,105,cs),
(318,250,l),
(530,250,ls),
(710,250,o),
(830,350,o),
(830,499,cs),
(830,650,o),
(710,750,o),
(530,750,cs),
(60,750,l)
);
},
{
closed = 1;
nodes = (
(318,569,l),
(490,569,ls),
(541,569,o),
(570,544,o),
(570,499,cs),
(570,454,o),
(541,429,o),
(490,429,cs),
(318,429,l)
);
}
);
width = 876;
}
);
unicode = 11364;
},
{
glyphname = S;
layers = (
{
anchors = (
{
name = bottom;
position = "{435, 0}";
},
{
name = top;
position = "{435, 750}";
}
);
layerId = "97350278-980A-4778-8478-A58DCFDD7560";
shapes = (
{
closed = 1;
nodes = (
(35,247,l),
(38,88,o),
(201,-18,o),
(446,-18,cs),
(682,-18,o),
(839,92,o),
(839,258,cs),
(839,390,o),
(750,458,o),
(530,472,cs),
(390,481,ls),
(319,486,o),
(300,503,o),
(300,526,cs),
(300,559,o),
(344,573,o),
(418,573,cs),
(504,573,o),
(551,551,o),
(557,515,c),
(819,515,l),
(808,667,o),
(649,768,o),
(423,768,cs),
(191,768,o),
(38,683,o),
(38,516,cs),
(38,383,o),
(131,298,o),
(357,283,cs),
(481,275,ls),
(559,270,o),
(578,252,o),
(578,228,cs),
(578,192,o),
(531,177,o),
(451,177,cs),
(359,177,o),
(304,203,o),
(297,247,c)
);
}
);
width = 870;
},
{
anchors = (
{
name = bottom;
position = "{401, 0}";
},
{
name = top;
position = "{401, 750}";
}
);
layerId = "4A3736D9-1D75-4B42-9353-97DA234A9782";
shapes = (
{
closed = 1;
nodes = (
(38,244,l),
(46,90,o),
(195,-14,o),
(411,-14,cs),
(623,-14,o),
(764,80,o),
(764,225,cs),
(764,348,o),
(698,399,o),
(496,427,cs),
(332,450,ls),
(224,465,o),
(186,490,o),
(186,544,cs),
(186,613,o),
(265,656,o),
(388,656,cs),
(517,656,o),
(601,604,o),
(611,525,c),
(745,525,l),
(736,668,o),
(593,764,o),
(391,764,cs),
(186,764,o),
(54,676,o),
(54,539,cs),
(54,417,o),
(131,355,o),
(313,331,cs),
(475,310,ls),
(593,295,o),
(632,270,o),
(632,211,cs),
(632,139,o),
(547,94,o),
(413,94,cs),
(277,94,o),
(184,153,o),
(172,244,c)
);
}
);
width = 803;
},
{
anchors = (
{
name = bottom;
position = "{383, 0}";
},
{
name = top;
position = "{383, 750}";
}
);
layerId = "8FDEF4EB-75F1-466F-B872-024C1FB72131";
shapes = (
{
closed = 1;
nodes = (
(43,242,l),
(53,91,o),
(195,-12,o),
(392,-12,cs),
(590,-12,o),
(721,71,o),
(721,211,cs),
(721,323,o),
(646,375,o),
(454,397,cs),
(333,411,ls),
(182,428,o),
(123,468,o),
(123,548,cs),
(123,650,o),
(221,711,o),
(373,711,cs),
(526,711,o),
(633,640,o),
(646,531,c),
(702,531,l),
(694,668,o),
(561,762,o),
(374,762,cs),
(192,762,o),
(67,679,o),
(67,548,cs),
(67,445,o),
(138,378,o),
(323,358,cs),
(450,344,ls),
(607,327,o),
(665,286,o),
(665,209,cs),
(665,103,o),
(558,39,o),
(393,39,cs),
(229,39,o),
(114,119,o),
(99,242,c)
);
}
);
width = 768;
}
);
leftKerningGroup = S2;
rightKerningGroup = S;
unicode = 83;
},
{
glyphname = Saltillo;
layers = (
{
anchors = (
{
name = top;
position = "{138, 750}";
}
);
layerId = "4A3736D9-1D75-4B42-9353-97DA234A9782";
shapes = (
{
closed = 1;
nodes = (
(88,260,l),
(186,260,l),
(206,750,l),
(69,750,l)
);
}
);
width = 275;
},
{
anchors = (
{
name = top;
position = "{117, 750}";
}
);
layerId = "8FDEF4EB-75F1-466F-B872-024C1FB72131";
shapes = (
{
closed = 1;
nodes = (
(93,260,l),
(141,260,l),
(147,750,l),
(87,750,l)
);
}
);
width = 234;
},
{
anchors = (
{
name = top;
position = "{169, 750}";
}
);
layerId = "97350278-980A-4778-8478-A58DCFDD7560";
shapes = (
{
closed = 1;
nodes = (
(79,260,l),
(259,260,l),
(300,750,l),
(38,750,l)
);
}
);
width = 338;
}
);
unicode = 42891;
},
{
glyphname = Germandbls;
layers = (
{
background = {
shapes = (
{
closed = 1;
nodes = (
(840,555,l),
(840,721,l),
(731,753,o),
(604,768,o),
(505,768,cs),
(198,768,o),
(48,645,o),
(48,401,cs),
(48,0,l),
(304,0,l),
(304,411,ls),
(304,527,o),
(364,580,o),
(505,580,cs),
(559,580,o),
(626,575,o),
(702,553,c),
(702,679,l),
(469,437,l),
(469,291,l),
(527,285,ls),
(677,269,o),
(702,256,o),
(702,221,cs),
(702,178,o),
(658,161,o),
(578,161,cs),
(511,161,o),
(454,173,o),
(355,206,c),
(355,19,l),
(443,-6,o),
(509,-18,o),
(609,-18,cs),
(818,-18,o),
(958,62,o),
(958,235,cs),
(958,345,o),
(890,419,o),
(614,444,cs),
(547,450,l),
(642,376,l)
);
}
);
};
layerId = "97350278-980A-4778-8478-A58DCFDD7560";
shapes = (
{
closed = 1;
nodes = (
(786,-18,o),
(920,62,o),
(920,227,cs),
(920,345,o),
(857,419,o),
(595,444,cs),
(532,450,l),
(627,376,l),
(856,543,l),
(856,705,l),
(765,741,o),
(628,768,o),
(488,768,cs),
(195,768,o),
(50,645,o),
(50,401,cs),
(50,0,l),
(306,0,l),
(306,411,ls),
(306,520,o),
(359,570,o),
(488,570,cs),
(548,570,o),
(627,564,o),
(718,537,c),
(718,653,l),
(454,450,l),
(454,291,l),
(507,285,ls),
(636,270,o),
(664,259,o),
(664,221,cs),
(664,178,o),
(627,161,o),
(557,161,cs),
(498,161,o),
(449,173,o),
(359,202,c),
(359,19,l),
(440,-6,o),
(496,-18,o),
(589,-18,cs)
);
}
);
width = 950;
},
{
layerId = "4A3736D9-1D75-4B42-9353-97DA234A9782";
shapes = (
{
closed = 1;
nodes = (
(719,-14,o),
(843,67,o),
(843,215,cs),
(843,331,o),
(775,400,o),
(538,425,cs),
(482,431,l),
(538,376,l),
(785,595,l),
(785,693,l),
(705,736,o),
(589,764,o),
(459,764,cs),
(199,764,o),
(75,628,o),
(75,441,cs),
(75,0,l),
(207,0,l),
(207,446,ls),
(207,578,o),
(293,648,o),
(458,648,cs),
(553,648,o),
(635,630,o),
(717,593,c),
(713,676,l),
(445,437,l),
(445,336,l),
(497,330,ls),
(664,310,o),
(709,279,o),
(709,212,cs),
(709,130,o),
(635,98,o),
(518,98,cs),
(447,98,o),
(379,110,o),
(294,140,c),
(294,25,l),
(372,-1,o),
(442,-14,o),
(527,-14,cs)
);
}
);
width = 884;
},
{
layerId = "8FDEF4EB-75F1-466F-B872-024C1FB72131";
shapes = (
{
closed = 1;
nodes = (
(674,-12,o),
(790,70,o),
(790,208,cs),
(790,317,o),
(723,379,o),
(516,403,cs),
(465,409,l),
(480,380,l),
(739,646,l),
(739,686,l),
(666,733,o),
(562,762,o),
(439,762,cs),
(191,762,o),
(88,629,o),
(88,466,cs),
(88,0,l),
(144,0,l),
(144,467,ls),
(144,621,o),
(250,710,o),
(437,710,cs),
(553,710,o),
(638,685,o),
(714,644,c),
(708,683,l),
(437,407,l),
(437,363,l),
(513,354,ls),
(677,335,o),
(732,292,o),
(732,206,cs),
(732,96,o),
(629,40,o),
(491,40,cs),
(413,40,o),
(333,53,o),
(252,86,c),
(252,29,l),
(328,2,o),
(406,-12,o),
(486,-12,cs)
);
}
);
width = 832;
}
);
unicode = 7838;
},
{
glyphname = T;
layers = (
{
anchors = (
{
name = bottom;
position = "{420, 0}";
},
{
name = center;
position = "{420, 375}";
},
{
name = top;
position = "{420, 750}";
}
);
guides = (
{
position = "{0, 585}";
}
);
layerId = "97350278-980A-4778-8478-A58DCFDD7560";
shapes = (
{
closed = 1;
nodes = (
(291,0,l),
(549,0,l),
(549,639,l),
(291,639,l)
);
},
{
closed = 1;
nodes = (
(21,520,l),
(819,520,l),
(819,750,l),
(21,750,l)
);
}
);
width = 840;
},
{
anchors = (
{
name = bottom;
position = "{392, 0}";
},
{
name = center;
position = "{392, 375}";
},
{
name = top;
position = "{392, 750}";
}
);
layerId = "4A3736D9-1D75-4B42-9353-97DA234A9782";
shapes = (
{
closed = 1;
nodes = (
(326,0,l),
(458,0,l),
(458,689,l),
(326,689,l)
);
},
{
closed = 1;
nodes = (
(16,634,l),
(768,634,l),
(768,750,l),
(16,750,l)
);
}
);
width = 784;
},
{
anchors = (
{
name = bottom;
position = "{375, 0}";
},
{
name = center;
position = "{375, 375}";
},
{
name = top;
position = "{375, 750}";
}
);
guides = (
{
position = "{0, 717}";
}
);
layerId = "8FDEF4EB-75F1-466F-B872-024C1FB72131";
shapes = (
{
closed = 1;
nodes = (
(347,0,l),
(403,0,l),
(403,720,l),
(347,720,l)
);
},
{
closed = 1;
nodes = (
(13,700,l),
(737,700,l),
(737,750,l),
(13,750,l)
);
}
);
width = 750;
}
);
leftKerningGroup = T2;
rightKerningGroup = T;
unicode = 84;
},
{
color = 2;
glyphname = Tbar;
layers = (
{
layerId = "97350278-980A-4778-8478-A58DCFDD7560";
shapes = (
{
closed = 1;
nodes = (
(118,227,l),
(732,227,l),
(732,397,l),
(118,397,l)
);
},
{
closed = 1;
nodes = (
(296,0,l),
(554,0,l),
(554,639,l),
(296,639,l)
);
},
{
closed = 1;
nodes = (
(26,520,l),
(824,520,l),
(824,750,l),
(26,750,l)
);
}
);
width = 850;
},
{
layerId = "4A3736D9-1D75-4B42-9353-97DA234A9782";
shapes = (
{
closed = 1;
nodes = (
(126,303,l),
(674,303,l),
(674,401,l),
(126,401,l)
);
},
{
closed = 1;
nodes = (
(334,0,l),
(466,0,l),
(466,689,l),
(334,689,l)
);
},
{
closed = 1;
nodes = (
(24,634,l),
(776,634,l),
(776,750,l),
(24,750,l)
);
}
);
width = 800;
},
{
layerId = "8FDEF4EB-75F1-466F-B872-024C1FB72131";
shapes = (
{
closed = 1;
nodes = (
(130,341,l),
(638,341,l),
(638,391,l),
(130,391,l)
);
},
{
closed = 1;
nodes = (
(356,0,l),
(412,0,l),
(412,720,l),
(356,720,l)
);
},
{
closed = 1;
nodes = (
(22,700,l),
(746,700,l),
(746,750,l),
(22,750,l)
);
}
);
width = 768;
}
);
leftKerningGroup = T2;
rightKerningGroup = T;
unicode = 358;
},
{
color = 2;
glyphname = Tdiagonalstroke;
layers = (
{
layerId = "18EF4CF3-4CEB-4A3C-A2EF-4BB48522AF96";
associatedMasterId = "97350278-980A-4778-8478-A58DCFDD7560";
name = "Black [705]";
shapes = (
{
closed = 1;
nodes = (
(138,-122,l),
(331,-122,l),
(837,872,l),
(644,872,l)
);
},
{
closed = 1;
nodes = (
(291,0,l),
(549,0,l),
(549,639,l),
(291,639,l)
);
},
{
closed = 1;
nodes = (
(21,520,l),
(819,520,l),
(819,750,l),
(21,750,l)
);
}
);
width = 862;
},
{
layerId = "97350278-980A-4778-8478-A58DCFDD7560";
shapes = (
{
closed = 1;
nodes = (
(138,-122,l),
(344,-122,l),
(950,872,l),
(744,872,l)
);
},
{
closed = 1;
nodes = (
(291,0,l),
(549,0,l),
(549,639,l),
(291,639,l)
);
},
{
closed = 1;
nodes = (
(21,520,l),
(819,520,l),
(819,750,l),
(21,750,l)
);
}
);
width = 862;
},
{
guides = (
{
position = "{0, 872}";
}
);
layerId = "E28897B8-13A7-4F1A-9ABA-5B086C73F531";
associatedMasterId = "4A3736D9-1D75-4B42-9353-97DA234A9782";
name = "Regular [705]";
shapes = (
{
closed = 1;
nodes = (
(154,-122,l),
(327,-122,l),
(898,872,l),
(725,872,l)
);
},
{
closed = 1;
nodes = (
(326,0,l),
(458,0,l),
(458,689,l),
(326,689,l)
);
},
{
closed = 1;
nodes = (
(16,634,l),
(768,634,l),
(768,750,l),
(16,750,l)
);
}
);
width = 795;
},
{
guides = (
{
position = "{0, 872}";
}
);
layerId = "4A3736D9-1D75-4B42-9353-97DA234A9782";
shapes = (
{
closed = 1;
nodes = (
(196,-122,l),
(308,-122,l),
(809,872,l),
(697,872,l)
);
},
{
closed = 1;
nodes = (
(326,0,l),
(458,0,l),
(458,689,l),
(326,689,l)
);
},
{
closed = 1;
nodes = (
(16,634,l),
(768,634,l),
(768,750,l),
(16,750,l)
);
}
);
width = 795;
},
{
layerId = "8FDEF4EB-75F1-466F-B872-024C1FB72131";
shapes = (
{
closed = 1;
nodes = (
(202,-122,l),
(255,-122,l),
(720,872,l),
(667,872,l)
);
},
{
closed = 1;
nodes = (
(347,0,l),
(403,0,l),
(403,720,l),
(347,720,l)
);
},
{
closed = 1;
nodes = (
(13,700,l),
(737,700,l),
(737,750,l),
(13,750,l)
);
}
);
width = 742;
},
{
layerId = "14BCB3E6-570F-4F38-AC09-A287191C401E";
name = "Light.Light [705]";
shapes = (
{
closed = 1;
nodes = (
(202,-122,l),
(255,-122,l),
(720,872,l),
(667,872,l)
);
},
{
closed = 1;
nodes = (
(347,0,l),
(403,0,l),
(403,720,l),
(347,720,l)
);
},
{
closed = 1;
nodes = (
(13,700,l),
(737,700,l),
(737,750,l),
(13,750,l)
);
}
);
width = 742;
}
);
unicode = 574;
},
{
glyphname = Thook;
layers = (
{
layerId = "97350278-980A-4778-8478-A58DCFDD7560";
shapes = (
{
closed = 1;
nodes = (
(393,0,l),
(651,0,l),
(651,639,l),
(393,639,l)
);
},
{
closed = 1;
nodes = (
(248,750,ls),
(83,750,o),
(15,673,o),
(15,555,cs),
(15,487,o),
(37,437,o),
(58,394,c),
(243,394,l),
(238,409,o),
(231,435,o),
(231,460,cs),
(231,500,o),
(253,520,o),
(302,520,cs),
(921,520,l),
(921,750,l)
);
}
);
width = 942;
},
{
layerId = "4A3736D9-1D75-4B42-9353-97DA234A9782";
shapes = (
{
closed = 1;
nodes = (
(401,0,l),
(533,0,l),
(533,689,l),
(401,689,l)
);
},
{
closed = 1;
nodes = (
(200,750,ls),
(84,750,o),
(22,692,o),
(22,589,cs),
(22,535,o),
(41,484,o),
(58,447,c),
(164,447,l),
(150,482,o),
(139,516,o),
(139,553,cs),
(139,611,o),
(172,634,o),
(228,634,cs),
(843,634,l),
(843,750,l)
);
}
);
width = 859;
},
{
layerId = "8FDEF4EB-75F1-466F-B872-024C1FB72131";
shapes = (
{
closed = 1;
nodes = (
(406,0,l),
(462,0,l),
(462,720,l),
(406,720,l)
);
},
{
closed = 1;
nodes = (
(171,750,ls),
(85,750,o),
(27,704,o),
(27,610,cs),
(27,564,o),
(45,513,o),
(61,479,c),
(116,479,l),
(97,526,o),
(84,565,o),
(84,610,cs),
(84,677,o),
(123,700,o),
(184,700,cs),
(796,700,l),
(796,750,l)
);
}
);
width = 809;
}
);
unicode = 428;
},
{
glyphname = Tretroflexhook;
layers = (
{
anchors = (
{
name = bottom;
position = "{490, -165}";
},
{
name = top;
position = "{392, 750}";
}
);
layerId = "4A3736D9-1D75-4B42-9353-97DA234A9782";
shapes = (
{
closed = 1;
nodes = (
(16,634,l),
(768,634,l),
(768,750,l),
(16,750,l)
);
},
{
closed = 1;
nodes = (
(490,-71,o),
(458,-31,o),
(458,53,cs),
(458,689,l),
(326,689,l),
(326,39,ls),
(326,-98,o),
(395,-179,o),
(537,-179,cs),
(581,-179,o),
(624,-172,o),
(660,-157,c),
(660,-53,l),
(635,-62,o),
(604,-71,o),
(565,-71,cs)
);
}
);
width = 784;
},
{
anchors = (
{
name = bottom;
position = "{494, -165}";
},
{
name = top;
position = "{375, 750}";
}
);
layerId = "8FDEF4EB-75F1-466F-B872-024C1FB72131";
shapes = (
{
closed = 1;
nodes = (
(13,700,l),
(737,700,l),
(737,750,l),
(13,750,l)
);
},
{
closed = 1;
nodes = (
(444,-125,o),
(403,-80,o),
(403,17,cs),
(403,720,l),
(347,720,l),
(347,8,ls),
(347,-103,o),
(407,-177,o),
(521,-177,cs),
(563,-177,o),
(604,-163,o),
(630,-147,c),
(630,-92,l),
(605,-108,o),
(565,-125,o),
(526,-125,cs)
);
}
);
width = 750;
},
{
anchors = (
{
name = bottom;
position = "{508, -165}";
},
{
name = top;
position = "{420, 750}";
}
);
layerId = "97350278-980A-4778-8478-A58DCFDD7560";
shapes = (
{
closed = 1;
nodes = (
(21,520,l),
(819,520,l),
(819,750,l),
(21,750,l)
);
},
{
closed = 1;
nodes = (
(565,10,o),
(549,45,o),
(549,105,cs),
(549,639,l),
(291,639,l),
(291,90,ls),
(291,-89,o),
(376,-183,o),
(562,-183,cs),
(610,-183,o),
(668,-177,o),
(711,-164,c),
(711,23,l),
(688,16,o),
(659,10,o),
(627,10,cs)
);
}
);
width = 844;
}
);
unicode = 430;
},
{
glyphname = U;
layers = (
{
anchors = (
{
name = bottom;
position = "{444, 0}";
},
{
name = ogonek;
position = "{584, 0}";
},
{
name = top;
position = "{444, 750}";
},
{
name = topright;
position = "{793, 745}";
}
);
guides = (
{
angle = 26.565;
position = "{270, 962}";
}
);
layerId = "97350278-980A-4778-8478-A58DCFDD7560";
shapes = (
{
closed = 1;
nodes = (
(308,750,l),
(50,750,l),
(50,330,ls),
(50,121,o),
(208,-18,o),
(444,-18,cs),
(681,-18,o),
(838,121,o),
(838,330,cs),
(838,750,l),
(580,750,l),
(580,344,ls),
(580,261,o),
(539,212,o),
(444,212,cs),
(350,212,o),
(308,262,o),
(308,344,cs)
);
}
);
width = 889;
},
{
anchors = (
{
name = bottom;
position = "{431, 0}";
},
{
name = ogonek;
position = "{541, 0}";
},
{
name = top;
position = "{431, 750}";
},
{
name = topright;
position = "{771, 744}";
}
);
layerId = "4A3736D9-1D75-4B42-9353-97DA234A9782";
shapes = (
{
closed = 1;
nodes = (
(206,750,l),
(74,750,l),
(74,317,ls),
(74,119,o),
(218,-14,o),
(431,-14,cs),
(644,-14,o),
(788,119,o),
(788,317,cs),
(788,750,l),
(656,750,l),
(656,322,ls),
(656,188,o),
(572,104,o),
(431,104,cs),
(291,104,o),
(206,188,o),
(206,322,cs)
);
}
);
width = 862;
},
{
anchors = (
{
name = bottom;
position = "{422, 0}";
},
{
name = ogonek;
position = "{513, 0}";
},
{
name = top;
position = "{422, 750}";
},
{
name = topright;
position = "{757, 743}";
}
);
guides = (
{
angle = 6.34;
position = "{221, 641}";
}
);
layerId = "8FDEF4EB-75F1-466F-B872-024C1FB72131";
shapes = (
{
closed = 1;
nodes = (
(143,750,l),
(87,750,l),
(87,308,ls),
(87,118,o),
(223,-12,o),
(422,-12,cs),
(621,-12,o),
(757,118,o),
(757,308,cs),
(757,750,l),
(701,750,l),
(701,308,ls),
(701,145,o),
(591,40,o),
(422,40,cs),
(253,40,o),
(143,145,o),
(143,308,cs)
);
}
);
width = 844;
}
);
leftKerningGroup = U2;
rightKerningGroup = U;
unicode = 85;
},
{
color = 2;
glyphname = Ubar;
layers = (
{
layerId = "97350278-980A-4778-8478-A58DCFDD7560";
shapes = (
{
closed = 1;
nodes = (
(29,355,l),
(977,355,l),
(977,525,l),
(29,525,l)
);
},
{
closed = 1;
nodes = (
(367,750,l),
(109,750,l),
(109,330,ls),
(109,121,o),
(267,-18,o),
(503,-18,cs),
(740,-18,o),
(897,121,o),
(897,330,cs),
(897,750,l),
(639,750,l),
(639,344,ls),
(639,261,o),
(598,212,o),
(503,212,cs),
(409,212,o),
(367,262,o),
(367,344,cs)
);
}
);
width = 1006;
},
{
layerId = "4A3736D9-1D75-4B42-9353-97DA234A9782";
shapes = (
{
closed = 1;
nodes = (
(18,366,l),
(916,366,l),
(916,464,l),
(18,464,l)
);
},
{
closed = 1;
nodes = (
(242,750,l),
(110,750,l),
(110,317,ls),
(110,119,o),
(254,-14,o),
(467,-14,cs),
(680,-14,o),
(824,119,o),
(824,317,cs),
(824,750,l),
(692,750,l),
(692,322,ls),
(692,188,o),
(608,104,o),
(467,104,cs),
(327,104,o),
(242,188,o),
(242,322,cs)
);
}
);
width = 934;
},
{
layerId = "8FDEF4EB-75F1-466F-B872-024C1FB72131";
shapes = (
{
closed = 1;
nodes = (
(11,375,l),
(877,375,l),
(877,425,l),
(11,425,l)
);
},
{
closed = 1;
nodes = (
(165,750,l),
(109,750,l),
(109,308,ls),
(109,118,o),
(245,-12,o),
(444,-12,cs),
(643,-12,o),
(779,118,o),
(779,308,cs),
(779,750,l),
(723,750,l),
(723,308,ls),
(723,145,o),
(613,40,o),
(444,40,cs),
(275,40,o),
(165,145,o),
(165,308,cs)
);
}
);
width = 888;
}
);
unicode = 580;
},
{
glyphname = Uogonek;
layers = (
{
anchors = (
{
name = bottom;
position = "{431, 0}";
},
{
name = top;
position = "{431, 750}";
},
{
name = topright;
position = "{771, 744}";
}
);
background = {
shapes = (
{
closed = 1;
nodes = (
(649,323,ls),
(649,189,o),
(565,105,o),
(424,105,cs),
(284,105,o),
(199,189,o),
(199,323,cs),
(199,750,l),
(67,750,l),
(67,318,ls),
(67,129,o),
(199,-1,o),
(395,-12,c),
(342,-39,o),
(318,-70,o),
(318,-107,cs),
(318,-162,o),
(376,-197,o),
(462,-197,cs),
(498,-197,o),
(536,-191,o),
(554,-185,c),
(554,-102,l),
(536,-106,o),
(513,-108,o),
(492,-108,cs),
(442,-108,o),
(416,-97,o),
(416,-76,cs),
(416,-47,o),
(464,-22,o),
(547,3,cs),
(689,45,o),
(781,156,o),
(781,318,cs),
(781,750,l),
(649,750,l)
);
}
);
};
layerId = "4A3736D9-1D75-4B42-9353-97DA234A9782";
shapes = (
{
closed = 1;
nodes = (
(656,323,ls),
(656,189,o),
(572,105,o),
(431,105,cs),
(291,105,o),
(206,189,o),
(206,323,cs),
(206,750,l),
(74,750,l),
(74,318,ls),
(74,114,o),
(227,-21,o),
(448,-12,c),
(441,5,l),
(360,-25,o),
(325,-61,o),
(325,-107,cs),
(325,-162,o),
(383,-197,o),
(469,-197,cs),
(505,-197,o),
(543,-191,o),
(561,-185,c),
(561,-102,l),
(543,-106,o),
(520,-108,o),
(499,-108,cs),
(449,-108,o),
(423,-97,o),
(423,-76,cs),
(423,-47,o),
(471,-22,o),
(554,3,cs),
(696,45,o),
(788,156,o),
(788,318,cs),
(788,750,l),
(656,750,l)
);
}
);
width = 862;
},
{
anchors = (
{
name = bottom;
position = "{422, 0}";
},
{
name = top;
position = "{422, 750}";
},
{
name = topright;
position = "{757, 743}";
}
);
layerId = "8FDEF4EB-75F1-466F-B872-024C1FB72131";
shapes = (
{
closed = 1;
nodes = (
(701,310,ls),
(701,145,o),
(591,39,o),
(422,39,cs),
(253,39,o),
(143,145,o),
(143,310,cs),
(143,750,l),
(87,750,l),
(87,310,ls),
(87,118,o),
(226,-12,o),
(427,-10,c),
(431,-1,l),
(360,-31,o),
(332,-66,o),
(332,-105,cs),
(332,-152,o),
(383,-181,o),
(460,-181,cs),
(487,-181,o),
(516,-177,o),
(533,-172,c),
(533,-130,l),
(515,-134,o),
(489,-136,o),
(469,-136,cs),
(413,-136,o),
(384,-122,o),
(384,-95,cs),
(384,-56,o),
(439,-24,o),
(534,5,cs),
(667,46,o),
(757,150,o),
(757,310,cs),
(757,750,l),
(701,750,l)
);
}
);
width = 844;
},
{
anchors = (
{
name = bottom;
position = "{444, 0}";
},
{
name = top;
position = "{444, 750}";
},
{
name = topright;
position = "{793, 745}";
}
);
background = {
shapes = (
{
closed = 1;
nodes = (
(578,344,ls),
(578,261,o),
(537,212,o),
(442,212,cs),
(348,212,o),
(306,262,o),
(306,344,cs),
(306,750,l),
(48,750,l),
(48,330,ls),
(48,137,o),
(183,4,o),
(389,-16,c),
(336,-43,o),
(309,-79,o),
(309,-124,cs),
(309,-183,o),
(378,-222,o),
(481,-222,cs),
(531,-222,o),
(584,-213,o),
(602,-206,c),
(602,-82,l),
(585,-86,o),
(567,-89,o),
(545,-89,cs),
(505,-89,o),
(483,-80,o),
(483,-63,cs),
(483,-42,o),
(518,-19,o),
(582,0,cs),
(739,44,o),
(836,165,o),
(836,330,cs),
(836,750,l),
(578,750,l)
);
}
);
};
layerId = "97350278-980A-4778-8478-A58DCFDD7560";
shapes = (
{
closed = 1;
nodes = (
(580,344,ls),
(580,261,o),
(539,212,o),
(444,212,cs),
(350,212,o),
(308,262,o),
(308,344,cs),
(308,750,l),
(50,750,l),
(50,330,ls),
(50,109,o),
(227,-33,o),
(484,-17,c),
(502,11,l),
(376,-13,o),
(311,-55,o),
(311,-117,cs),
(311,-180,o),
(380,-222,o),
(483,-222,cs),
(533,-222,o),
(586,-213,o),
(604,-206,c),
(604,-82,l),
(587,-86,o),
(569,-89,o),
(547,-89,cs),
(507,-89,o),
(485,-80,o),
(485,-63,cs),
(485,-42,o),
(520,-19,o),
(584,0,cs),
(741,44,o),
(838,165,o),
(838,330,cs),
(838,750,l),
(580,750,l)
);
}
);
width = 889;
}
);
leftKerningGroup = U2;
rightKerningGroup = U;
unicode = 370;
},
{
glyphname = Upsilonafrican;
layers = (
{
anchors = (
{
name = bottom;
position = "{474, 0}";
},
{
name = top;
position = "{474, 750}";
}
);
layerId = "4A3736D9-1D75-4B42-9353-97DA234A9782";
shapes = (
{
closed = 1;
nodes = (
(741,-14,o),
(881,145,o),
(881,348,cs),
(881,509,o),
(781,638,o),
(614,700,c),
(640,640,l),
(903,640,l),
(903,750,l),
(563,750,l),
(563,648,l),
(686,585,o),
(751,495,o),
(751,375,cs),
(751,210,o),
(648,105,o),
(474,105,cs),
(300,105,o),
(197,210,o),
(197,375,cs),
(197,495,o),
(262,585,o),
(385,648,c),
(385,750,l),
(45,750,l),
(45,640,l),
(308,640,l),
(334,700,l),
(166,638,o),
(67,509,o),
(67,348,cs),
(67,145,o),
(207,-14,o),
(474,-14,cs)
);
}
);
width = 948;
},
{
anchors = (
{
name = bottom;
position = "{454, 0}";
},
{
name = top;
position = "{454, 750}";
}
);
layerId = "8FDEF4EB-75F1-466F-B872-024C1FB72131";
shapes = (
{
closed = 1;
nodes = (
(702,-12,o),
(840,150,o),
(840,356,cs),
(840,508,o),
(755,637,o),
(618,709,c),
(604,700,l),
(862,700,l),
(862,750,l),
(552,750,l),
(552,700,l),
(709,619,o),
(782,509,o),
(782,361,cs),
(782,165,o),
(661,41,o),
(454,41,cs),
(247,41,o),
(126,165,o),
(126,361,cs),
(126,509,o),
(199,619,o),
(356,700,c),
(356,750,l),
(46,750,l),
(46,700,l),
(304,700,l),
(289,708,l),
(152,636,o),
(68,508,o),
(68,356,cs),
(68,150,o),
(206,-12,o),
(454,-12,cs)
);
}
);
width = 908;
},
{
anchors = (
{
name = bottom;
position = "{501, 0}";
},
{
name = top;
position = "{501, 750}";
}
);
layerId = "97350278-980A-4778-8478-A58DCFDD7560";
shapes = (
{
closed = 1;
nodes = (
(799,-18,o),
(944,137,o),
(944,334,cs),
(944,510,o),
(818,640,o),
(600,686,c),
(694,572,l),
(964,572,l),
(964,750,l),
(574,750,l),
(574,591,l),
(642,558,o),
(692,489,o),
(692,397,cs),
(692,284,o),
(620,212,o),
(501,212,cs),
(382,212,o),
(310,284,o),
(310,397,cs),
(310,489,o),
(360,558,o),
(428,591,c),
(428,750,l),
(38,750,l),
(38,572,l),
(308,572,l),
(402,686,l),
(184,640,o),
(58,510,o),
(58,334,cs),
(58,137,o),
(203,-18,o),
(501,-18,cs)
);
}
);
width = 1002;
}
);
unicode = 433;
},
{
glyphname = V;
layers = (
{
anchors = (
{
name = bottom;
position = "{484, 0}";
},
{
name = top;
position = "{484, 750}";
}
);
guides = (
{
angle = 173.66;
position = "{306, 962}";
}
);
layerId = "97350278-980A-4778-8478-A58DCFDD7560";
shapes = (
{
closed = 1;
nodes = (
(273,750,l),
(-3,750,l),
(337,0,l),
(631,0,l),
(971,750,l),
(701,750,l),
(434,118,l),
(540,118,l)
);
}
);
width = 968;
},
{
anchors = (
{
name = bottom;
position = "{443, 0}";
},
{
name = top;
position = "{443, 750}";
}
);
layerId = "4A3736D9-1D75-4B42-9353-97DA234A9782";
shapes = (
{
closed = 1;
nodes = (
(149,750,l),
(7,750,l),
(369,0,l),
(516,0,l),
(878,750,l),
(737,750,l),
(414,56,l),
(476,56,l)
);
}
);
width = 885;
},
{
anchors = (
{
name = bottom;
position = "{419, 0}";
},
{
name = top;
position = "{419, 750}";
}
);
layerId = "8FDEF4EB-75F1-466F-B872-024C1FB72131";
shapes = (
{
closed = 1;
nodes = (
(77,750,l),
(15,750,l),
(390,0,l),
(448,0,l),
(823,750,l),
(760,750,l),
(402,18,l),
(437,18,l)
);
}
);
width = 838;
}
);
leftKerningGroup = V2;
rightKerningGroup = V;
unicode = 86;
},
{
glyphname = Gammaafrican;
layers = (
{
anchors = (
{
name = bottom;
position = "{437, 0}";
},
{
name = top;
position = "{437, 750}";
}
);
layerId = "4A3736D9-1D75-4B42-9353-97DA234A9782";
shapes = (
{
closed = 1;
nodes = (
(297,26,l),
(473,250,l),
(401,250,l),
(577,29,l),
(600,92,l),
(273,92,l)
);
},
{
closed = 1;
nodes = (
(745,0,l),
(479,333,l),
(491,260,l),
(872,750,l),
(730,750,l),
(412,346,l),
(468,337,l),
(149,750,l),
(1,750,l),
(381,259,l),
(391,329,l),
(132,0,l)
);
}
);
width = 874;
},
{
anchors = (
{
name = bottom;
position = "{420, 0}";
},
{
name = top;
position = "{420, 750}";
}
);
layerId = "8FDEF4EB-75F1-466F-B872-024C1FB72131";
shapes = (
{
closed = 1;
nodes = (
(246,13,l),
(436,255,l),
(405,255,l),
(599,13,l),
(612,50,l),
(237,50,l)
);
},
{
closed = 1;
nodes = (
(677,0,l),
(443,292,l),
(445,266,l),
(824,750,l),
(761,750,l),
(408,304,l),
(431,304,l),
(86,750,l),
(16,750,l),
(392,269,l),
(395,289,l),
(168,0,l)
);
}
);
width = 840;
},
{
anchors = (
{
name = bottom;
position = "{478, 0}";
},
{
name = top;
position = "{478, 750}";
}
);
layerId = "97350278-980A-4778-8478-A58DCFDD7560";
shapes = (
{
closed = 1;
nodes = (
(373,46,l),
(527,241,l),
(430,241,l),
(576,56,l),
(594,115,l),
(347,115,l)
);
},
{
closed = 1;
nodes = (
(869,0,l),
(551,401,l),
(579,250,l),
(965,750,l),
(693,750,l),
(433,415,l),
(543,392,l),
(266,750,l),
(-9,750,l),
(378,242,l),
(399,394,l),
(87,0,l)
);
}
);
width = 956;
}
);
unicode = 404;
},
{
glyphname = Vhook;
layers = (
{
anchors = (
{
name = bottom;
position = "{397, 0}";
},
{
name = top;
position = "{354, 750}";
}
);
layerId = "4A3736D9-1D75-4B42-9353-97DA234A9782";
shapes = (
{
closed = 1;
nodes = (
(76,308,ls),
(76,120,o),
(177,-14,o),
(383,-14,cs),
(644,-14,o),
(818,204,o),
(818,484,cs),
(818,672,o),
(729,764,o),
(570,764,cs),
(513,764,o),
(459,750,o),
(428,735,c),
(428,623,l),
(460,639,o),
(497,650,o),
(540,650,cs),
(630,650,o),
(684,591,o),
(684,483,cs),
(684,252,o),
(549,104,o),
(393,104,cs),
(263,104,o),
(208,192,o),
(208,312,cs),
(208,750,l),
(76,750,l)
);
}
);
width = 865;
},
{
anchors = (
{
name = bottom;
position = "{413, 0}";
},
{
name = top;
position = "{350, 750}";
}
);
layerId = "8FDEF4EB-75F1-466F-B872-024C1FB72131";
shapes = (
{
closed = 1;
nodes = (
(89,291,ls),
(89,123,o),
(168,-12,o),
(373,-12,cs),
(616,-12,o),
(787,200,o),
(787,507,cs),
(787,678,o),
(706,762,o),
(563,762,cs),
(512,762,o),
(460,745,o),
(432,728,c),
(432,677,l),
(466,696,o),
(510,710,o),
(558,710,cs),
(662,710,o),
(729,642,o),
(729,507,cs),
(729,208,o),
(557,40,o),
(373,40,cs),
(205,40,o),
(145,159,o),
(145,289,cs),
(145,750,l),
(89,750,l)
);
}
);
width = 842;
},
{
anchors = (
{
name = bottom;
position = "{418, 0}";
},
{
name = top;
position = "{418, 750}";
}
);
layerId = "97350278-980A-4778-8478-A58DCFDD7560";
shapes = (
{
closed = 1;
nodes = (
(51,337,ls),
(51,115,o),
(187,-18,o),
(396,-18,cs),
(685,-18,o),
(863,220,o),
(863,472,cs),
(863,670,o),
(762,768,o),
(578,768,cs),
(509,768,o),
(454,758,o),
(418,746,c),
(418,562,l),
(445,572,o),
(472,579,o),
(506,579,cs),
(572,579,o),
(603,534,o),
(603,471,cs),
(603,333,o),
(529,207,o),
(420,207,cs),
(353,207,o),
(307,246,o),
(307,350,cs),
(307,750,l),
(51,750,l)
);
}
);
width = 896;
}
);
unicode = 434;
},
{
glyphname = Vturned;
layers = (
{
anchors = (
{
name = bottom;
position = "{474, 0}";
},
{
name = top;
position = "{474, 750}";
}
);
guides = (
{
angle = 173.66;
position = "{474, 750}";
}
);
layerId = "97350278-980A-4778-8478-A58DCFDD7560";
shapes = (
{
closed = 1;
nodes = (
(263,0,l),
(530,632,l),
(424,632,l),
(691,0,l),
(951,0,l),
(621,750,l),
(327,750,l),
(-3,0,l)
);
}
);
width = 948;
},
{
anchors = (
{
name = bottom;
position = "{440, 0}";
},
{
name = top;
position = "{440, 750}";
}
);
guides = (
{
angle = 177.614;
position = "{440, 750}";
}
);
layerId = "4A3736D9-1D75-4B42-9353-97DA234A9782";
shapes = (
{
closed = 1;
nodes = (
(148,0,l),
(472,694,l),
(410,694,l),
(734,0,l),
(872,0,l),
(514,750,l),
(366,750,l),
(8,0,l)
);
}
);
width = 880;
},
{
anchors = (
{
name = bottom;
position = "{418, 0}";
},
{
name = top;
position = "{418, 750}";
}
);
guides = (
{
angle = 178.315;
position = "{418, 750}";
}
);
layerId = "8FDEF4EB-75F1-466F-B872-024C1FB72131";
shapes = (
{
closed = 1;
nodes = (
(76,0,l),
(436,732,l),
(401,732,l),
(759,0,l),
(822,0,l),
(447,750,l),
(389,750,l),
(14,0,l)
);
}
);
width = 836;
}
);
unicode = 581;
},
{
glyphname = W;
layers = (
{
anchors = (
{
name = bottom;
position = "{695, 0}";
},
{
name = top;
position = "{695, 750}";
}
);
guides = (
{
angle = 45;
position = "{198, 962}";
}
);
layerId = "97350278-980A-4778-8478-A58DCFDD7560";
shapes = (
{
closed = 1;
nodes = (
(830,750,l),
(560,750,l),
(365,115,l),
(440,114,l),
(282,750,l),
(8,750,l),
(219,0,l),
(551,0,l),
(745,609,l),
(645,609,l),
(839,0,l),
(1171,0,l),
(1382,750,l),
(1109,750,l),
(951,113,l),
(1026,114,l)
);
}
);
width = 1390;
},
{
anchors = (
{
name = bottom;
position = "{658, 0}";
},
{
name = top;
position = "{658, 750}";
}
);
layerId = "4A3736D9-1D75-4B42-9353-97DA234A9782";
shapes = (
{
closed = 1;
nodes = (
(730,750,l),
(587,750,l),
(334,51,l),
(382,50,l),
(153,750,l),
(14,750,l),
(268,0,l),
(436,0,l),
(689,687,l),
(627,687,l),
(880,0,l),
(1048,0,l),
(1302,750,l),
(1164,750,l),
(934,50,l),
(984,50,l)
);
}
);
width = 1316;
},
{
anchors = (
{
name = bottom;
position = "{643, 0}";
},
{
name = top;
position = "{643, 750}";
}
);
guides = (
{
angle = 181.052;
position = "{486, 579}";
}
);
layerId = "8FDEF4EB-75F1-466F-B872-024C1FB72131";
shapes = (
{
closed = 1;
nodes = (
(676,750,l),
(610,750,l),
(322,11,l),
(356,11,l),
(83,750,l),
(25,750,l),
(306,0,l),
(373,0,l),
(662,734,l),
(624,734,l),
(913,0,l),
(980,0,l),
(1261,750,l),
(1203,750,l),
(930,11,l),
(965,11,l)
);
}
);
width = 1286;
}
);
leftKerningGroup = W2;
rightKerningGroup = W;
unicode = 87;
},
{
glyphname = Whook;
layers = (
{
anchors = (
{
name = bottom;
position = "{657, 0}";
},
{
name = top;
position = "{657, 750}";
}
);
guides = (
{
position = "{0, 123}";
}
);
layerId = "4A3736D9-1D75-4B42-9353-97DA234A9782";
shapes = (
{
closed = 1;
nodes = (
(728,750,l),
(585,750,l),
(332,51,l),
(380,50,l),
(154,750,l),
(15,750,l),
(266,0,l),
(434,0,l),
(687,687,l),
(625,687,l),
(870,0,l),
(1038,0,l),
(1241,601,ls),
(1256,644,o),
(1270,656,o),
(1297,656,cs),
(1314,656,o),
(1329,651,o),
(1342,646,c),
(1342,750,l),
(1316,759,o),
(1287,764,o),
(1261,764,cs),
(1188,764,o),
(1150,732,o),
(1122,647,cs),
(925,50,l),
(974,50,l)
);
}
);
width = 1376;
},
{
anchors = (
{
name = bottom;
position = "{634, 0}";
},
{
name = top;
position = "{634, 750}";
}
);
layerId = "8FDEF4EB-75F1-466F-B872-024C1FB72131";
shapes = (
{
closed = 1;
nodes = (
(667,750,l),
(601,750,l),
(312,11,l),
(346,11,l),
(84,750,l),
(26,750,l),
(296,0,l),
(363,0,l),
(653,734,l),
(615,734,l),
(903,0,l),
(970,0,l),
(1208,657,ls),
(1222,695,o),
(1242,710,o),
(1270,710,cs),
(1290,710,o),
(1308,704,o),
(1327,695,c),
(1327,749,l),
(1312,756,o),
(1293,762,o),
(1270,762,cs),
(1205,762,o),
(1175,725,o),
(1156,672,cs),
(920,11,l),
(955,11,l)
);
}
);
width = 1364;
},
{
anchors = (
{
name = bottom;
position = "{694, 0}";
},
{
name = top;
position = "{694, 750}";
}
);
layerId = "97350278-980A-4778-8478-A58DCFDD7560";
shapes = (
{
closed = 1;
nodes = (
(830,750,l),
(560,750,l),
(365,115,l),
(440,114,l),
(282,750,l),
(8,750,l),
(219,0,l),
(551,0,l),
(745,609,l),
(645,609,l),
(828,0,l),
(1160,0,l),
(1315,533,ls),
(1323,561,o),
(1339,577,o),
(1370,577,cs),
(1391,577,o),
(1406,571,o),
(1419,565,c),
(1419,749,l),
(1380,761,o),
(1342,768,o),
(1296,768,cs),
(1161,768,o),
(1093,704,o),
(1057,565,cs),
(940,113,l),
(1015,114,l)
);
}
);
width = 1453;
}
);
unicode = 11378;
},
{
glyphname = X;
layers = (
{
anchors = (
{
name = bottom;
position = "{461, 0}";
},
{
name = top;
position = "{461, 750}";
}
);
guides = (
{
angle = 177.614;
position = "{303, 962}";
}
);
layerId = "97350278-980A-4778-8478-A58DCFDD7560";
shapes = (
{
closed = 1;
nodes = (
(917,750,l),
(598,750,l),
(400,483,l),
(530,483,l),
(328,750,l),
(5,750,l),
(369,310,l),
(369,469,l),
(-14,0,l),
(299,0,l),
(525,297,l),
(395,297,l),
(619,0,l),
(936,0,l),
(556,469,l),
(556,310,l)
);
}
);
width = 922;
},
{
anchors = (
{
name = bottom;
position = "{397, 0}";
},
{
name = top;
position = "{397, 750}";
}
);
layerId = "4A3736D9-1D75-4B42-9353-97DA234A9782";
shapes = (
{
closed = 1;
nodes = (
(774,750,l),
(615,750,l),
(370,441,l),
(430,441,l),
(183,750,l),
(19,750,l),
(345,355,l),
(345,427,l),
(-6,0,l),
(153,0,l),
(424,340,l),
(366,340,l),
(636,0,l),
(799,0,l),
(449,429,l),
(449,353,l)
);
}
);
width = 793;
},
{
anchors = (
{
name = bottom;
position = "{359, 0}";
},
{
name = top;
position = "{358, 750}";
}
);
guides = (
{
angle = 180.606;
position = "{476, 579}";
}
);
layerId = "8FDEF4EB-75F1-466F-B872-024C1FB72131";
shapes = (
{
closed = 1;
nodes = (
(687,750,l),
(620,750,l),
(346,416,l),
(371,416,l),
(96,750,l),
(29,750,l),
(331,382,l),
(331,402,l),
(0,0,l),
(70,0,l),
(370,367,l),
(347,367,l),
(646,0,l),
(716,0,l),
(384,405,l),
(384,379,l)
);
}
);
width = 716;
}
);
leftKerningGroup = X2;
rightKerningGroup = X;
unicode = 88;
},
{
glyphname = Y;
layers = (
{
anchors = (
{
name = bottom;
position = "{478, 0}";
},
{
name = top;
position = "{478, 750}";
},
{
name = topleft;
position = "{-4, 750}";
}
);
layerId = "97350278-980A-4778-8478-A58DCFDD7560";
shapes = (
{
closed = 1;
nodes = (
(608,0,l),
(608,370,l),
(350,370,l),
(350,0,l)
);
},
{
closed = 1;
nodes = (
(395,241,l),
(562,244,l),
(956,750,l),
(673,750,l),
(425,429,l),
(532,429,l),
(283,750,l),
(0,750,l)
);
}
);
width = 957;
},
{
anchors = (
{
name = bottom;
position = "{435, 0}";
},
{
name = top;
position = "{436, 750}";
},
{
name = topleft;
position = "{15, 750}";
}
);
layerId = "4A3736D9-1D75-4B42-9353-97DA234A9782";
shapes = (
{
closed = 1;
nodes = (
(502,0,l),
(502,358,l),
(370,358,l),
(370,0,l)
);
},
{
closed = 1;
nodes = (
(394,276,l),
(478,277,l),
(855,750,l),
(706,750,l),
(400,366,l),
(471,366,l),
(165,750,l),
(16,750,l)
);
}
);
width = 871;
},
{
anchors = (
{
name = bottom;
position = "{409, 0}";
},
{
name = top;
position = "{409, 750}";
},
{
name = topleft;
position = "{27, 750}";
}
);
guides = (
{
angle = 177.397;
position = "{410, 351}";
}
);
layerId = "8FDEF4EB-75F1-466F-B872-024C1FB72131";
shapes = (
{
closed = 1;
nodes = (
(438,0,l),
(438,351,l),
(382,351,l),
(382,0,l)
);
},
{
closed = 1;
nodes = (
(393,298,l),
(427,298,l),
(793,750,l),
(726,750,l),
(385,327,l),
(436,327,l),
(92,750,l),
(25,750,l)
);
}
);
width = 820;
}
);
leftKerningGroup = Y2;
rightKerningGroup = Y;
unicode = 89;
},
{
glyphname = Yhook;
layers = (
{
anchors = (
{
name = bottom;
position = "{431, 0}";
},
{
name = top;
position = "{432, 750}";
}
);
layerId = "4A3736D9-1D75-4B42-9353-97DA234A9782";
shapes = (
{
closed = 1;
nodes = (
(498,0,l),
(498,358,l),
(366,358,l),
(366,0,l)
);
},
{
closed = 1;
nodes = (
(718,612,ls),
(740,643,o),
(754,656,o),
(791,656,cs),
(809,656,o),
(826,653,o),
(850,646,c),
(850,750,l),
(824,759,o),
(795,764,o),
(769,764,cs),
(704,764,o),
(670,738,o),
(612,657,cs),
(401,366,l),
(466,366,l),
(160,750,l),
(12,750,l),
(390,276,l),
(475,276,l)
);
}
);
width = 878;
},
{
anchors = (
{
name = bottom;
position = "{406, 0}";
},
{
name = top;
position = "{406, 750}";
}
);
layerId = "8FDEF4EB-75F1-466F-B872-024C1FB72131";
shapes = (
{
closed = 1;
nodes = (
(435,0,l),
(435,351,l),
(379,351,l),
(379,0,l)
);
},
{
closed = 1;
nodes = (
(679,672,ls),
(695,696,o),
(712,710,o),
(741,710,cs),
(762,710,o),
(781,704,o),
(801,695,c),
(801,749,l),
(785,756,o),
(765,762,o),
(741,762,cs),
(693,762,o),
(665,739,o),
(643,706,cs),
(387,327,l),
(433,327,l),
(89,750,l),
(22,750,l),
(390,298,l),
(426,298,l)
);
}
);
width = 828;
},
{
anchors = (
{
name = bottom;
position = "{476, 0}";
},
{
name = top;
position = "{476, 750}";
}
);
layerId = "97350278-980A-4778-8478-A58DCFDD7560";
shapes = (
{
closed = 1;
nodes = (
(606,0,l),
(606,370,l),
(348,370,l),
(348,0,l)
);
},
{
closed = 1;
nodes = (
(775,522,ls),
(802,557,o),
(825,575,o),
(868,575,cs),
(895,575,o),
(914,571,o),
(936,565,c),
(936,749,l),
(897,761,o),
(859,768,o),
(813,768,cs),
(712,768,o),
(662,734,o),
(600,653,cs),
(430,429,l),
(530,429,l),
(281,750,l),
(-2,750,l),
(393,241,l),
(558,241,l)
);
}
);
width = 959;
}
);
unicode = 435;
},
{
color = 2;
glyphname = Ystroke;
layers = (
{
guides = (
{
angle = 177.397;
position = "{499, 651}";
}
);
layerId = "18EF4CF3-4CEB-4A3C-A2EF-4BB48522AF96";
associatedMasterId = "97350278-980A-4778-8478-A58DCFDD7560";
name = "Black [705]";
shapes = (
{
closed = 1;
nodes = (
(14,557,l),
(983,557,l),
(983,685,l),
(14,685,l)
);
},
{
closed = 1;
nodes = (
(628,0,l),
(628,370,l),
(370,370,l),
(370,0,l)
);
},
{
closed = 1;
nodes = (
(415,241,l),
(582,244,l),
(976,750,l),
(693,750,l),
(445,429,l),
(552,429,l),
(303,750,l),
(20,750,l)
);
}
);
width = 997;
},
{
guides = (
{
angle = 177.397;
position = "{499, 651}";
}
);
layerId = "97350278-980A-4778-8478-A58DCFDD7560";
shapes = (
{
closed = 1;
nodes = (
(14,534,l),
(983,534,l),
(983,704,l),
(14,704,l)
);
},
{
closed = 1;
nodes = (
(628,0,l),
(628,370,l),
(370,370,l),
(370,0,l)
);
},
{
closed = 1;
nodes = (
(415,241,l),
(582,244,l),
(976,750,l),
(693,750,l),
(445,429,l),
(552,429,l),
(303,750,l),
(20,750,l)
);
}
);
width = 997;
},
{
layerId = "E28897B8-13A7-4F1A-9ABA-5B086C73F531";
associatedMasterId = "4A3736D9-1D75-4B42-9353-97DA234A9782";
name = "Regular [705]";
shapes = (
{
closed = 1;
nodes = (
(24,535,l),
(907,535,l),
(907,653,l),
(24,653,l)
);
},
{
closed = 1;
nodes = (
(532,0,l),
(532,358,l),
(400,358,l),
(400,0,l)
);
},
{
closed = 1;
nodes = (
(424,276,l),
(508,277,l),
(885,750,l),
(736,750,l),
(430,366,l),
(501,366,l),
(195,750,l),
(46,750,l)
);
}
);
width = 931;
},
{
layerId = "4A3736D9-1D75-4B42-9353-97DA234A9782";
shapes = (
{
closed = 1;
nodes = (
(24,545,l),
(907,545,l),
(907,643,l),
(24,643,l)
);
},
{
closed = 1;
nodes = (
(532,0,l),
(532,358,l),
(400,358,l),
(400,0,l)
);
},
{
closed = 1;
nodes = (
(424,276,l),
(508,277,l),
(885,750,l),
(736,750,l),
(430,366,l),
(501,366,l),
(195,750,l),
(46,750,l)
);
}
);
width = 931;
},
{
layerId = "8FDEF4EB-75F1-466F-B872-024C1FB72131";
shapes = (
{
closed = 1;
nodes = (
(32,554,l),
(850,554,l),
(850,604,l),
(32,604,l)
);
},
{
closed = 1;
nodes = (
(469,0,l),
(469,351,l),
(413,351,l),
(413,0,l)
);
},
{
closed = 1;
nodes = (
(424,298,l),
(458,298,l),
(824,750,l),
(757,750,l),
(416,327,l),
(467,327,l),
(123,750,l),
(56,750,l)
);
}
);
width = 884;
},
{
layerId = "1A10783B-B5A2-4A18-814B-86118381D8A0";
name = "Light.Ligh [705]";
shapes = (
{
closed = 1;
nodes = (
(32,554,l),
(850,554,l),
(850,604,l),
(32,604,l)
);
},
{
closed = 1;
nodes = (
(469,0,l),
(469,351,l),
(413,351,l),
(413,0,l)
);
},
{
closed = 1;
nodes = (
(424,298,l),
(458,298,l),
(824,750,l),
(757,750,l),
(416,327,l),
(467,327,l),
(123,750,l),
(56,750,l)
);
}
);
width = 884;
}
);
unicode = 590;
},
